<?xml version="1.0" encoding="utf-8"?>
<!-- Generator: Adobe Illustrator 19.2.0, SVG Export Plug-In . SVG Version: 6.00 Build 0)  -->
<svg version="1.1" id="Calque_1" xmlns="http://www.w3.org/2000/svg" xmlns:xlink="http://www.w3.org/1999/xlink" x="0px" y="0px"
	 viewBox="0 0 800 800" style="enable-background:new 0 0 800 800;" xml:space="preserve">
<style type="text/css">
	.st0{fill:#DDDDDD;}
	.st1{fill:#FB6E62;}
</style>
<g>
	<path class="st0" d="M44.7,411.7C44.7,214,205.5,53.2,403.2,53.2c197.7,0,358.5,160.8,358.5,358.5c0,197.7-160.8,358.5-358.5,358.5
		C205.5,770.2,44.7,609.3,44.7,411.7z M51.7,411.7c0,193.8,157.7,351.5,351.5,351.5s351.5-157.7,351.5-351.5S597,60.1,403.2,60.1
		S51.7,217.8,51.7,411.7z"/>
</g>
<g>
	<path class="st1" d="M758.2,423.4c6.7,0,12.2-5.5,12.2-12.2C770.4,208.7,605.7,44,403.2,44c-6.7,0-12.2,5.5-12.2,12.2
		s5.5,12.2,12.2,12.2c189,0,342.8,153.8,342.8,342.8C746,417.9,751.5,423.4,758.2,423.4z"/>
</g>
</svg>
