<?xml version="1.0" encoding="utf-8"?>
<!-- Generator: Adobe Illustrator 19.2.0, SVG Export Plug-In . SVG Version: 6.00 Build 0)  -->
<svg version="1.1" id="Calque_1" xmlns="http://www.w3.org/2000/svg" xmlns:xlink="http://www.w3.org/1999/xlink" x="0px" y="0px"
	 viewBox="0 0 800 800" style="enable-background:new 0 0 800 800;" xml:space="preserve">
<style type="text/css">
	.st0{fill:#DDDDDD;}
	.st1{fill:#FABA49;}
</style>
<g>
	<path class="st0" d="M403,44.2c197.7,0,358.5,160.8,358.5,358.5c0,197.7-160.8,358.5-358.5,358.5c-197.7,0-358.5-160.8-358.5-358.5
		C44.5,205,205.3,44.2,403,44.2z M403,51.2c-193.8,0-351.5,157.7-351.5,351.5S209.2,754.2,403,754.2s351.5-157.7,351.5-351.5
		S596.8,51.2,403,51.2z"/>
</g>
<g>
	<path class="st1" d="M391.2,757.7c0,6.7,5.5,12.2,12.2,12.2c202.5,0,367.2-164.7,367.2-367.2c0-6.7-5.5-12.2-12.2-12.2
		c-6.7,0-12.2,5.5-12.2,12.2c0,189-153.8,342.8-342.8,342.8C396.7,745.5,391.2,751,391.2,757.7z"/>
</g>
</svg>
