<?xml version="1.0" encoding="utf-8"?>
<!-- Generator: Adobe Illustrator 19.2.0, SVG Export Plug-In . SVG Version: 6.00 Build 0)  -->
<svg version="1.1" id="Calque_1" xmlns="http://www.w3.org/2000/svg" xmlns:xlink="http://www.w3.org/1999/xlink" x="0px" y="0px"
	 viewBox="0 0 800 800" style="enable-background:new 0 0 800 800;" xml:space="preserve">
<style type="text/css">
	.st0{fill:#DDDDDD;}
	.st1{fill:#499CFB;}
</style>
<g>
	<path class="st0" d="M411.9,770.2c-197.7,0-358.5-160.8-358.5-358.5C53.4,214,214.3,53.2,411.9,53.2
		c197.7,0,358.5,160.8,358.5,358.5C770.4,609.3,609.6,770.2,411.9,770.2z M411.9,60.1c-193.8,0-351.5,157.7-351.5,351.5
		s157.7,351.5,351.5,351.5s351.5-157.7,351.5-351.5S605.8,60.1,411.9,60.1z"/>
</g>
<g>
	<path class="st1" d="M56.9,423.4c-6.7,0-12.2-5.5-12.2-12.2C44.7,208.7,209.5,44,411.9,44c6.7,0,12.2,5.5,12.2,12.2
		s-5.5,12.2-12.2,12.2c-189,0-342.8,153.8-342.8,342.8C69.1,417.9,63.7,423.4,56.9,423.4z"/>
</g>
</svg>
