<?xml version="1.0" encoding="utf-8"?>
<!-- Generator: Adobe Illustrator 19.2.0, SVG Export Plug-In . SVG Version: 6.00 Build 0)  -->
<svg version="1.1" id="Capa_1" xmlns="http://www.w3.org/2000/svg" xmlns:xlink="http://www.w3.org/1999/xlink" x="0px" y="0px"
	 viewBox="0 0 107.9 107.9" style="enable-background:new 0 0 107.9 107.9;" xml:space="preserve">
<style type="text/css">
	.st0{clip-path:url(#SVGID_2_);fill:#383838;}
</style>
<g>
	<defs>
		<rect id="SVGID_1_" x="12.3" y="7.4" width="83.3" height="93.1"/>
	</defs>
	<clipPath id="SVGID_2_">
		<use xlink:href="#SVGID_1_"  style="overflow:visible;"/>
	</clipPath>
	<path class="st0" d="M68.8,73.3c-0.9,0-1.7-0.7-1.7-1.6c0-0.9,0.7-1.6,1.7-1.6h7.5L56.3,50.7L47.8,59c-0.6,0.6-1.7,0.6-2.4,0
		L24.3,38.6c-0.7-0.6-0.7-1.6,0-2.3c0.6-0.6,1.7-0.6,2.4,0l20,19.3l8.5-8.2c0.3-0.3,0.7-0.5,1.2-0.5c0.4,0,0.9,0.2,1.2,0.5
		l21.4,20.6v-7.5c0-0.9,0.7-1.6,1.7-1.6s1.7,0.7,1.7,1.6v11.2c0,0.9-0.7,1.6-1.7,1.6H68.8z"/>
	<path class="st0" d="M53.9,17C32.8,17,15.6,33.6,15.6,54c0,20.4,17.2,36.9,38.3,36.9S92.3,74.3,92.3,54C92.3,33.6,75.1,17,53.9,17
		 M53.9,94.1c-23,0-41.6-18-41.6-40.1c0-22.1,18.7-40.1,41.6-40.1s41.6,18,41.6,40.1C95.6,76.1,76.9,94.1,53.9,94.1"/>
	<path class="st0" d="M22.1,84.6c17.5,16.9,46.1,16.9,63.6,0c0.6-0.6,1.7-0.6,2.4,0c0.7,0.6,0.7,1.6,0,2.3
		c-9.4,9.1-21.8,13.6-34.2,13.6c-12.4,0-24.7-4.5-34.2-13.6c-0.6-0.6-0.6-1.6,0-2.3C20.4,84,21.5,84,22.1,84.6"/>
	<path class="st0" d="M85.8,23.3C77.3,15.1,66,10.6,54,10.6c-12,0-23.3,4.5-31.8,12.7c-0.3,0.3-0.7,0.5-1.2,0.5
		c-0.4,0-0.9-0.2-1.2-0.5c-0.7-0.6-0.7-1.6,0-2.3C28.9,12.3,41,7.4,54,7.4s25,4.8,34.2,13.6c0.6,0.6,0.6,1.6,0,2.3
		C87.5,23.9,86.4,23.9,85.8,23.3"/>
</g>
</svg>
