<?xml version="1.0" encoding="utf-8"?>
<!-- Generator: Adobe Illustrator 21.0.2, SVG Export Plug-In . SVG Version: 6.00 Build 0)  -->
<svg version="1.1" id="Calque_1" xmlns="http://www.w3.org/2000/svg" xmlns:xlink="http://www.w3.org/1999/xlink" x="0px" y="0px"
	 viewBox="0 0 50 50" style="enable-background:new 0 0 50 50;" xml:space="preserve">
<style type="text/css">
	.st0{fill:#383737;}
</style>
<g>
	<path class="st0" d="M25.1,0.7C11.8,0.7,0.9,11.6,0.9,24.9s10.9,24.2,24.2,24.2s24.2-10.9,24.2-24.2S38.5,0.7,25.1,0.7z M25.1,47.6
		c-12.5,0-22.6-10.2-22.6-22.6S12.7,2.3,25.1,2.3s22.6,10.2,22.6,22.6S37.6,47.6,25.1,47.6z"/>
	<path class="st0" d="M25.9,21.7v-8.2c0-0.4-0.4-0.8-0.8-0.8s-0.8,0.4-0.8,0.8v8.2c-1.1,0.3-2,1.2-2.3,2.3h-5.8
		c-0.4,0-0.8,0.4-0.8,0.8c0,0.4,0.4,0.8,0.8,0.8H22c0.4,1.4,1.6,2.4,3.1,2.4c1.8,0,3.2-1.4,3.2-3.2C28.4,23.3,27.3,22.1,25.9,21.7z
		 M25.1,26.4c-0.9,0-1.6-0.7-1.6-1.6c0-0.9,0.7-1.6,1.6-1.6s1.6,0.7,1.6,1.6C26.8,25.7,26,26.4,25.1,26.4z"/>
	<path class="st0" d="M25.1,8.7c0.4,0,0.8-0.4,0.8-0.8V7c0-0.4-0.4-0.8-0.8-0.8S24.3,6.6,24.3,7v0.8C24.3,8.3,24.7,8.7,25.1,8.7z"/>
	<path class="st0" d="M25.1,41c-0.4,0-0.8,0.4-0.8,0.8v0.8c0,0.4,0.4,0.8,0.8,0.8s0.8-0.4,0.8-0.8v-0.8C25.9,41.3,25.6,41,25.1,41z"
		/>
	<path class="st0" d="M42.9,24h-0.8c-0.4,0-0.8,0.4-0.8,0.8c0,0.4,0.4,0.8,0.8,0.8h0.8c0.4,0,0.8-0.4,0.8-0.8
		C43.7,24.4,43.4,24,42.9,24z"/>
	<path class="st0" d="M8.2,24H7.4c-0.4,0-0.8,0.4-0.8,0.8c0,0.4,0.4,0.8,0.8,0.8h0.8c0.4,0,0.8-0.4,0.8-0.8C9,24.4,8.6,24,8.2,24z"
		/>
	<path class="st0" d="M37.1,11.7l-0.6,0.6c-0.3,0.3-0.3,0.8,0,1.1c0.2,0.2,0.4,0.2,0.6,0.2c0.2,0,0.4-0.1,0.6-0.2l0.6-0.6
		c0.3-0.3,0.3-0.8,0-1.1C38,11.4,37.5,11.4,37.1,11.7z"/>
	<path class="st0" d="M12.6,36.3L12,36.8c-0.3,0.3-0.3,0.8,0,1.1c0.2,0.2,0.4,0.2,0.6,0.2s0.4-0.1,0.6-0.2l0.6-0.6
		c0.3-0.3,0.3-0.8,0-1.1C13.4,35.9,12.9,35.9,12.6,36.3z"/>
	<path class="st0" d="M37.7,36.3c-0.3-0.3-0.8-0.3-1.1,0c-0.3,0.3-0.3,0.8,0,1.1l0.6,0.6c0.2,0.2,0.4,0.2,0.6,0.2
		c0.2,0,0.4-0.1,0.6-0.2c0.3-0.3,0.3-0.8,0-1.1L37.7,36.3z"/>
	<path class="st0" d="M13.1,11.7c-0.3-0.3-0.8-0.3-1.1,0c-0.3,0.3-0.3,0.8,0,1.1l0.6,0.6c0.2,0.2,0.4,0.2,0.6,0.2
		c0.2,0,0.4-0.1,0.6-0.2c0.3-0.3,0.3-0.8,0-1.1L13.1,11.7z"/>
</g>
</svg>
