<?xml version="1.0" encoding="utf-8"?>
<!-- Generator: Adobe Illustrator 22.1.0, SVG Export Plug-In . SVG Version: 6.00 Build 0)  -->
<svg version="1.1" id="Calque_1" xmlns="http://www.w3.org/2000/svg" xmlns:xlink="http://www.w3.org/1999/xlink" x="0px" y="0px"
	 viewBox="0 0 231.1 231.1" style="enable-background:new 0 0 231.1 231.1;" xml:space="preserve">
<style type="text/css">
	.st0{fill:#00B2EE;}
</style>
<g>
	<g>
		<path class="st0" d="M181.6,120.3c-1.6,0-3,1.3-3,3c0,2.1-1.7,3.8-3.8,3.8c-2.1,0-3.8-1.7-3.8-3.8c0-1.6-1.3-3-3-3
			c-1.6,0-3,1.3-3,3c0,5.3,4.3,9.7,9.7,9.7c5.3,0,9.7-4.3,9.7-9.7C184.5,121.7,183.2,120.3,181.6,120.3z"/>
	</g>
</g>
<g>
	<g>
		<path class="st0" d="M209.3,120.8l-8.3-2.7c-1.1-0.3-1.9-1.2-2.2-2.3c-1.8-5.6-4.4-10.8-7.9-15.5c-1.6-2.2-3.3-4.2-5.3-6.2
			c1.2-5.4,1.9-11.5,1.8-16.7c-0.1-7.5-1.6-11.9-4.6-13.5c-1.6-0.8-6.5-3.4-32.8,8.7c-0.6,0.3-1.2,0.6-1.7,1
			c-1.8-0.5-3.6-0.9-5.4-1.3c-0.2,0-0.4-0.1-0.7-0.1c2.1-4.7,3.4-9.7,3.6-15c0.1-1.6-1.2-3-2.8-3.1c-1.6-0.1-3,1.2-3.1,2.8
			c-0.4,8.6-4,16.7-10,22.8c-3.6,3.6-7.9,6.3-12.4,7.9c-7.9-1.1-15.9-1.1-23.8,0c-4.5-1.7-8.8-4.3-12.4-7.9
			c-6.5-6.5-10.1-15.1-10.1-24.3c0-9.2,3.6-17.8,10.1-24.3C87.7,24.6,96.3,21,105.5,21s17.8,3.6,24.3,10.1c2.6,2.6,4.8,5.6,6.4,8.9
			c0.7,1.5,2.5,2,4,1.3c1.5-0.7,2-2.5,1.3-4c-1.9-3.8-4.5-7.3-7.5-10.4c-7.6-7.6-17.7-11.8-28.5-11.8S84.6,19.3,77,26.9
			c-7.6,7.6-11.8,17.7-11.8,28.5S69.4,76.3,77,83.9c2.2,2.2,4.6,4.1,7.1,5.7c0,0,0,0,0,0c-1.8,0.5-3.7,1-5.5,1.6
			c-1.5,0.5-2.4,2.2-1.9,3.7c0.5,1.5,2.2,2.4,3.7,1.9c16.1-5.4,33.9-5.4,50,0c0.3,0.1,0.6,0.2,0.9,0.2c1.2,0,2.4-0.8,2.8-2
			c0.5-1.5-0.3-3.2-1.9-3.7c-1.8-0.6-3.6-1.1-5.5-1.6c0,0,0,0,0,0c2.5-1.6,4.9-3.5,7.1-5.7c1.9-1.9,3.7-4.1,5.1-6.3
			c0.8,0.2,1.6,0.3,2.4,0.5c1.1,0.2,2.1,0.5,3.2,0.7c0,0.1-0.1,0.3-0.1,0.4c-1.4,6.8-1.3,12.9,0.3,18c1.5,4.6,4.1,8.3,7.8,11
			c4.4,3.2,9.7,4.6,14.5,4.6c3.6,0,7-0.8,9.4-2.2c2.8-1.6,5.1-4.9,6.9-9.9c0.9,1,1.7,2,2.4,3.1c3.1,4.2,5.4,8.9,7,13.8
			c0.9,2.9,3.2,5.2,6.1,6.1l8.3,2.7c2.2,0.7,3.6,2.7,3.6,5v13.8c0,2.3-1.5,4.3-3.6,5l-13.4,4.3c-2.1,0.7-4,2.2-5.1,4.1
			c-5.3,9.1-13.5,16.6-24.6,22.4c-1.3,0.7-2.2,1.9-2.4,3.3l-4.3,22.7c-0.1,0.6-0.7,1.1-1.3,1.1h-14c-0.6,0-1.2-0.5-1.3-1.1
			l-2.4-12.6c-0.5-2.5-2.8-4.1-5.3-3.7c-6,0.9-12.2,1.4-18.4,1.4c-4.6,0-9.2-0.3-13.5-0.8c-2.4-0.3-4.7,1.4-5.1,3.8L94.1,207
			c-0.1,0.6-0.7,1.1-1.3,1.1h-14c-0.6,0-1.2-0.5-1.3-1.1l-4.1-21.5c-0.3-1.4-1.1-2.6-2.4-3.2c-18.9-10.1-28.8-26.9-28.8-48.6
			c0-11,2.4-20.7,7.1-28.9c4.4-7.6,10.9-13.9,19.2-18.7c1.4-0.8,1.9-2.6,1.1-4c-0.8-1.4-2.6-1.9-4-1.1c-16.1,9.3-25.9,23.7-28.5,42
			v0c-0.3,0-0.6-0.1-0.9-0.1c0.1-2-0.3-4-1.1-5.9c-1.7-4.3-5.2-7.3-9-7.8c-2.9-0.4-5.7,0.9-7.7,3.4c-2.8,3.7-2.4,6.7-1.5,8.5
			c1.5,3.1,5.3,5.2,11.7,6.6c-0.2,0.3-0.4,0.5-0.6,0.8c-3.8,4.7-8.2,5.7-11,5.8c-1.7,0.1-3,1.4-3,3.1v0c0,1.7,1.3,3,3,3.1
			c0.2,0,0.4,0,0.7,0c3.6,0,9.5-1.3,15.1-8.4c0.9-1.1,1.6-2.3,2.2-3.5c0.6,0.1,1.1,0.1,1.6,0.2c0,0,0,0,0,0
			c-0.1,1.6-0.2,3.2-0.2,4.9c0,12.3,2.9,23.3,8.7,32.6c5.3,8.6,13,15.6,22.7,20.9l4,20.9c0.6,3.4,3.6,5.9,7.1,5.9h14
			c3.5,0,6.5-2.5,7.1-5.9l2-10.8c4.2,0.4,8.6,0.7,13.1,0.7c6.1,0,12.2-0.4,18.1-1.3l2.2,11.4c0.6,3.4,3.6,5.9,7.1,5.9h14
			c3.5,0,6.5-2.5,7.1-5.9l4.2-22.1c11.8-6.2,20.7-14.4,26.4-24.4c0.4-0.7,1.1-1.2,1.8-1.5l13.4-4.3c4.6-1.5,7.8-5.8,7.8-10.6v-13.8
			C217.1,126.6,213.9,122.3,209.3,120.8z M181.1,85.7c-1.1,9.7-4.2,18-7.3,19.8c-3.5,2-11.5,2.4-17.6-2.1c-6-4.4-8.1-12.4-5.8-23
			c0,0,0,0,0,0c0.2-1.1,1-2,2-2.5c14.8-6.8,23.3-9,26.5-9c0.5,0,0.8,0.1,1.1,0.1C181,70.1,182.2,75.9,181.1,85.7z M22.3,118.5
			c-0.3-0.6,0.4-1.7,0.9-2.3c0.7-1,1.4-1.2,1.9-1.2c0.1,0,0.2,0,0.3,0c1.4,0.2,3.3,1.7,4.3,4.2c0.2,0.6,0.5,1.6,0.6,2.8
			C26.2,121.2,23,119.9,22.3,118.5z"/>
	</g>
</g>
<g>
	<path class="st0" d="M106.1,58.9h-6.2c1.5,1.9,3.5,2.9,6.1,2.9c2.6,0,4.5-1.1,5.6-3.3h8.6c-1,3.1-2.8,5.5-5.4,7.3
		c-2.6,1.8-5.5,2.6-8.8,2.6c-3.3,0-6.2-0.9-8.8-2.6c-2.6-1.7-4.4-4.1-5.5-7h-3.6v-4.4h2.6c0-0.3,0-0.6,0-1.2s0-0.9,0-1.2h-2.6v-4.5
		h3.6c1.1-2.9,2.9-5.2,5.5-6.9c2.6-1.7,5.5-2.6,8.8-2.6c3.3,0,6.2,0.9,8.8,2.6c2.6,1.8,4.4,4.2,5.4,7.3h-8.6c-1.1-2.2-3-3.3-5.6-3.3
		c-2.6,0-4.7,1-6.1,2.9h6.2v4.5h-7.8c0,0.3,0,0.6,0,1.2s0,0.9,0,1.2h7.8V58.9z"/>
</g>
</svg>
