<?xml version="1.0" encoding="utf-8"?>
<!-- Generator: Adobe Illustrator 21.0.0, SVG Export Plug-In . SVG Version: 6.00 Build 0)  -->
<svg version="1.1" id="Capa_1" xmlns="http://www.w3.org/2000/svg" xmlns:xlink="http://www.w3.org/1999/xlink" x="0px" y="0px"
	 viewBox="0 0 107.9 107.9" style="enable-background:new 0 0 107.9 107.9;" xml:space="preserve">
<style type="text/css">
	.st0{fill:#FABA49;}
</style>
<g>
	<g>
		<g>
			<path class="st0" d="M97.8,37.1H71.2V10.5c0-1-0.8-1.8-1.8-1.8H38.9c-1,0-1.8,0.8-1.8,1.8v26.6H10.5c-1,0-1.8,0.8-1.8,1.8v30.4
				c0,1,0.8,1.8,1.8,1.8h26.6v26.6c0,1,0.8,1.8,1.8,1.8h30.4c1,0,1.8-0.8,1.8-1.8V71.2h26.6c1,0,1.8-0.8,1.8-1.8V38.9
				C99.6,37.9,98.8,37.1,97.8,37.1z M96,67.6H69.4c-1,0-1.8,0.8-1.8,1.8V96H40.7V69.4c0-1-0.8-1.8-1.8-1.8H12.3V40.7h26.6
				c1,0,1.8-0.8,1.8-1.8V12.3h26.8v26.6c0,1,0.8,1.8,1.8,1.8H96V67.6z"/>
		</g>
	</g>
	<g>
		<g>
			<path class="st0" d="M36.8,42.6H23.2c-1,0-1.8,0.8-1.8,1.8s0.8,1.8,1.8,1.8h13.6c1,0,1.8-0.8,1.8-1.8S37.8,42.6,36.8,42.6z"/>
		</g>
	</g>
	<g>
		<g>
			<path class="st0" d="M17.2,42.6h-1.1c-1,0-1.8,0.8-1.8,1.8s0.8,1.8,1.8,1.8h1.1c1,0,1.8-0.8,1.8-1.8S18.2,42.6,17.2,42.6z"/>
		</g>
	</g>
</g>
</svg>
