<svg xmlns="http://www.w3.org/2000/svg" xmlns:xlink="http://www.w3.org/1999/xlink" id="Capa_1" x="0" y="0" version="1.1" viewBox="0 0 107.9 107.9" xml:space="preserve" style="enable-background:new 0 0 107.9 107.9"><style type="text/css">.st0{fill:#faba49}</style><g><g><g><path d="M97.8,37.1H71.2V10.5c0-1-0.8-1.8-1.8-1.8H38.9c-1,0-1.8,0.8-1.8,1.8v26.6H10.5c-1,0-1.8,0.8-1.8,1.8v30.4 c0,1,0.8,1.8,1.8,1.8h26.6v26.6c0,1,0.8,1.8,1.8,1.8h30.4c1,0,1.8-0.8,1.8-1.8V71.2h26.6c1,0,1.8-0.8,1.8-1.8V38.9 C99.6,37.9,98.8,37.1,97.8,37.1z M96,67.6H69.4c-1,0-1.8,0.8-1.8,1.8V96H40.7V69.4c0-1-0.8-1.8-1.8-1.8H12.3V40.7h26.6 c1,0,1.8-0.8,1.8-1.8V12.3h26.8v26.6c0,1,0.8,1.8,1.8,1.8H96V67.6z" class="st0"/></g></g><g><g><path d="M36.8,42.6H23.2c-1,0-1.8,0.8-1.8,1.8s0.8,1.8,1.8,1.8h13.6c1,0,1.8-0.8,1.8-1.8S37.8,42.6,36.8,42.6z" class="st0"/></g></g><g><g><path d="M17.2,42.6h-1.1c-1,0-1.8,0.8-1.8,1.8s0.8,1.8,1.8,1.8h1.1c1,0,1.8-0.8,1.8-1.8S18.2,42.6,17.2,42.6z" class="st0"/></g></g></g></svg>