<?xml version="1.0" encoding="utf-8"?>
<!-- Generator: Adobe Illustrator 21.0.2, SVG Export Plug-In . SVG Version: 6.00 Build 0)  -->
<svg version="1.1" id="Capa_1" xmlns="http://www.w3.org/2000/svg" xmlns:xlink="http://www.w3.org/1999/xlink" x="0px" y="0px"
	 viewBox="0 0 482.8 482.8" style="enable-background:new 0 0 482.8 482.8;" xml:space="preserve">
<style type="text/css">
	.st0{fill:#499CFB;stroke:#499CFB;stroke-width:3;stroke-miterlimit:10;}
	.st1{fill:none;}
	.st2{fill:#499CFB;}
	.st3{font-family:'Poppins-SemiBold';}
	.st4{font-size:125px;}
</style>
<g>
	<g>
		<path class="st0" d="M422.6,427.9H62.2c-23.8,0-43.1-19.3-43.1-43.1V113.9c0-23.8,19.3-43.1,43.1-43.1h360.4
			c23.8,0,43.1,19.3,43.1,43.1v270.8C465.7,408.5,446.4,427.9,422.6,427.9z M62.2,80.4c-18.5,0-33.5,15-33.5,33.5v270.8
			c0,18.5,15,33.5,33.5,33.5h360.4c18.5,0,33.5-15,33.5-33.5V113.9c0-18.5-15-33.5-33.5-33.5H62.2z"/>
	</g>
	<g>
		<rect x="23.9" y="180.8" class="st0" width="437" height="9.6"/>
	</g>
	<g>
		<circle class="st0" cx="67.9" cy="129.2" r="10.9"/>
	</g>
	<g>
		<circle class="st0" cx="104.5" cy="129.2" r="10.9"/>
	</g>
	<g>
		<circle class="st0" cx="141.1" cy="129.2" r="10.9"/>
	</g>
</g>
<rect x="28.7" y="249.3" class="st1" width="424.3" height="156"/>
<text transform="matrix(1 0 0 1 117.8511 341.849)" class="st2 st3 st4">404</text>
</svg>
