<?xml version="1.0" encoding="utf-8"?>
<!-- Generator: Adobe Illustrator 21.0.2, SVG Export Plug-In . SVG Version: 6.00 Build 0)  -->
<svg version="1.1" id="Calque_1" xmlns="http://www.w3.org/2000/svg" xmlns:xlink="http://www.w3.org/1999/xlink" x="0px" y="0px"
	 viewBox="0 0 40 40" style="enable-background:new 0 0 40 40;" xml:space="preserve">
<style type="text/css">
	.st0{fill:#FFFFFF;}
</style>
<g>
	<g>
		<path class="st0" d="M20,1C9.4,1,0.8,9.6,0.8,20.2c0,10.6,8.6,19.2,19.2,19.2c10.6,0,19.2-8.6,19.2-19.2C39.2,9.6,30.6,1,20,1z
			 M24.8,20.8h-3.1c0,5,0,11.1,0,11.1H17c0,0,0-6.1,0-11.1h-2.2v-3.9H17v-2.5c0-1.8,0.9-4.7,4.7-4.7l3.4,0v3.8c0,0-2.1,0-2.5,0
			c-0.4,0-1,0.2-1,1.1v2.3h3.5L24.8,20.8z"/>
	</g>
</g>
</svg>
