<?xml version="1.0" encoding="utf-8"?>
<!-- Generator: Adobe Illustrator 26.0.3, SVG Export Plug-In . SVG Version: 6.00 Build 0)  -->
<svg version="1.1" id="Calque_1" xmlns="http://www.w3.org/2000/svg" xmlns:xlink="http://www.w3.org/1999/xlink" x="0px" y="0px"
	 viewBox="0 0 40 40" style="enable-background:new 0 0 40 40;" xml:space="preserve">
<style type="text/css">
	.st0{fill:#FFFFFF;}
</style>
<path class="st0" d="M26.2,7.6H23c-3.6,0-6,2.4-6,6.1v2.8h-3.2c-0.3,0-0.5,0.2-0.5,0.5c0,0,0,0,0,0v4.1c0,0.3,0.2,0.5,0.5,0.5
	c0,0,0,0,0,0H17v10.3c0,0.3,0.2,0.5,0.5,0.5h4.2c0.3,0,0.5-0.2,0.5-0.5V21.6H26c0.3,0,0.5-0.2,0.5-0.5l0,0V17c0-0.1-0.1-0.3-0.1-0.4
	c-0.1-0.1-0.2-0.1-0.4-0.1h-3.8v-2.4c0-1.1,0.3-1.7,1.8-1.7h2.2c0.3,0,0.5-0.2,0.5-0.5V8.1C26.7,7.8,26.5,7.6,26.2,7.6
	C26.2,7.6,26.2,7.6,26.2,7.6z"/>
</svg>
