<?xml version="1.0" encoding="utf-8"?>
<!-- Generator: Adobe Illustrator 21.0.2, SVG Export Plug-In . SVG Version: 6.00 Build 0)  -->
<svg version="1.1" id="Calque_1" xmlns="http://www.w3.org/2000/svg" xmlns:xlink="http://www.w3.org/1999/xlink" x="0px" y="0px"
	 viewBox="0 0 181 181" style="enable-background:new 0 0 181 181;" xml:space="preserve">
<style type="text/css">
	.st0{fill:#383737;}
</style>
<g>
	<path class="st0" d="M169.2,8.1H11c-1.9,0-3.4,1.5-3.4,3.4v158.3c0,1.9,1.5,3.4,3.4,3.4h134.5c1.9,0,3.4-1.5,3.4-3.4
		s-1.5-3.4-3.4-3.4H14.3V14.8h151.5v154.9c0,1.9,1.5,3.4,3.4,3.4s3.4-1.5,3.4-3.4V11.4C172.6,9.6,171.1,8.1,169.2,8.1z"/>
	<path class="st0" d="M44.4,43c-7.1,0-12.9,5.8-12.9,12.9s5.8,12.9,12.9,12.9S57.3,63,57.3,55.9S51.5,43,44.4,43z M44.4,62
		c-3.4,0-6.2-2.8-6.2-6.2s2.8-6.2,6.2-6.2s6.2,2.8,6.2,6.2S47.8,62,44.4,62z"/>
	<path class="st0" d="M145.7,52.5H67.4c-1.9,0-3.4,1.5-3.4,3.4s1.5,3.4,3.4,3.4h78.3c1.9,0,3.4-1.5,3.4-3.4S147.5,52.5,145.7,52.5z"
		/>
	<path class="st0" d="M44.4,77.7c-1.9,0-3.4,1.5-3.4,3.4c0,1.9,1.5,3.4,3.4,3.4c3.4,0,6.2,2.8,6.2,6.2s-2.8,6.2-6.2,6.2
		s-6.2-2.8-6.2-6.2c0-1.9-1.5-3.4-3.4-3.4c-1.9,0-3.4,1.5-3.4,3.4c0,7.1,5.8,12.9,12.9,12.9s12.9-5.8,12.9-12.9S51.5,77.7,44.4,77.7
		z"/>
	<path class="st0" d="M145.7,87.2H67.4c-1.9,0-3.4,1.5-3.4,3.4s1.5,3.4,3.4,3.4h78.3c1.9,0,3.4-1.5,3.4-3.4S147.5,87.2,145.7,87.2z"
		/>
	<path class="st0" d="M44.4,112.4c-7.1,0-12.9,5.8-12.9,12.9c0,7.1,5.8,12.9,12.9,12.9s12.9-5.8,12.9-12.9
		C57.3,118.2,51.5,112.4,44.4,112.4z M44.4,131.4c-3.4,0-6.2-2.8-6.2-6.2s2.8-6.2,6.2-6.2s6.2,2.8,6.2,6.2S47.8,131.4,44.4,131.4z"
		/>
	<path class="st0" d="M145.7,121.9H67.4c-1.9,0-3.4,1.5-3.4,3.4s1.5,3.4,3.4,3.4h78.3c1.9,0,3.4-1.5,3.4-3.4
		S147.5,121.9,145.7,121.9z"/>
</g>
</svg>
