<svg xmlns="http://www.w3.org/2000/svg" xmlns:xlink="http://www.w3.org/1999/xlink" id="Capa_1" x="0" y="0" version="1.1" viewBox="0 0 107.9 107.9" xml:space="preserve" style="enable-background:new 0 0 107.9 107.9"><style type="text/css">.st0{clip-path:url(#SVGID_2_)}.st1{fill:#383838}</style><g><defs><rect id="SVGID_1_" width="105.1" height="75.2" x="1.8" y="19.6"/></defs><clipPath id="SVGID_2_"><use xlink:href="#SVGID_1_" style="overflow:visible"/></clipPath><g class="st0"><path d="M42.8,94.8c-1.4,0-2.8-0.5-3.9-1.5L3.7,61.5c-1.2-1.1-1.9-2.6-1.9-4.2c0-1.6,0.7-3.2,1.9-4.3l12.2-11 c2.2-2,5.5-2,7.7,0l19.2,17.4l42.4-38.3c0,0,0,0,0,0c2.2-2,5.5-2,7.7,0l12.2,11c1.2,1.1,1.9,2.6,1.9,4.3c0,1.6-0.7,3.2-1.9,4.3 L46.6,93.3C45.5,94.3,44.2,94.8,42.8,94.8z M19.7,46.2l-12.2,11l35.2,31.9l58.4-52.7L89,25.3l-1.9-2.1l1.9,2.1l-44.3,40 c-1.1,1-2.8,1-3.8,0L19.7,46.2z" class="st1"/></g></g></svg>