<svg xmlns="http://www.w3.org/2000/svg" xmlns:xlink="http://www.w3.org/1999/xlink" id="Calque_1" x="0" y="0" version="1.1" viewBox="0 0 181 181" xml:space="preserve" style="enable-background:new 0 0 181 181"><style type="text/css">.st0{fill:#383737}</style><g><g><path d="M174.5,159.6H6.5c-2.3,0-4.2,1.9-4.2,4.2c0,2.3,1.9,4.2,4.2,4.2h168c2.3,0,4.2-1.9,4.2-4.2 C178.7,161.4,176.8,159.6,174.5,159.6z" class="st0"/></g></g><g><g><path d="M163.6,32.8h-29.3c-2.3,0-4.2,1.9-4.2,4.2v28.3h-20.9v-48c0-2.3-1.9-4.2-4.2-4.2H75.9c-2.3,0-4.2,1.9-4.2,4.2 v78.8H50.8V60.7c0-2.3-1.9-4.2-4.2-4.2H17.4c-2.3,0-4.2,1.9-4.2,4.2v79.7c0,2.3,1.9,4.2,4.2,4.2h29.3h29.3h29.3h29.3h29.3 c2.3,0,4.2-1.9,4.2-4.2V36.9C167.8,34.6,165.9,32.8,163.6,32.8z M42.5,136.2H21.5V64.8h20.9L42.5,136.2z M71.7,136.2H50.8v-31.8 h20.9V136.2z M101,69.4v66.8H80V21.4H101V69.4z M130.2,136.2h-20.9V73.6h20.9V136.2z M159.5,136.2h-20.9V69.4V41.1h20.9 L159.5,136.2L159.5,136.2z" class="st0"/></g></g></svg>