<svg xmlns="http://www.w3.org/2000/svg" xmlns:xlink="http://www.w3.org/1999/xlink" id="Calque_1" x="0" y="0" version="1.1" viewBox="0 0 80 80" xml:space="preserve" style="enable-background:new 0 0 80 80"><style type="text/css">.st0{fill:#fff}.st1{fill:#e3e3e3}.st2{fill:#383737}.st3{fill:#faba49}.st4{fill:#499cfb}.st5{fill:#afafaf}</style><g><g><rect width="60.6" height="37.3" x="9.7" y="20.3" class="st0"/></g><g><rect width="60.6" height="9.3" x="9.7" y="20.3" class="st1"/></g><g><path d="M69.6,15.7H10.4c-3,0-5.4,2.4-5.4,5.4v42.4c0,0.6,0.5,1.2,1.2,1.2h67.6c0.6,0,1.2-0.5,1.2-1.2V21 C75,18.1,72.6,15.7,69.6,15.7z M9.7,56.5v-35c0-0.6,0.5-1.2,1.2-1.2h58.3c0.6,0,1.2,0.5,1.2,1.2v35c0,0.6-0.5,1.2-1.2,1.2H10.8 C10.2,57.6,9.7,57.1,9.7,56.5z" class="st2"/></g><g><path d="M76.1,62.3H3.9c-0.6,0-1.2,0.5-1.2,1.2l0,0c0,2.6,2.1,4.7,4.7,4.7h65.3c2.6,0,4.7-2.1,4.7-4.7l0,0 C77.3,62.8,76.8,62.3,76.1,62.3z" class="st1"/></g><g><g><path d="M23.7,26.2h-8.2c-0.6,0-1.2-0.5-1.2-1.2s0.5-1.2,1.2-1.2h8.2c0.6,0,1.2,0.5,1.2,1.2 C24.8,25.6,24.3,26.2,23.7,26.2z" class="st3"/></g></g><g><g><path d="M44.7,26.2h-1.2c-0.6,0-1.2-0.5-1.2-1.2s0.5-1.2,1.2-1.2h1.2c0.6,0,1.2,0.5,1.2,1.2 C45.8,25.6,45.3,26.2,44.7,26.2z" class="st2"/></g></g><g><g><path d="M50.5,26.2h-1.2c-0.6,0-1.2-0.5-1.2-1.2s0.5-1.2,1.2-1.2h1.2c0.6,0,1.2,0.5,1.2,1.2 C51.7,25.6,51.1,26.2,50.5,26.2z" class="st2"/></g></g><g><g><path d="M56.3,26.2h-1.2c-0.6,0-1.2-0.5-1.2-1.2s0.5-1.2,1.2-1.2h1.2c0.6,0,1.2,0.5,1.2,1.2 C57.5,25.6,57,26.2,56.3,26.2z" class="st2"/></g></g><g><g><path d="M62.2,26.2H61c-0.6,0-1.2-0.5-1.2-1.2s0.5-1.2,1.2-1.2h1.2c0.6,0,1.2,0.5,1.2,1.2 C63.3,25.6,62.8,26.2,62.2,26.2z" class="st2"/></g></g><g><path d="M35.3,54.1H15.5c-0.6,0-1.2-0.5-1.2-1.2V34.3c0-0.6,0.5-1.2,1.2-1.2h19.8c0.6,0,1.2,0.5,1.2,1.2V53 C36.5,53.6,36,54.1,35.3,54.1z" class="st4"/></g><g><g><path d="M63.3,35.5H41.2c-0.6,0-1.2-0.5-1.2-1.2c0-0.6,0.5-1.2,1.2-1.2h22.2c0.6,0,1.2,0.5,1.2,1.2 C64.5,35,64,35.5,63.3,35.5z" class="st3"/></g></g><g><g><path d="M50.5,44.8h-9.3c-0.6,0-1.2-0.5-1.2-1.2c0-0.6,0.5-1.2,1.2-1.2h9.3c0.6,0,1.2,0.5,1.2,1.2 C51.7,44.3,51.1,44.8,50.5,44.8z" class="st1"/></g></g><g><g><path d="M50.5,49.5h-9.3c-0.6,0-1.2-0.5-1.2-1.2c0-0.6,0.5-1.2,1.2-1.2h9.3c0.6,0,1.2,0.5,1.2,1.2 C51.7,49,51.1,49.5,50.5,49.5z" class="st1"/></g></g><g><g><path d="M50.5,54.1h-9.3c-0.6,0-1.2-0.5-1.2-1.2c0-0.6,0.5-1.2,1.2-1.2h9.3c0.6,0,1.2,0.5,1.2,1.2 C51.7,53.6,51.1,54.1,50.5,54.1z" class="st1"/></g></g><g><g><path d="M64.5,44.8h-9.3c-0.6,0-1.2-0.5-1.2-1.2c0-0.6,0.5-1.2,1.2-1.2h9.3c0.6,0,1.2,0.5,1.2,1.2 C65.7,44.3,65.1,44.8,64.5,44.8z" class="st1"/></g></g><g><g><path d="M64.5,49.5h-9.3c-0.6,0-1.2-0.5-1.2-1.2c0-0.6,0.5-1.2,1.2-1.2h9.3c0.6,0,1.2,0.5,1.2,1.2 C65.7,49,65.1,49.5,64.5,49.5z" class="st1"/></g></g><g><g><path d="M64.5,54.1h-9.3c-0.6,0-1.2-0.5-1.2-1.2c0-0.6,0.5-1.2,1.2-1.2h9.3c0.6,0,1.2,0.5,1.2,1.2 C65.7,53.6,65.1,54.1,64.5,54.1z" class="st1"/></g></g><g><g><path d="M56.3,40.1H41.2c-0.6,0-1.2-0.5-1.2-1.2c0-0.6,0.5-1.2,1.2-1.2h15.2c0.6,0,1.2,0.5,1.2,1.2 S57,40.1,56.3,40.1z" class="st3"/></g></g><g><path d="M35.3,64.6h9.3c1.3,0,2.3-1,2.3-2.3H33C33,63.6,34,64.6,35.3,64.6z" class="st5"/></g></g></svg>