<?xml version="1.0" encoding="utf-8"?>
<!-- Generator: Adobe Illustrator 21.0.2, SVG Export Plug-In . SVG Version: 6.00 Build 0)  -->
<svg version="1.1" id="Calque_1" xmlns="http://www.w3.org/2000/svg" xmlns:xlink="http://www.w3.org/1999/xlink" x="0px" y="0px"
	 viewBox="0 0 80 80" style="enable-background:new 0 0 80 80;" xml:space="preserve">
<style type="text/css">
	.st0{fill:#FFBF9E;}
	.st1{fill:#499CFB;}
	.st2{fill:#383737;}
	.st3{fill:#FABA49;}
</style>
<g>
	<g>
		<path class="st0" d="M52.7,29v7.2c0,2.2-0.8,4.2-2,5.7c-1.4,1.7-3.4,2.9-5.8,3.2c-0.9,0.1-8.1,0.1-8.9,0c-2.3-0.3-4.3-1.5-5.8-3.2
			c-1.3-1.5-2-3.5-2-5.7V29c4.9-0.5,8.8-4.6,9-9.6c0.6,5.4,5.2,9.6,10.7,9.6H52.7z"/>
		<path class="st1" d="M52.7,27.2V29h-4.8c-6,0-10.8-4.9-10.8-10.8h6.7C48.7,18.2,52.7,22.2,52.7,27.2z"/>
		<path class="st1" d="M37.2,18.2c0,1.2,0,1.2,0,1.2c-0.2,5-4.1,9.1-9,9.6v-1.8C28.2,22.2,32.2,18.2,37.2,18.2L37.2,18.2z"/>
		<path class="st0" d="M47.6,48.7c0,3.9-3.2,7.1-7.1,7.1s-7.1-3.2-7.1-7.1H36v-3.7c0.8,0.1,8,0.1,8.9,0v3.7L47.6,48.7L47.6,48.7z"/>
	</g>
	<g>
		<path class="st0" d="M30.2,41.9c-0.2,3.5-2.9,6.3-6.3,6.7c-0.7,0.1-6.6,0.1-7.2,0c-3.6-0.5-6.3-3.5-6.3-7.2v-7.3
			c0-4,3.2-7.3,7.2-7.3H23c2,0,3.9,0.8,5.2,2.2v7.1C28.2,38.4,29,40.3,30.2,41.9z"/>
		<path class="st2" d="M28.2,29v6.6h-1.9c-4.5,0-8.2-3.4-8.7-7.8v0c0-0.3-0.1-0.6-0.1-0.9H23C25,26.9,26.9,27.7,28.2,29z"/>
		<path class="st2" d="M17.6,26.9c0,0.6,0,0.8,0,0.9v0c-0.2,4.1-3.3,7.4-7.3,7.8v-1.5C10.3,30.1,13.6,26.9,17.6,26.9L17.6,26.9z"/>
		<path class="st2" d="M21.4,57.3c0,0.2,0,0.5,0,0.7v5.8H4.8v-4.7c0-4.1,3.3-7.5,7.5-7.5h2.2c0,3.2,2.6,5.8,5.8,5.8
			C20.7,57.4,21,57.3,21.4,57.3z"/>
		<path class="st0" d="M23.9,48.6v3c-1.4,1.5-2.4,3.5-2.5,5.7c-0.4,0.1-0.7,0.1-1.1,0.1c-3.2,0-5.8-2.6-5.8-5.8h2.2v-3
			C17.3,48.7,23.2,48.7,23.9,48.6z"/>
	</g>
	<g>
		<path class="st0" d="M70.6,34.1v7.3c0,4-3.3,7.2-7.2,7.2c-5.9,0-5.8,0-6.3-0.1c-3.4-0.4-6.1-3.2-6.3-6.7c1.3-1.5,2-3.5,2-5.7V29
			c1.3-1.3,3.2-2.2,5.2-2.2h5.4C67.3,26.9,70.6,30.1,70.6,34.1z"/>
		<path class="st3" d="M70.6,34.1v1.5h-3.9c-4.8,0-8.7-3.9-8.7-8.7h5.4C67.3,26.9,70.6,30.1,70.6,34.1z"/>
		<path class="st3" d="M58,26.9c0,1,0,1,0,1c-0.1,3.3-2.3,6.1-5.2,7.3v-6C54.1,27.7,55.9,26.9,58,26.9z"/>
		<path class="st1" d="M59.6,63.8H21.4V58c0-0.2,0-0.5,0-0.7c0.2-2.2,1.1-4.2,2.5-5.7c3.1-3.2,6.5-2.8,9.4-2.8
			c0,3.9,3.2,7.1,7.1,7.1s7.1-3.2,7.1-7.1c2.9,0,6.3-0.4,9.4,2.8c1.4,1.5,2.4,3.5,2.5,5.7C59.6,57.8,59.6,57.4,59.6,63.8z"/>
		<path class="st3" d="M76.1,59.1v4.7H59.6c0-6.4,0-6,0-6.5c3.5,0.7,6.9-2,6.9-5.7h2.2C72.8,51.6,76.1,54.9,76.1,59.1z"/>
		<g>
			<path class="st0" d="M66.4,51.6c0,3.6-3.3,6.4-6.9,5.7c-0.2-2.2-1.1-4.2-2.5-5.7v-3c0.7,0.1,6.6,0.1,7.2,0v3L66.4,51.6L66.4,51.6
				z"/>
			<path class="st2" d="M68.6,50.1c-1.2,0-1.7,0-2.9,0v-0.3c3.6-1,6.3-4.4,6.3-8.4v-5.8c0,0,0,0,0,0v-1.5c0-1.2-0.2-2.3-0.7-3.4
				c-1.3-3.1-4.4-5.3-8-5.3h-5.4h0c0,0,0,0,0,0c-1.3,0-2.6,0.3-3.8,0.9c-0.5-5.3-4.9-9.5-10.4-9.5h-6.6h-0.1
				c-5.4,0-9.9,4.2-10.4,9.5c-1.2-0.6-2.4-0.9-3.8-0.9h-5.3h-0.1h0c-3.6,0-6.7,2.2-8,5.3c-0.8,1.9-0.7,2.2-0.7,10.7
				c0,3.9,2.6,7.3,6.3,8.4v0.3c-1.2,0-1.7,0-2.9,0c-4.9,0-8.9,4-8.9,8.9v4.7c0,0.8,0.7,1.5,1.5,1.5c0.6,0,70,0,71.3,0
				c0.8,0,1.5-0.7,1.5-1.5v-4.7C77.6,54.1,73.6,50.1,68.6,50.1z M63.2,55L63.2,55c-0.7,0.5-1.5,0.8-2.4,0.9
				c-0.3-1.7-1.1-3.4-2.4-4.9v-0.9c4.6,0,2.9,0,4.3,0v1.5c0,0.8,0.7,1.5,1.5,1.5h0.4C64.4,53.8,63.9,54.5,63.2,55z M46.4,47.3v-1
				c1.2-0.3,2.4-0.9,3.4-1.6c0.4,1,1,1.9,1.7,2.7C50.2,47.2,49.3,47.3,46.4,47.3z M35,50.2C35,50.2,35,50.2,35,50.2l1,0
				c0.8,0,1.5-0.7,1.5-1.5v-2.2c1.6,0,4.2,0,6,0v2.2c0,0.8,0.7,1.5,1.5,1.5h1C44.4,55.9,36.5,55.7,35,50.2z M29.4,47.4
				c0.7-0.8,1.3-1.7,1.7-2.7c1,0.7,2.2,1.3,3.4,1.6v1C31.5,47.3,30.7,47.2,29.4,47.4z M20.1,55.9c-0.9,0-1.7-0.3-2.4-0.9l0,0
				c-0.7-0.5-1.2-1.2-1.5-2h0.4c0.8,0,1.5-0.7,1.5-1.5v-1.5c1.5,0,2.9,0,4.3,0V51C21.3,52.4,20.5,54.1,20.1,55.9z M56.4,28.5
				c-0.2,1.6-1.1,3-2.2,4v-2.9C54.9,29.1,55.6,28.7,56.4,28.5z M51.3,35.1c0,1.2,0.2,3.6-1.7,5.9l0,0c-1.2,1.5-2.9,2.4-4.8,2.7
				c0,0,0,0,0,0c-0.8,0.1-7.7,0.1-8.6,0c-1.9-0.2-3.6-1.2-4.8-2.7c-2.1-2.5-1.7-4.5-1.7-10.7c3.2-0.7,6.1-2.9,7.7-5.8
				c2.2,3.8,6.2,6.1,10.6,6.1h3.4L51.3,35.1L51.3,35.1z M64,47.2c-1.2,0.1-6.7,0-6.8,0c-2.6-0.3-4.6-2.3-5-4.8c1.4-1.9,2-4,2-6.3
				c1.6-0.8,3-2.1,3.9-3.6c1.8,2.8,5,4.7,8.6,4.7h2.5v4.3C69.1,44.4,66.9,46.8,64,47.2z M63.3,28.3c3.2,0,5.8,2.6,5.8,5.8v0h-2.5
				c-3.5,0-6.5-2.5-7.1-5.8L63.3,28.3L63.3,28.3z M51.3,27.6h-3.4c-4.6,0-8.4-3.3-9.2-7.7c0-0.1,0-0.1,0-0.2h5.1
				C47.6,19.7,51.3,22.6,51.3,27.6z M35.7,19.8c-0.3,3.4-2.7,6.3-6.1,7.4C29.6,23.5,32.3,20.5,35.7,19.8z M23,28.3
				c1.4,0,2.7,0.5,3.7,1.4v4.5c-4.1,0-6.9-2.6-7.5-5.8L23,28.3z M16.1,28.5c-0.4,2.4-2.1,4.4-4.3,5.2C12,31.2,13.8,29.1,16.1,28.5z
				 M11.8,41.4v-4.6c2.5-0.6,4.6-2.2,5.9-4.4c1.8,2.8,4.9,4.7,9,4.7c0.2,1.9,0.9,3.8,2,5.2c-0.4,2.5-2.4,4.5-5,4.8c0,0,0,0,0,0
				c0,0,0,0,0,0c-0.9,0.1-6.2,0.1-6.8,0C14,46.8,11.8,44.3,11.8,41.4z M6.3,59.1c0-3.3,2.7-6,6-6h0.9c0.7,3.2,3.4,5.6,6.7,5.8v3.5
				H6.3V59.1z M22.8,58c0-2,0.8-4,2.2-5.4c2.2-2.3,4.6-2.4,7-2.4c1.7,9.7,15.4,9.2,16.9,0c2.5,0,4.8,0.1,7,2.4
				c1.4,1.4,2.2,3.3,2.2,5.4v4.3H22.8V58z M74.7,62.3H61v-3.5c3.3-0.2,6-2.6,6.7-5.8h0.9c3.3,0,6,2.7,6,6V62.3z"/>
		</g>
	</g>
</g>
</svg>
