<?xml version="1.0" encoding="utf-8"?>
<!-- Generator: Adobe Illustrator 21.0.2, SVG Export Plug-In . SVG Version: 6.00 Build 0)  -->
<svg version="1.1" id="Calque_1" xmlns="http://www.w3.org/2000/svg" xmlns:xlink="http://www.w3.org/1999/xlink" x="0px" y="0px"
	 viewBox="0 0 80 80" style="enable-background:new 0 0 80 80;" xml:space="preserve">
<style type="text/css">
	.st0{fill:#FFFFFF;}
	.st1{fill:#383737;}
	.st2{fill:#E3E3E3;}
	.st3{fill:#AFAFAF;}
	.st4{fill:#FFBF9E;}
	.st5{opacity:0.1;enable-background:new    ;}
	.st6{fill:#499CFB;}
	.st7{fill:#FABA49;}
</style>
<g>
	<g>
		<g>
			<rect x="10.7" y="18.4" class="st0" width="60.6" height="37.3"/>
		</g>
		<g>
			<path class="st1" d="M70.6,13.8H11.4c-3,0-5.4,2.4-5.4,5.4v42.4c0,0.6,0.5,1.2,1.2,1.2h67.6c0.6,0,1.2-0.5,1.2-1.2V19.1
				C76,16.2,73.6,13.8,70.6,13.8z M10.7,54.6v-35c0-0.6,0.5-1.2,1.2-1.2h58.3c0.6,0,1.2,0.5,1.2,1.2v35c0,0.6-0.5,1.2-1.2,1.2H11.9
				C11.2,55.7,10.7,55.2,10.7,54.6z"/>
		</g>
		<g>
			<path class="st2" d="M77.1,60.4H4.9c-0.6,0-1.2,0.5-1.2,1.2l0,0c0,2.6,2.1,4.7,4.7,4.7h65.2c2.6,0,4.7-2.1,4.7-4.7l0,0
				C78.3,60.9,77.8,60.4,77.1,60.4z"/>
		</g>
		<g>
			<path class="st3" d="M36.3,62.7h9.3c1.3,0,2.3-1,2.3-2.3H34C34,61.7,35.1,62.7,36.3,62.7z"/>
		</g>
	</g>
	<g>
		<path class="st4" d="M45.5,31.9l-5.1-5.1c-1.3-1.3-3.5-1.3-4.8,0c-1.3,1.3-1.3,3.5,0,4.8c1.3,1.3,3.5,1.3,4.8,0l2.7,2.7
			c0.7,0.7,1.7,0.7,2.4,0C46.2,33.7,46.2,32.6,45.5,31.9z"/>
		
			<rect x="38.3" y="29" transform="matrix(0.7071 -0.7071 0.7071 0.7071 -11.4995 43.7885)" class="st4" width="17.6" height="13.6"/>
		<polygon class="st5" points="41,32.2 42,31.3 51.6,40.9 50.6,41.9 		"/>
		
			<rect x="51.2" y="23.6" transform="matrix(0.7071 -0.7071 0.7071 0.7071 -6.1717 45.9948)" class="st5" width="2.5" height="13.6"/>
		
			<rect x="52.3" y="21.3" transform="matrix(0.7071 -0.7071 0.7071 0.7071 -4.5161 47.7126)" class="st6" width="6.1" height="16.1"/>
		<circle class="st0" cx="59.6" cy="33.6" r="0.7"/>
		<path class="st4" d="M50.7,41.9L33.5,24.7l-9.6,9.6L41,51.5c0.7,0.7,1.7,0.7,2.4,0c0.7-0.7,0.7-1.7,0-2.4c0.7,0.7,1.7,0.7,2.4,0
			c0.7-0.7,0.7-1.7,0-2.4c0.7,0.7,1.7,0.7,2.4,0c0.7-0.7,0.7-1.7,0-2.4c0.7,0.7,1.7,0.7,2.4,0C51.3,43.6,51.3,42.5,50.7,41.9z"/>
		<path class="st5" d="M35.8,32.6c-0.7,0.7-0.7,1.7,0,2.4c0.7,0.7,1.7,0.7,2.4,0l2.8-2.8l-2.4-2.4L35.8,32.6z"/>
		
			<rect x="22.8" y="29.2" transform="matrix(0.7071 -0.7071 0.7071 0.7071 -12.8671 29.8319)" class="st5" width="13.6" height="2.5"/>
		
			<rect x="18.6" y="26.3" transform="matrix(0.7071 -0.7071 0.7071 0.7071 -12.9098 27.4466)" class="st7" width="16.1" height="6.1"/>
		<circle class="st0" cx="22.4" cy="33.6" r="0.7"/>
		<g>
			<circle class="st4" cx="32.6" cy="43.1" r="1.7"/>
			<circle class="st4" cx="35" cy="45.5" r="1.7"/>
			<path class="st4" d="M37.4,46.2c-0.9,0-1.7,0.8-1.7,1.7c0,0.9,0.8,1.7,1.7,1.7c0.9,0,1.7-0.8,1.7-1.7
				C39.1,46.9,38.3,46.2,37.4,46.2z"/>
			<circle class="st4" cx="39.8" cy="50.3" r="1.7"/>
			<path class="st4" d="M46.4,26.9c-1.3-1.3-3.5-1.3-4.8,0l-5.1,5.1c-0.7,0.7-0.7,1.7,0,2.4c0.7,0.7,1.7,0.7,2.4,0l2.7-2.7
				c1.3,1.3,3.5,1.3,4.8,0C47.7,30.3,47.7,28.2,46.4,26.9z"/>
		</g>
		<path class="st1" d="M63.7,32.3L52.3,21c-0.1-0.1-0.3-0.2-0.5-0.2c-0.2,0-0.4,0.1-0.5,0.2L47,25.3l-0.6,0.6
			c-1.6-1.1-3.8-1-5.3,0.5L41,26.4l-0.1-0.1c-0.8-0.8-1.8-1.2-2.9-1.2h0c-0.9,0-1.7,0.3-2.4,0.7L35,25.3l0,0L30.7,21
			c-0.1-0.1-0.3-0.2-0.5-0.2c-0.2,0-0.4,0.1-0.5,0.2L18.3,32.3c-0.3,0.3-0.3,0.7,0,1l4.3,4.3c0.1,0.1,0.3,0.2,0.5,0.2
			c0.2,0,0.4-0.1,0.5-0.2l1.3-1.3l5.5,5.5c-0.2,0.3-0.3,0.7-0.3,1.1c0,1.3,1.1,2.4,2.4,2.4c0,1.3,1.1,2.4,2.4,2.4
			c0,0.6,0.3,1.2,0.7,1.7c0.5,0.5,1.1,0.7,1.7,0.7c0,0.6,0.3,1.2,0.7,1.7c0.5,0.5,1.1,0.7,1.7,0.7c0.4,0,0.8-0.1,1.2-0.3
			c0.4,0.2,0.8,0.3,1.2,0.3c0.6,0,1.2-0.2,1.7-0.7c0.5-0.5,0.7-1.1,0.7-1.7c0.6,0,1.2-0.2,1.7-0.7c0.5-0.5,0.7-1.1,0.7-1.7
			c0.6,0,1.2-0.3,1.7-0.7c0.5-0.5,0.7-1.1,0.7-1.7c0.6,0,1.2-0.2,1.7-0.7c0.8-0.8,0.9-1.9,0.5-2.8l5.5-5.5l1.3,1.3
			c0.1,0.1,0.3,0.2,0.5,0.2c0.2,0,0.4-0.1,0.5-0.2l4.3-4.3C64,33.1,64,32.6,63.7,32.3z M23.1,36.1l-3.3-3.3l10.4-10.4l3.3,3.3
			L23.1,36.1z M32.6,44.1c-0.5,0-1-0.4-1-1c0-0.5,0.4-1,1-1c0.5,0,1,0.4,1,1C33.6,43.6,33.1,44.1,32.6,44.1z M35,46.5
			c-0.5,0-1-0.4-1-1c0-0.5,0.4-1,1-1c0.5,0,1,0.4,1,1C36,46,35.5,46.5,35,46.5z M38.1,48.6c-0.2,0.2-0.4,0.3-0.7,0.3h0
			c-0.3,0-0.5-0.1-0.7-0.3c-0.2-0.2-0.3-0.4-0.3-0.7s0.1-0.5,0.3-0.7c0.2-0.2,0.4-0.3,0.7-0.3c0.5,0,1,0.4,1,1
			C38.4,48.2,38.3,48.4,38.1,48.6z M39.8,51.3c-0.3,0-0.5-0.1-0.7-0.3c-0.2-0.2-0.3-0.4-0.3-0.7c0-0.5,0.4-1,1-1c0.5,0,1,0.4,1,1
			C40.8,50.8,40.4,51.3,39.8,51.3z M50.1,43.8c-0.4,0.4-1,0.4-1.4,0l-4-4c-0.3-0.3-0.7-0.3-1,0s-0.3,0.7,0,1l4,4
			c0.2,0.2,0.3,0.4,0.3,0.7c0,0.3-0.1,0.5-0.3,0.7c-0.2,0.2-0.4,0.3-0.7,0.3c-0.3,0-0.5-0.1-0.7-0.3c0,0,0,0,0,0l-4-4
			c-0.3-0.3-0.7-0.3-1,0s-0.3,0.7,0,1l4,4c0,0,0,0,0,0c0.4,0.4,0.4,1,0,1.4c-0.4,0.4-1,0.4-1.4,0c0,0,0,0,0,0l-4-4
			c-0.3-0.3-0.7-0.3-1,0c-0.3,0.3-0.3,0.7,0,1l4,4c0,0,0,0,0,0c0.4,0.4,0.4,1,0,1.4c-0.2,0.2-0.6,0.3-0.9,0.3c0.1-0.3,0.2-0.6,0.2-1
			c0-1.3-1.1-2.4-2.4-2.4c0-1.3-1.1-2.4-2.4-2.4c0-1.3-1.1-2.4-2.4-2.4c0-1.3-1.1-2.4-2.4-2.4c-0.4,0-0.8,0.1-1.1,0.3l-5.5-5.5
			l8.6-8.6l0.6,0.6c0.3,0.3,0.7,0.3,1,0c0.5-0.5,1.2-0.8,1.9-0.8c0.7,0,1.4,0.3,1.9,0.8l0.1,0.1l-4,4c-0.9,0.9-0.9,2.5,0,3.4
			c0.5,0.5,1.1,0.7,1.7,0.7c0.6,0,1.2-0.2,1.7-0.7l1.6-1.6l9.1,9.1C50.5,42.8,50.5,43.4,50.1,43.8z M50.6,40.9l-7.6-7.6
			c1.3,0.3,2.8-0.1,3.8-1.1c0.3-0.3,0.3-0.7,0-1c-0.3-0.3-0.7-0.3-1,0c-1,1-2.8,1-3.8,0c-0.3-0.3-0.7-0.3-1,0l-2.7,2.7
			c-0.4,0.4-1,0.4-1.4,0c-0.4-0.4-0.4-1,0-1.4l5.1-5.1c1-1,2.8-1,3.8,0c0.3,0.3,0.7,0.3,1,0l0.6-0.6l8.6,8.6L50.6,40.9z M58.9,36.1
			L48.5,25.8l3.3-3.3l10.4,10.4L58.9,36.1z"/>
	</g>
</g>
</svg>
