<?xml version="1.0" encoding="utf-8"?>
<!-- Generator: Adobe Illustrator 21.0.2, SVG Export Plug-In . SVG Version: 6.00 Build 0)  -->
<svg version="1.1" id="Calque_1" xmlns="http://www.w3.org/2000/svg" xmlns:xlink="http://www.w3.org/1999/xlink" x="0px" y="0px"
	 viewBox="0 0 181 181" style="enable-background:new 0 0 181 181;" xml:space="preserve">
<style type="text/css">
	.st0{fill:#383737;}
</style>
<g>
	<g>
		<path class="st0" d="M139.4,124.2c-0.6,0-1.3-0.2-1.8-0.7l-29.8-27.9c-1-1-1.1-2.6-0.1-3.7c1-1,2.6-1.1,3.7-0.1l29.8,27.9
			c1,1,1.1,2.6,0.1,3.7C140.7,123.9,140.1,124.2,139.4,124.2z"/>
		<path class="st0" d="M40,124.2c-0.7,0-1.4-0.3-1.9-0.8c-1-1-0.9-2.7,0.1-3.7L68,91.8c1-1,2.7-0.9,3.7,0.1c1,1,0.9,2.7-0.1,3.7
			l-29.8,27.9C41.3,124,40.7,124.2,40,124.2z"/>
	</g>
	<path class="st0" d="M157,150.2H22.5c-7.1,0-12.9-5.8-12.9-12.9V49.1c0-7.1,5.8-12.9,12.9-12.9H157c7.1,0,12.9,5.8,12.9,12.9v88.1
		C169.9,144.4,164.1,150.2,157,150.2z M22.5,41.3c-4.3,0-7.8,3.5-7.8,7.8v88.1c0,4.3,3.5,7.8,7.8,7.8H157c4.3,0,7.8-3.5,7.8-7.8
		V49.1c0-4.3-3.5-7.8-7.8-7.8H22.5z"/>
	<path class="st0" d="M89.7,106.1c-3.4,0-6.9-1.1-9.5-3.4L13.8,44.8c-1.1-0.9-1.2-2.6-0.3-3.7c0.9-1.1,2.6-1.2,3.7-0.2l66.4,57.9
		c3.3,2.9,8.9,2.9,12.2,0L162.1,41c1.1-0.9,2.7-0.8,3.7,0.2c0.9,1.1,0.8,2.7-0.2,3.7l-66.3,57.8C96.6,105,93.1,106.1,89.7,106.1z"/>
</g>
</svg>
