<?xml version="1.0" encoding="utf-8"?>
<!-- Generator: Adobe Illustrator 19.2.0, SVG Export Plug-In . SVG Version: 6.00 Build 0)  -->
<svg version="1.1" id="Capa_1" xmlns="http://www.w3.org/2000/svg" xmlns:xlink="http://www.w3.org/1999/xlink" x="0px" y="0px"
	 viewBox="0 0 107.9 107.9" style="enable-background:new 0 0 107.9 107.9;" xml:space="preserve">
<style type="text/css">
	.st0{clip-path:url(#SVGID_2_);fill:#383838;}
</style>
<g>
	<defs>
		<rect id="SVGID_1_" x="9.8" y="5" width="88.9" height="99.9"/>
	</defs>
	<clipPath id="SVGID_2_">
		<use xlink:href="#SVGID_1_"  style="overflow:visible;"/>
	</clipPath>
	<path class="st0" d="M27.6,92.8h-8.9c-1.1,0-1.8,0.7-1.8,1.7c0,1,0.7,1.7,1.8,1.7h8.9c1.1,0,1.8-0.7,1.8-1.7
		C29.3,93.5,28.6,92.8,27.6,92.8"/>
	<path class="st0" d="M79.1,92.8H34.7c-1.1,0-1.8,0.7-1.8,1.7c0,1,0.7,1.7,1.8,1.7h44.5c1.1,0,1.8-0.7,1.8-1.7
		C80.9,93.5,80.2,92.8,79.1,92.8"/>
	<path class="st0" d="M89.8,84.2V8.4h1.2c2.3,0,4.1,1.7,4.1,4v71.8H89.8z M95.2,100.7c0,0.3-0.4,0.7-0.7,0.7h-4.6V87.6h5.3V100.7z
		 M13.3,94.5c0-3.8,3.2-6.9,7.1-6.9H24h62.2v13.8H20.5C16.5,101.4,13.3,98.3,13.3,94.5 M13.3,11.7c0-1.7,1.6-3.3,3.4-3.3h3.7v75.8
		c-2.7,0-5.2,0.9-7.1,2.6V11.7z M86.3,84.2H24V8.4h62.2V84.2z M91.1,5H16.7C13,5,9.8,8.1,9.8,11.7v82.8c0,5.7,4.8,10.3,10.7,10.3h74
		c2.3,0,4.3-1.9,4.3-4.1V87.6v-3.4V12.4C98.7,8.3,95.3,5,91.1,5"/>
	<path class="st0" d="M40,21c0-0.2,0.2-0.5,0.5-0.5h27.4c0.4,0,0.5,0.3,0.4,0.5v12.6c0,0.3-0.2,0.5-0.5,0.5H40.6
		c-0.4,0-0.5-0.2-0.5-0.5V21z M40.6,37.7h27.4c2.3,0,4.1-1.7,4.1-4.1V21c0-2.2-1.8-4-4.3-4H40.6c-2.3,0-4.1,1.7-4.1,4v12.7
		C36.5,36,38.2,37.7,40.6,37.7"/>
	<path class="st0" d="M43.6,65.3c-1.1,0-1.8,0.7-1.8,1.7c0,1,0.7,1.7,1.8,1.7h21.3c1.1,0,1.8-0.7,1.8-1.7c0-1-0.7-1.7-1.8-1.7H43.6z
		"/>
	<path class="st0" d="M36.5,75.6H72c1.1,0,1.8-0.7,1.8-1.7c0-1-0.7-1.7-1.8-1.7H36.5c-1.1,0-1.8,0.7-1.8,1.7
		C34.7,74.9,35.4,75.6,36.5,75.6"/>
</g>
</svg>
