<?xml version="1.0" encoding="utf-8"?>
<!-- Generator: Adobe Illustrator 21.0.0, SVG Export Plug-In . SVG Version: 6.00 Build 0)  -->
<svg version="1.1" id="Capa_1" xmlns="http://www.w3.org/2000/svg" xmlns:xlink="http://www.w3.org/1999/xlink" x="0px" y="0px"
	 viewBox="0 0 107.9 107.9" style="enable-background:new 0 0 107.9 107.9;" xml:space="preserve">
<style type="text/css">
	.st0{fill:#FABA49;}
</style>
<path class="st0" d="M104.5,56.4L82.6,34.7c-0.4-0.4-1.1-0.6-1.7-0.3c-0.6,0.2-0.9,0.8-0.9,1.4v8.1h-3.4c-0.1,0-0.2,0-0.3,0H74V26
	c0-2.7-2.2-5-5-5H12.5c-2.7,0-5,2.2-5,5v56.5c0,2.7,2.2,5,5,5h56.5c2.7,0,5-2.2,5-5V68.2h4.4v-0.1H80v10c0,0.6,0.4,1.2,0.9,1.4
	c0.2,0.1,0.4,0.1,0.6,0.1c0.4,0,0.8-0.1,1.1-0.4l21.9-20.7c0.3-0.3,0.5-0.7,0.5-1.1C105,57,104.8,56.6,104.5,56.4z M70.8,82.5
	c0,1-0.8,1.7-1.7,1.7H12.5c-1,0-1.7-0.8-1.7-1.7V26c0-1,0.8-1.7,1.7-1.7h56.5c1,0,1.7,0.8,1.7,1.7v17.9H55.5V44h-0.1v24.1h0.1v0.1
	h15.3V82.5z M83.1,74.5v-8c0-0.9-0.7-1.5-1.5-1.5h-4.9c-0.1,0-0.3,0-0.4,0.1H74h-3.2H58.4V47h12.4H74h4.4v0h3.1
	c0.9,0,1.5-0.7,1.5-1.5v-5.9l18.2,17.9L83.1,74.5z"/>
</svg>
