<?xml version="1.0" encoding="utf-8"?>
<!-- Generator: Adobe Illustrator 21.0.2, SVG Export Plug-In . SVG Version: 6.00 Build 0)  -->
<svg version="1.1" id="Calque_1" xmlns="http://www.w3.org/2000/svg" xmlns:xlink="http://www.w3.org/1999/xlink" x="0px" y="0px"
	 viewBox="0 0 40 40" style="enable-background:new 0 0 40 40;" xml:space="preserve">
<style type="text/css">
	.st0{fill:#FFFFFF;}
</style>
<g>
	<g>
		<g>
			<path class="st0" d="M20,23.9c2.1,0,3.9-1.7,3.9-3.9c0-0.8-0.3-1.6-0.7-2.3c-0.7-1-1.8-1.6-3.1-1.6c-1.3,0-2.4,0.6-3.1,1.6
				c-0.5,0.6-0.7,1.4-0.7,2.3C16.1,22.1,17.9,23.9,20,23.9z"/>
			<polygon class="st0" points="28.4,15.3 28.4,12 28.4,11.5 28,11.5 24.7,11.6 24.7,15.3 			"/>
			<path class="st0" d="M20,0.7C9.3,0.7,0.7,9.3,0.7,20c0,10.7,8.7,19.3,19.3,19.3c10.7,0,19.3-8.7,19.3-19.3
				C39.3,9.3,30.7,0.7,20,0.7z M31,17.7v9c0,2.3-1.9,4.2-4.2,4.2H13.3C10.9,31,9,29.1,9,26.7v-9v-4.5C9,10.9,10.9,9,13.3,9h13.5
				c2.3,0,4.2,1.9,4.2,4.2V17.7z"/>
			<path class="st0" d="M26,20c0,3.3-2.7,6-6,6s-6-2.7-6-6c0-0.8,0.2-1.6,0.4-2.3h-3.3v9c0,1.2,0.9,2.1,2.1,2.1h13.5
				c1.2,0,2.1-0.9,2.1-2.1v-9h-3.3C25.8,18.4,26,19.2,26,20z"/>
		</g>
	</g>
</g>
</svg>
