<?xml version="1.0" encoding="utf-8"?>
<!-- Generator: Adobe Illustrator 22.1.0, SVG Export Plug-In . SVG Version: 6.00 Build 0)  -->
<svg version="1.1" id="Calque_1" xmlns="http://www.w3.org/2000/svg" xmlns:xlink="http://www.w3.org/1999/xlink" x="0px" y="0px"
	 viewBox="0 0 40 40" style="enable-background:new 0 0 40 40;" xml:space="preserve">
<style type="text/css">
	.st0{fill:#FFFFFF;}
</style>
<g>
	<path class="st0" d="M29.4,14.9c0-2.4-1.9-4.3-4.3-4.3H14.9c-2.4,0-4.3,1.9-4.3,4.3v10.3c0,2.4,1.9,4.3,4.3,4.3h10.3
		c2.4,0,4.3-1.9,4.3-4.3h0V14.9z M20,25.9c-3.3,0-5.9-2.6-5.9-5.9c0-3.3,2.6-5.9,5.9-5.9s5.9,2.6,5.9,5.9
		C25.9,23.3,23.3,25.9,20,25.9z M27.2,14.9c-0.3,0.3-0.7,0.4-1.1,0.4c-0.4,0-0.8-0.2-1.1-0.4c-0.3-0.3-0.4-0.7-0.4-1.1
		c0-0.4,0.2-0.8,0.4-1.1c0.3-0.3,0.7-0.4,1.1-0.4c0.4,0,0.8,0.2,1.1,0.4c0.3,0.3,0.4,0.7,0.4,1.1C27.6,14.3,27.5,14.6,27.2,14.9z"/>
	<path class="st0" d="M20,0.8C9.4,0.8,0.8,9.4,0.8,20S9.4,39.2,20,39.2S39.2,30.6,39.2,20S30.6,0.8,20,0.8z M31.5,25.1
		c0,3.5-2.8,6.3-6.3,6.3H14.9c-3.5,0-6.3-2.8-6.3-6.3V14.9c0-3.5,2.8-6.3,6.3-6.3h10.3c3.5,0,6.3,2.8,6.3,6.3V25.1z"/>
	<path class="st0" d="M20,16.1c-2.1,0-3.9,1.7-3.9,3.9c0,2.1,1.7,3.9,3.9,3.9s3.9-1.7,3.9-3.9C23.9,17.9,22.1,16.1,20,16.1z"/>
</g>
</svg>
