<?xml version="1.0" encoding="utf-8"?>
<!-- Generator: Adobe Illustrator 26.0.3, SVG Export Plug-In . SVG Version: 6.00 Build 0)  -->
<svg version="1.1" id="Calque_1" xmlns="http://www.w3.org/2000/svg" xmlns:xlink="http://www.w3.org/1999/xlink" x="0px" y="0px"
	 viewBox="0 0 40 40" style="enable-background:new 0 0 40 40;" xml:space="preserve">
<style type="text/css">
	.st0{fill:#FFFFFF;}
</style>
<path class="st0" d="M20,13.7c-3.5,0-6.3,2.8-6.3,6.3c0,3.5,2.8,6.3,6.3,6.3c3.5,0,6.3-2.8,6.3-6.3C26.3,16.5,23.5,13.7,20,13.7
	C20,13.7,20,13.7,20,13.7z M20,24c-2.3,0-4.1-1.8-4.1-4.1s1.8-4.1,4.1-4.1s4.1,1.8,4.1,4.1C24.1,22.2,22.3,24,20,24z M28,13.4
	c0,0.8-0.7,1.5-1.5,1.5c-0.8,0-1.5-0.7-1.5-1.5c0-0.8,0.7-1.5,1.5-1.5C27.4,11.9,28,12.6,28,13.4C28,13.4,28,13.4,28,13.4z M32.2,15
	c0-1.9-0.7-3.8-2-5.1c-1.4-1.3-3.2-2-5.1-2c-2-0.1-8.1-0.1-10.1,0c-1.9,0-3.7,0.7-5.1,2c-1.3,1.4-2,3.2-2,5.1C7.7,17,7.7,23,7.8,25
	c0,1.9,0.7,3.8,2,5.1c1.4,1.3,3.2,2,5.1,2c2,0.1,8.1,0.1,10.1,0c1.9,0,3.7-0.7,5.1-2c1.3-1.4,2-3.2,2-5.1C32.3,23,32.3,17,32.2,15z
	 M29.6,27.2c-0.4,1.1-1.3,1.9-2.3,2.3C25.6,30.1,21.8,30,20,30s-5.6,0.1-7.2-0.5c-1.1-0.4-1.9-1.3-2.3-2.3C9.8,25.6,10,21.7,10,20
	s-0.1-5.6,0.5-7.2c0.4-1.1,1.3-1.9,2.3-2.3C14.4,9.8,18.2,10,20,10s5.6-0.1,7.2,0.5c1.1,0.4,1.9,1.3,2.3,2.3
	c0.6,1.6,0.5,5.4,0.5,7.2S30.2,25.6,29.6,27.2z"/>
</svg>
