<?xml version="1.0" encoding="utf-8"?>
<!-- Generator: Adobe Illustrator 19.2.0, SVG Export Plug-In . SVG Version: 6.00 Build 0)  -->
<svg version="1.1" id="Capa_1" xmlns="http://www.w3.org/2000/svg" xmlns:xlink="http://www.w3.org/1999/xlink" x="0px" y="0px"
	 viewBox="0 0 107.9 107.9" style="enable-background:new 0 0 107.9 107.9;" xml:space="preserve">
<style type="text/css">
	.st0{clip-path:url(#SVGID_2_);fill:#383838;}
</style>
<g>
	<defs>
		<rect id="SVGID_1_" x="15.4" y="0.7" width="77.1" height="106.5"/>
	</defs>
	<clipPath id="SVGID_2_">
		<use xlink:href="#SVGID_1_"  style="overflow:visible;"/>
	</clipPath>
	<path class="st0" d="M22.8,88.9c-1.8,0-3.3-1.5-3.3-3.3s1.5-3.3,3.3-3.3s3.3,1.5,3.3,3.3C26.1,87.4,24.6,88.9,22.8,88.9 M36.3,83.6
		h-6.5c-0.9-3.1-3.7-5.3-7-5.3c-4,0-7.3,3.3-7.3,7.3c0,4,3.3,7.3,7.3,7.3c3.3,0,6.1-2.2,7-5.3h6.5c4.4,0,7.9-3.6,7.9-7.9V67.5
		c0-1.1-0.9-2-2-2c-1.1,0-2,0.9-2,2v12.1C40.3,81.8,38.5,83.6,36.3,83.6"/>
	<path class="st0" d="M85.1,82.2c1.8,0,3.3,1.5,3.3,3.3s-1.5,3.3-3.3,3.3s-3.3-1.5-3.3-3.3C81.8,83.7,83.3,82.2,85.1,82.2
		 M65.7,65.5c-1.1,0-2,0.9-2,2v12.1c0,4.4,3.6,7.9,7.9,7.9h6.5c0.9,3.1,3.7,5.3,7,5.3c4,0,7.3-3.3,7.3-7.3c0-4-3.3-7.3-7.3-7.3
		c-3.3,0-6.1,2.2-7,5.3h-6.5c-2.2,0-4-1.8-4-4V67.6C67.6,66.4,66.8,65.5,65.7,65.5"/>
	<path class="st0" d="M88.6,38.4c0,8-6.3,15-14.1,15.6h-43c-6.6-0.4-12.2-6.7-12.2-13.8c0-4.6,2.5-8.8,6.4-11.1
		c0.8-0.5,1.2-1.5,0.9-2.4c-0.3-0.9-0.5-1.8-0.5-2.8c0-4.5,3.7-8.2,8.2-8.2c1,0,1.9,0.2,2.8,0.5c1,0.3,2-0.1,2.5-1
		c3-6.4,9.5-10.5,16.6-10.5c9.5,0,17.4,7.1,18.2,16.5c0.1,0.9,0.8,1.6,1.6,1.8C83.2,24.2,88.6,30.8,88.6,38.4 M56.1,0.7
		c-8,0-15.5,4.4-19.4,11.3c-0.8-0.2-1.6-0.2-2.5-0.2c-6.7,0-12.1,5.4-12.1,12.1c0,0.9,0.1,1.8,0.3,2.6c-4.4,3.1-7.1,8.2-7.1,13.7
		c0,9.1,7.3,17.2,16,17.7h0.1h43.1h0.1c10-0.7,17.8-9.3,17.8-19.5c0-8.9-6.1-16.9-14.4-19C76.4,8.6,67.2,0.7,56.1,0.7"/>
	<path class="st0" d="M57.3,100c0,1.8-1.5,3.2-3.3,3.2h-0.1c-0.9,0-1.7-0.4-2.3-1c-0.6-0.6-0.9-1.5-0.9-2.4c0-1.8,1.5-3.2,3.3-3.2
		H54c0.9,0,1.7,0.4,2.3,1C57,98.3,57.3,99.1,57.3,100 M54,65.5c-1.1,0-2,0.9-2,2V93c-3,0.9-5.2,3.6-5.3,6.8c0,1.9,0.7,3.8,2,5.2
		c1.3,1.4,3.1,2.2,5.1,2.2h0.2c3.9,0,7.2-3.2,7.3-7.1c0-1.9-0.7-3.8-2-5.2c-0.9-1-2-1.6-3.3-2V67.5C55.9,66.4,55,65.5,54,65.5"/>
</g>
</svg>
