<?xml version="1.0" encoding="utf-8"?>
<!-- Generator: Adobe Illustrator 26.0.3, SVG Export Plug-In . SVG Version: 6.00 Build 0)  -->
<svg version="1.1" id="Calque_1" xmlns="http://www.w3.org/2000/svg" xmlns:xlink="http://www.w3.org/1999/xlink" x="0px" y="0px"
	 viewBox="0 0 40 40" style="enable-background:new 0 0 40 40;" xml:space="preserve">
<style type="text/css">
	.st0{fill:#FFFFFF;}
</style>
<path class="st0" d="M29.8,8.5H10.2c-0.9,0-1.6,0.7-1.6,1.6c0,0,0,0,0,0v19.6c0,0.9,0.7,1.6,1.6,1.7c0,0,0,0,0,0h19.7
	c0.9,0,1.6-0.7,1.6-1.7c0,0,0,0,0,0V10.2C31.5,9.3,30.7,8.5,29.8,8.5C29.8,8.5,29.8,8.5,29.8,8.5z M15.5,28.2h-3.4v-11h3.4
	L15.5,28.2L15.5,28.2z M13.8,15.8c-1.1,0-2-0.9-2-2s0.9-2,2-2s2,0.9,2,2C15.8,14.9,14.9,15.7,13.8,15.8z M28.2,28.2h-3.4v-5.3
	c0-1.3,0-2.9-1.8-2.9s-2,1.4-2,2.8v5.4h-3.4v-11h3.3v1.5h0c0.7-1.1,1.9-1.7,3.2-1.7c3.5,0,4.1,2.3,4.1,5.2V28.2z"/>
</svg>
