<?xml version="1.0" encoding="utf-8"?>
<!-- Generator: Adobe Illustrator 21.0.2, SVG Export Plug-In . SVG Version: 6.00 Build 0)  -->
<svg version="1.1" id="Calque_1" xmlns="http://www.w3.org/2000/svg" xmlns:xlink="http://www.w3.org/1999/xlink" x="0px" y="0px"
	 viewBox="0 0 40 40" style="enable-background:new 0 0 40 40;" xml:space="preserve">
<style type="text/css">
	.st0{fill:#FFFFFF;}
</style>
<g>
	<g>
		<g>
			<path class="st0" d="M20,0.8C9.4,0.8,0.8,9.4,0.8,20S9.4,39.2,20,39.2S39.2,30.6,39.2,20C39.2,9.4,30.6,0.8,20,0.8z M15.2,29.3
				h-4.8V12.5h4.8V29.3z M12.9,11.5c-1.2,0-2.2-1-2.2-2.3s1-2.3,2.2-2.3c1.2,0,2.3,1,2.3,2.3C15.2,10.5,14.2,11.5,12.9,11.5z
				 M32,29.3h-4.8V18.9c0-1.2-0.3-2.1-1.8-2.1c-2.5,0-3,2.1-3,2.1v10.4h-4.8V12.5h4.8v1.6c0.7-0.5,2.4-1.6,4.8-1.6
				c1.6,0,4.8,0.9,4.8,6.6V29.3L32,29.3z"/>
		</g>
	</g>
</g>
</svg>
