<?xml version="1.0" encoding="utf-8"?>
<!-- Generator: Adobe Illustrator 26.0.2, SVG Export Plug-In . SVG Version: 6.00 Build 0)  -->
<svg version="1.1" xmlns="http://www.w3.org/2000/svg" xmlns:xlink="http://www.w3.org/1999/xlink" x="0px" y="0px"
	 viewBox="0 0 285.5 152.4" style="enable-background:new 0 0 285.5 152.4;" xml:space="preserve">
<style type="text/css">
	.st0{display:none;}
	.st1{display:inline;opacity:0.1;}
	.st2{fill:#FF2A00;}
	.st3{fill:#FFFFFF;}
	.st4{fill:#F7F7F7;}
	.st5{fill:#499CFB;}
	.st6{fill:#383737;}
	.st7{fill:#FABA49;}
	.st8{fill:none;stroke:#FABA49;stroke-width:2;stroke-miterlimit:10;}
	.st9{fill:none;stroke:#E3E3E3;stroke-miterlimit:10;}
	.st10{fill:#FFFFFF;stroke:#E3E3E3;stroke-miterlimit:10;}
	.st11{opacity:0.1;}
	.st12{fill:#BC8E8E;}
	.st13{fill:#293173;}
	.st14{fill:none;}
	.st15{fill:#332879;}
	.st16{fill:#E10814;}
	.st17{fill:#808080;}
	.st18{fill:none;stroke:#000000;stroke-width:0.25;stroke-miterlimit:10;}
	.st19{fill:#FFFFFF;stroke:#F7F7F7;stroke-miterlimit:10;}
</style>
<g id="Calque_3" class="st0">
</g>
<g id="Calque_1">
</g>
<g id="Calque_2">
	<path class="st13" d="M40.2,120.5C40.2,120.5,40.2,120.5,40.2,120.5C40.3,120.5,40.3,120.5,40.2,120.5
		C40.3,120.5,40.3,120.5,40.2,120.5C40.3,120.5,40.3,120.5,40.2,120.5"/>
	<path class="st13" d="M44.3,119.2C44.3,119.2,44.2,119.2,44.3,119.2C44.3,119.2,44.3,119.2,44.3,119.2"/>
	<rect x="30.4" y="30.5" class="st14" width="225" height="58.2"/>
	<path class="st13" d="M44.3,119.2C44.3,119.2,44.3,119.2,44.3,119.2C44.3,119.2,44.3,119.2,44.3,119.2"/>
	<g>
		<path class="st15" d="M32.5,77.7h1.6v1c0.8-0.9,1.9-1.4,3.3-1.4c2.9,0,4.7,2.3,4.7,5c0,2.7-1.9,5-4.7,5c-1.3,0-2.4-0.5-3.3-1.4
			v5.5h-1.6V77.7z M37.2,85.9c2,0,3.3-1.6,3.3-3.5s-1.3-3.5-3.3-3.5c-1.3,0-2.4,0.6-3.1,1.8v3.5C34.8,85.2,35.9,85.9,37.2,85.9z"/>
		<path class="st15" d="M44.8,77.7h1.6v1.2c0.7-0.8,1.5-1.3,2.7-1.3c0.3,0,0.6,0,0.8,0.1v1.6c-0.3-0.1-0.5-0.1-0.9-0.1
			c-1.2,0-2,0.6-2.6,1.6V87h-1.6V77.7z"/>
		<path class="st15" d="M61.1,82.3c0,2.7-2,5-5,5c-3,0-5-2.3-5-5c0-2.7,2-5,5-5C59.1,77.4,61.1,79.7,61.1,82.3z M59.4,82.3
			c0-1.9-1.4-3.5-3.3-3.5c-2,0-3.4,1.6-3.4,3.5c0,1.9,1.4,3.5,3.4,3.5C58,85.9,59.4,84.3,59.4,82.3z"/>
		<path class="st15" d="M70.8,84.5l1.2,1c-0.9,1.2-2.2,1.9-3.9,1.9c-3.1,0-5-2.3-5-5c0-2.7,2-5,5-5c1.7,0,3,0.8,3.9,1.9l-1.2,1
			c-0.6-0.8-1.5-1.4-2.6-1.4c-2,0-3.4,1.6-3.4,3.5c0,2,1.4,3.5,3.4,3.5C69.3,85.9,70.2,85.3,70.8,84.5z"/>
		<path class="st15" d="M78.3,87.3c-3.1,0-5-2.3-5-5c0-2.8,1.8-5,4.7-5c2.5,0,4.1,1.7,4.1,4c0,0.4-0.1,0.7-0.1,1h-7.1v0
			c0,2,1.4,3.5,3.5,3.5c1.2,0,2.2-0.6,2.8-1.4l1.2,0.9C81.4,86.6,80,87.3,78.3,87.3z M75,81.1h5.5c-0.1-1.3-1-2.4-2.5-2.4
			C76.4,78.7,75.4,79.5,75,81.1z"/>
		<path class="st15" d="M84.9,84.7c0.6,0.8,1.4,1.3,2.3,1.3c1,0,1.6-0.6,1.6-1.4c0-2.1-4.5-1.3-4.5-4.6c0-1.5,1.2-2.6,3-2.6
			c1.4,0,2.5,0.6,3.1,1.5l-1.1,0.9c-0.5-0.7-1.2-1.2-2-1.2c-1,0-1.5,0.5-1.5,1.3c0,2.1,4.5,1.4,4.5,4.6c0,1.7-1.4,2.8-3.1,2.8
			c-1.5,0-2.6-0.6-3.5-1.6L84.9,84.7z"/>
		<path class="st15" d="M93.2,84.7c0.6,0.8,1.4,1.3,2.3,1.3c1,0,1.6-0.6,1.6-1.4c0-2.1-4.5-1.3-4.5-4.6c0-1.5,1.2-2.6,3-2.6
			c1.4,0,2.5,0.6,3.1,1.5l-1.1,0.9c-0.5-0.7-1.2-1.2-2-1.2c-1,0-1.5,0.5-1.5,1.3c0,2.1,4.5,1.4,4.5,4.6c0,1.7-1.4,2.8-3.1,2.8
			c-1.5,0-2.6-0.6-3.5-1.6L93.2,84.7z"/>
		<path class="st15" d="M107.9,77.7h1.6v5.2c0,2.8-1.6,4.4-4.1,4.4c-2.5,0-4.1-1.6-4.1-4.4v-5.2h1.6V83c0,1.8,1,2.9,2.5,2.9
			c1.5,0,2.5-1,2.5-2.9V77.7z"/>
		<path class="st15" d="M112.8,84.7c0.6,0.8,1.4,1.3,2.3,1.3c1,0,1.6-0.6,1.6-1.4c0-2.1-4.5-1.3-4.5-4.6c0-1.5,1.2-2.6,3-2.6
			c1.4,0,2.5,0.6,3.1,1.5l-1.1,0.9c-0.5-0.7-1.2-1.2-2-1.2c-1,0-1.5,0.5-1.5,1.3c0,2.1,4.5,1.4,4.5,4.6c0,1.7-1.4,2.8-3.1,2.8
			c-1.5,0-2.6-0.6-3.5-1.6L112.8,84.7z"/>
		<path class="st15" d="M133.1,84.5l1.2,1c-0.9,1.2-2.2,1.9-3.9,1.9c-3.1,0-5-2.3-5-5c0-2.7,2-5,5-5c1.7,0,3,0.8,3.9,1.9l-1.2,1
			c-0.6-0.8-1.5-1.4-2.6-1.4c-2,0-3.4,1.6-3.4,3.5c0,2,1.4,3.5,3.4,3.5C131.6,85.9,132.5,85.3,133.1,84.5z"/>
		<path class="st15" d="M140.6,87.3c-3.1,0-5-2.3-5-5c0-2.8,1.8-5,4.7-5c2.5,0,4.1,1.7,4.1,4c0,0.4-0.1,0.7-0.1,1h-7.1v0
			c0,2,1.4,3.5,3.5,3.5c1.2,0,2.2-0.6,2.8-1.4l1.2,0.9C143.7,86.6,142.3,87.3,140.6,87.3z M137.3,81.1h5.5c-0.1-1.3-1-2.4-2.5-2.4
			C138.7,78.7,137.6,79.5,137.3,81.1z"/>
		<path class="st15" d="M147.2,77.7h1.6v1.2c0.7-0.8,1.5-1.3,2.7-1.3c0.3,0,0.6,0,0.8,0.1v1.6c-0.3-0.1-0.5-0.1-0.9-0.1
			c-1.2,0-2,0.6-2.6,1.6V87h-1.6V77.7z"/>
		<path class="st15" d="M155.6,79.2h-1.7v-1.4h1.7v-2.3h1.6v2.3h3.2v1.4h-3.2v4.7c0,1.4,0.7,1.8,1.9,1.8c0.6,0,1-0.1,1.4-0.2v1.4
			c-0.4,0.2-0.9,0.3-1.6,0.3c-2.1,0-3.2-1-3.2-3.3V79.2z"/>
		<path class="st15" d="M162.7,74.2c0-0.6,0.5-1.1,1.1-1.1c0.6,0,1.1,0.5,1.1,1.1c0,0.6-0.5,1.1-1.1,1.1
			C163.2,75.3,162.7,74.8,162.7,74.2z M163,77.7h1.6V87H163V77.7z"/>
		<path class="st15" d="M168.6,77.7v-1.1c0-2,1.3-3.4,3.3-3.4c1,0,1.8,0.4,2.4,0.9l-1,1.1c-0.3-0.4-0.8-0.6-1.4-0.6
			c-1,0-1.7,0.7-1.7,1.9v1.2h3.2v1.4h-3.2V87h-1.6v-7.8h-1.7v-1.4H168.6z"/>
		<path class="st15" d="M175.2,74.2c0-0.6,0.5-1.1,1.1-1.1c0.6,0,1.1,0.5,1.1,1.1c0,0.6-0.5,1.1-1.1,1.1
			C175.7,75.3,175.2,74.8,175.2,74.2z M175.6,77.7h1.6V87h-1.6V77.7z"/>
		<path class="st15" d="M184.9,87.3c-3.1,0-5-2.3-5-5c0-2.8,1.8-5,4.7-5c2.5,0,4.1,1.7,4.1,4c0,0.4-0.1,0.7-0.1,1h-7.1v0
			c0,2,1.4,3.5,3.5,3.5c1.2,0,2.2-0.6,2.8-1.4l1.2,0.9C188,86.6,186.6,87.3,184.9,87.3z M181.6,81.1h5.5c-0.1-1.3-1-2.4-2.5-2.4
			C183,78.7,181.9,79.5,181.6,81.1z M183.8,76.3l1.9-3h1.8l-2.1,3H183.8z"/>
	</g>
	<g>
		<polygon class="st16" points="198.4,59.4 226.8,59.4 198.4,88.5 		"/>
	</g>
	<g>
		<polygon class="st15" points="198.4,59.4 226.8,59.4 198.4,30.5 		"/>
	</g>
	<g>
		<polygon class="st15" points="226.8,59.4 255.3,59.4 226.8,88.5 		"/>
	</g>
	<g>
		<polygon class="st16" points="226.8,59.4 255.3,59.4 226.8,30.5 		"/>
	</g>
	<path class="st15" d="M43,120.6c0.1-0.1,0.2-0.2,0.4-0.4h0c0.2-0.2,0.4-0.5,0.7-0.7c0.1-0.1,0.2-0.1,0.2-0.2c0,0,0-0.1,0-0.1
		c-0.1,0-0.2,0.1-0.3,0.2c0,0,0,0,0,0c0.1-0.1,0.1-0.1,0.2-0.2h0c0,0,0,0,0,0c-0.3,0-0.5,0.1-0.7,0.3c0,0-0.1,0-0.1,0
		c-0.3,0.1-0.5,0.4-0.9,0.5v0c-0.1,0-0.2,0.1-0.4,0.1c-0.2,0-0.4,0-0.5,0c-0.2,0-0.5,0.1-0.8,0.1l0,0c-0.1,0-0.3,0.1-0.4,0.2
		c0,0,0,0,0,0c0,0,0,0,0,0c0,0-0.1,0.1-0.1,0.1c-0.1,0.1-0.2,0.2-0.3,0.3c0,0,0,0,0,0c-0.1,0.1-0.2,0.2-0.3,0.3c0,0,0,0-0.1,0l0,0
		c0,0,0,0,0,0c0,0,0-0.1,0.1-0.1c0,0,0-0.1,0.1-0.1c0,0,0.1-0.1,0.1-0.1c0,0,0,0,0,0c0,0,0,0,0,0c0.1-0.1,0.2-0.2,0.4-0.3v0
		c0,0,0,0,0,0c0,0,0,0,0-0.1c0,0,0,0,0,0l0,0c0,0-0.1,0-0.1,0.1c0,0-0.1,0.1-0.2,0.1c0,0,0,0,0,0c0,0,0,0,0,0l0,0c0,0,0,0,0,0
		c0,0,0,0,0,0c0,0,0,0,0,0c0,0,0,0,0,0c0,0,0,0,0,0c0,0,0,0,0,0c0,0,0,0,0,0c0,0,0,0,0,0c0,0,0,0,0,0c0,0,0,0,0,0c0,0,0,0,0,0
		c0,0,0.1-0.1,0.1-0.1h0c0.1,0,0.2-0.1,0.2-0.1c0,0,0,0,0,0c-0.1,0-0.2,0.1-0.3,0.2c0,0,0,0,0,0c0,0,0,0-0.1,0c0,0,0,0,0,0
		c0,0,0.1-0.1,0.1-0.1c0,0,0,0,0,0c0.7-0.5,1.6-0.4,2.3-0.7c0.1,0,0.1-0.1,0.2-0.1c0.1,0,0.2-0.1,0.3-0.2c0.2-0.1,0.3-0.3,0.4-0.5
		c0,0,0,0,0,0c-0.3,0.3-0.6,0.5-0.9,0.7c-0.4,0.2-0.9,0.2-1.4,0.2c0,0,0.1,0,0.1,0c0-0.1,0-0.1,0.1-0.1h0.1c0,0,0,0,0,0
		c0,0,0.1,0,0.1,0c-0.1-0.1-0.2,0.1-0.3,0c0,0,0-0.1,0.1-0.1h0.1c0,0,0-0.1,0-0.1c0.3-0.2,0.6-0.3,0.9-0.5c-0.1,0-0.1,0.1-0.2,0
		c0,0,0-0.1,0-0.1c0.2-0.1,0.4-0.2,0.6-0.3c-0.1,0-0.1,0.1-0.2,0c0,0,0.1-0.1,0.1-0.1v-0.1c0,0,0,0,0,0c0,0,0,0,0,0
		c0,0,0.1,0,0.1-0.1c0,0-0.1,0-0.1,0c0.1-0.1,0.2-0.1,0.3-0.1c0,0-0.1,0-0.1,0c0,0,0,0,0,0h0c0,0,0-0.1,0-0.1
		c0.1-0.1,0.1-0.3,0.2-0.5c0,0,0,0,0,0c-0.2,0.2-0.5,0.3-0.9,0.4H42c-0.1,0-0.3,0-0.4,0c-0.1,0-0.1-0.1-0.2-0.2
		c-0.2-0.1-0.3-0.2-0.5-0.2c-0.5-0.2-1.1-0.2-1.6-0.2c0.2-0.1,0.5-0.1,0.7-0.2c0.4-0.1,0.7-0.2,1.1-0.2c-0.1,0-0.1,0-0.2,0
		c-0.3,0-0.6,0.1-0.9,0.1c-0.2,0-0.4,0.1-0.6,0.2c-0.1,0-0.2,0.2-0.3,0.1V117c0.2-0.2,0.5-0.5,0.8-0.5c0.4-0.1,0.7,0,1.1,0
		c0.3,0,0.5,0.1,0.8,0.1c0.1,0,0.1,0.2,0.2,0.2c0.1,0,0.2,0,0.4,0.1c0,0,0-0.1,0-0.1c0.1-0.1,0.2,0,0.3,0c0.2-0.1-0.1-0.3-0.2-0.4
		c0,0,0,0,0,0c0.2,0.1,0.3,0.3,0.5,0.4c0.1,0,0.4,0.1,0.3,0c-0.1-0.2-0.3-0.4-0.5-0.6V116c0,0,0,0-0.1,0v-0.1
		c-0.1,0-0.1-0.1-0.1-0.2c-0.1-0.1,0-0.2-0.1-0.4c0-0.1-0.1-0.2-0.1-0.4c-0.1-0.4-0.1-0.7-0.2-1c0-0.4,0.2-0.7,0.4-1.1
		c0.1-0.2,0.3-0.5,0.6-0.7c0.1-0.2,0.2-0.5,0.4-0.7c0.2-0.2,0.4-0.3,0.6-0.4c0.3-0.1,0.6-0.2,0.6-0.2H30.4v11h10.2
		c0.4-0.3,0.8-0.4,1.3-0.7C42.2,121.1,42.8,120.8,43,120.6 M39.8,119.1c0,0-0.1,0-0.1,0c0-0.1,0.2-0.1,0.2-0.1c0,0,0.1-0.1,0.1,0
		c0,0.1,0.1,0,0.1,0.1C40.1,119.1,40,119.1,39.8,119.1 M36.6,118.7C36.6,118.7,36.6,118.6,36.6,118.7c0.3-0.4,0.5-0.7,0.6-1.1
		c0.3-0.1,0.5-0.4,0.7-0.6c0.4-0.4,0.7-0.7,1.2-0.9c0.2-0.1,0.4,0,0.5,0c-0.1,0.1-0.2,0.1-0.2,0.1c0,0,0,0-0.1,0c0,0,0,0,0-0.1
		c-0.2,0.2-0.5,0.3-0.7,0.6c-0.1,0.2-0.2,0.5-0.5,0.5c-0.1,0,0-0.1,0,0C37.6,117.6,37.1,118.1,36.6,118.7 M38.4,117.3
		C38.3,117.3,38.3,117.3,38.4,117.3c-0.1,0.1-0.1,0.1-0.1,0.2c0,0,0,0,0,0C38.2,117.4,38.3,117.3,38.4,117.3
		C38.4,117.3,38.4,117.3,38.4,117.3 M39.3,120.4C39.3,120.4,39.3,120.5,39.3,120.4C39.3,120.5,39.3,120.5,39.3,120.4
		c-0.1,0.1-0.1,0.2-0.2,0.2c0,0,0,0,0,0c0,0,0,0-0.1,0.1c0,0-0.1,0-0.1,0c0.1,0,0.1-0.1,0.2-0.1c0,0,0.1-0.1,0.1-0.1c0,0,0,0,0,0
		C39.2,120.4,39.4,120.4,39.3,120.4 M39,120.2C39,120.2,39,120.2,39,120.2c-0.1,0.1-0.2,0.1-0.2,0.2c-0.1,0.1-0.2,0.1-0.3,0.1
		c0,0,0,0,0,0c0,0,0,0,0,0c-0.1,0-0.1,0.1-0.2,0.2c0,0,0,0,0,0l0,0c0,0,0,0,0,0c0,0,0,0,0,0l0,0c0,0,0,0,0,0c0,0,0,0,0,0
		c0,0,0,0,0,0c0,0,0,0,0,0v0c0,0,0,0,0,0c0,0,0,0,0,0c0,0,0,0,0,0c0,0,0,0,0,0c0,0-0.1,0-0.1,0.1c0,0-0.1,0.1-0.1,0.1c0,0,0,0,0,0
		s0,0,0,0l0,0c0,0,0,0,0,0v0c0,0,0,0,0,0v0c0,0,0,0,0,0c0,0,0,0,0,0l0,0c0,0,0,0,0,0v0c0,0,0,0,0,0c0,0,0-0.1,0.1-0.1l0,0
		c0,0,0,0,0,0l0,0c0,0,0,0,0,0c0,0,0-0.1,0.1-0.1c0,0,0,0,0,0c0,0,0,0,0,0c0,0,0,0,0,0c0,0,0,0,0,0c0,0,0,0,0,0c0,0,0,0,0,0
		c0,0,0,0,0,0c0,0,0,0,0,0c0,0,0,0,0,0c0,0,0,0,0,0c0,0,0,0,0,0v0c0,0,0,0,0,0c0,0,0,0,0,0c0,0,0.1-0.1,0.1-0.1c0,0,0,0,0,0
		c0,0-0.1,0-0.1,0.1c0,0-0.1,0,0,0c0,0,0,0,0,0c0,0,0,0,0,0c0,0,0.1-0.1,0.1-0.1c0,0,0,0,0.1,0l0,0c0,0,0,0,0-0.1c0,0,0,0,0,0
		c0.2-0.2,0.5-0.2,0.8-0.3c0.1,0,0.2,0,0.3,0c0.1,0,0.1,0,0.2,0C39.3,120,39.1,120.1,39,120.2 M39.4,118.8
		C39.4,118.8,39.4,118.8,39.4,118.8L39.4,118.8c-0.1,0-0.1-0.1-0.1-0.1c-0.1,0-0.2,0.1-0.3,0.1c-0.1,0-0.3,0.1-0.4,0.2
		c-0.2,0.1-0.4,0.3-0.7,0.4c0,0,0,0,0,0c0-0.1,0.1-0.1,0.1-0.1c0,0,0,0,0,0c0.2-0.2,0.4-0.4,0.6-0.5v-0.1c0.1-0.1,0.2-0.1,0.2-0.2
		c0-0.1,0.1-0.1,0.2-0.2c0,0-0.1,0-0.1-0.1c-0.1,0-0.2,0-0.2,0c0,0,0.1-0.1,0.1-0.1c0,0,0,0,0,0c0,0,0-0.1,0.1-0.1
		c0.1,0,0.2,0,0.2-0.1c-0.1,0-0.3,0-0.5,0c0.1-0.3,0.3-0.5,0.5-0.6c0,0,0.1,0,0.1,0c0,0.1-0.1,0.2-0.2,0.2c0.2,0,0.3,0,0.5,0.1
		c0,0-0.1,0-0.1,0c0.1,0.1,0.2,0,0.3,0.1c-0.1,0.1-0.1,0-0.2,0c0.6,0.2,1.3,0.3,1.9,0.7c-0.5,0.2-0.9,0.3-1.4,0.4
		c-0.1,0-0.1,0-0.2,0c0,0,0,0.1,0,0.1c-0.1,0-0.1,0-0.2,0C39.6,118.8,39.4,118.9,39.4,118.8"/>
	<path class="st16" d="M60.7,110.9H48.9c0,0,0,0,0.1,0.1c0.1,0.1,0.2,0.1,0.3,0.2c0.2,0.1,0.3,0.2,0.4,0.3c0,0.1,0.1,0.2,0.1,0.3
		c0,0.1-0.1,0.3-0.2,0.3c-0.1,0.1-0.3,0.1-0.4,0c-0.1,0-0.2,0-0.2,0c0.3,0.1,0.6,0.3,0.8,0.6c0,0,0.1,0.1,0.2,0.1c0,0,0,0,0,0.1
		c0,0-0.1,0.1-0.1,0.1h0.1c0.1,0,0.1-0.2,0.2-0.2c0.1,0.1,0.1,0.2,0.1,0.3c-0.1,0.1-0.2,0.1-0.2,0.2c0,0,0,0.1,0,0.1
		c0.1,0.1,0.1,0.2,0.1,0.2c0.1,0.1,0.1,0.3,0.1,0.5c0.1,0.3,0.2,0.6,0.1,0.9c0,0.2-0.1,0.3,0,0.5c0,0.2,0.1,0.3,0.2,0.4
		c0.1,0.1,0.2,0.2,0.2,0.3c0.1,0.2,0.4,0.4,0.2,0.7c-0.1,0.1-0.3,0.1-0.4,0.2c-0.1,0.1,0,0.3,0,0.4c0.1,0.2-0.1,0.3-0.3,0.4
		c0,0.1,0.1,0,0.1,0.1c0,0.1,0.1,0.2,0.1,0.3c-0.1,0.1-0.3,0.2-0.2,0.4c0.1,0.1,0,0.3,0,0.5c-0.1,0.2-0.2,0.3-0.4,0.3
		c-0.1,0-0.3,0-0.4,0c0,0-0.1,0-0.1,0c-0.4,0-0.7-0.1-1.1-0.1c-0.1,0-0.2,0-0.3,0.1c-0.1,0.1-0.2,0.1-0.2,0.2l0,0c0,0,0,0,0,0
		c0,0,0,0,0,0c0,0,0,0,0,0c-0.1,0.1-0.1,0.2-0.2,0.2c0,0,0,0,0,0c0,0,0,0,0,0c-0.1,0.1-0.1,0.3-0.2,0.4c-0.1,0.5-0.1,0.9,0,1
		c0,0,0.7,0.2,1.1,0.4c0.2,0.1,0.4,0.2,0.5,0.2h11.6V110.9z"/>
	<path class="st17" d="M49.6,114.9c0.1,0,0.2,0,0.2,0.1c0,0.2-0.3,0.2-0.4,0.4h-0.1c-0.1,0,0,0.1-0.1,0.1c-0.1,0-0.1,0-0.2,0
		c0.1,0.1,0.2,0.1,0.3,0.1c0,0,0.1,0,0.1,0.1c0,0,0,0,0,0c0,0,0,0,0,0v0.1c-0.1,0.1-0.2,0-0.2,0.1c0.2,0,0.3,0,0.5,0
		c0.1,0,0-0.2,0.1-0.4c0,0,0-0.1,0-0.1c0,0,0.1-0.1,0.1-0.1c0,0,0.1,0,0.1-0.1c0,0-0.1-0.1-0.1-0.1c0.1-0.1,0.2-0.2,0.2-0.3
		c0-0.1-0.2-0.1-0.3-0.1c-0.1,0-0.2,0-0.4,0c-0.1,0-0.2,0.1-0.3,0.1c-0.1,0-0.3,0.1-0.4,0.2c0.1-0.1,0.3-0.1,0.5-0.1
		C49.4,114.9,49.5,114.9,49.6,114.9"/>
	<g>
		<path d="M66.3,111h3.3c2.4,0,3.9,1.2,3.9,3.2c0,1.3-0.6,2.3-1.7,2.8l3.4,4.8h-2.6l-2.9-4.4h-1.1v4.4h-2.2V111z M68.5,112.9v2.7
			h1.2c0.9,0,1.5-0.5,1.5-1.4c0-0.8-0.5-1.3-1.5-1.3H68.5z"/>
		<path d="M76.7,111H83v1.9h-4.1v2.5h3.5v1.9h-3.5v2.7H83v1.9h-6.3V111z M78.8,110.1l1.8-2.1h2.3l-2,2.1H78.8z"/>
		<path d="M85.8,111h3.6c2.4,0,3.9,1.2,3.9,3.2c0,2-1.5,3.2-3.9,3.2H88v4.4h-2.2V111z M88,112.9v2.7h1.5c0.9,0,1.5-0.5,1.5-1.4
			c0-0.8-0.6-1.3-1.5-1.3H88z"/>
		<path d="M101.6,111h2.2v6.6c0,2.9-1.7,4.6-4.4,4.6c-2.7,0-4.4-1.7-4.4-4.6V111h2.2v6.8c0,1.5,0.8,2.3,2.2,2.3
			c1.4,0,2.2-0.9,2.2-2.3V111z"/>
		<path d="M106.7,111h3.1c2.3,0,3.6,1.1,3.6,3c0,0.9-0.4,1.6-1.2,2.1c1.2,0.5,1.8,1.4,1.8,2.6c0,2-1.5,3.2-4,3.2h-3.3V111z
			 M108.9,112.9v2.4h0.9c0.8,0,1.3-0.4,1.3-1.2c0-0.7-0.5-1.2-1.3-1.2H108.9z M108.9,117.2v2.8h1.2c1,0,1.6-0.5,1.6-1.4
			c0-0.9-0.6-1.4-1.6-1.4H108.9z"/>
		<path d="M116.5,111h2.2v8.9h4.1v2h-6.3V111z"/>
		<path d="M124.9,111h2.2v10.9h-2.2V111z"/>
		<path d="M141.7,122.7c0.2,0,0.5,0,0.8-0.1v1.9c-0.4,0.1-0.7,0.2-1.1,0.2c-1.2,0-2.3-0.5-3.4-1.4l-1.3-1.1c-0.5,0.1-1,0.2-1.5,0.2
			c-3.4,0-5.8-2.6-5.8-5.7s2.3-5.8,5.8-5.8c3.4,0,5.8,2.6,5.8,5.8c0,1.8-0.8,3.5-2.1,4.5l0.7,0.6C140.3,122.4,141,122.7,141.7,122.7
			z M138.7,116.5c0-2.1-1.5-3.7-3.5-3.7c-2.1,0-3.5,1.6-3.5,3.7s1.5,3.7,3.5,3.7C137.2,120.2,138.7,118.6,138.7,116.5z"/>
		<path d="M149.6,111h2.2v6.6c0,2.9-1.7,4.6-4.4,4.6c-2.7,0-4.4-1.7-4.4-4.6V111h2.2v6.8c0,1.5,0.8,2.3,2.2,2.3
			c1.4,0,2.2-0.9,2.2-2.3V111z"/>
		<path d="M154.7,111h6.3v1.9h-4.1v2.5h3.5v1.9h-3.5v2.7h4.1v1.9h-6.3V111z"/>
		<path d="M168,111h6.3v1.9h-4.1v2.5h3.5v1.9h-3.5v4.6H168V111z"/>
		<path d="M176.4,111h3.3c2.4,0,3.9,1.2,3.9,3.2c0,1.3-0.6,2.3-1.7,2.8l3.4,4.8h-2.6l-2.9-4.4h-1.1v4.4h-2.2V111z M178.6,112.9v2.7
			h1.2c0.9,0,1.5-0.5,1.5-1.4c0-0.8-0.5-1.3-1.5-1.3H178.6z"/>
		<path d="M190,111h2.9l4.1,10.9h-2.3l-1-2.8h-4.4l-1,2.8h-2.3L190,111z M192.9,117.2l-1.5-4.1l-1.5,4.1H192.9z"/>
		<path d="M198.9,111h2.8l4.9,7.8V111h2.2v10.9h-2.8l-4.9-7.8v7.8h-2.2V111z"/>
		<path d="M219.7,118.7l1.7,1.3c-0.8,1.2-2.1,2-3.7,2.2l-1.4,2.3h-2l1.4-2.3c-2.8-0.5-4.7-2.9-4.7-5.7c0-3.1,2.3-5.8,5.8-5.8
			c2,0,3.6,0.9,4.6,2.2l-1.7,1.4c-0.6-0.9-1.6-1.5-2.8-1.5c-2.1,0-3.5,1.6-3.5,3.7s1.5,3.7,3.5,3.7C218,120.2,219,119.5,219.7,118.7
			z"/>
		<path d="M226.1,111h2.9l4.1,10.9h-2.3l-1-2.8h-4.4l-1,2.8H222L226.1,111z M229.1,117.2l-1.5-4.1l-1.5,4.1H229.1z"/>
		<path d="M235,111h2.2v10.9H235V111z"/>
		<path d="M241,118.9c0.7,0.8,1.5,1.3,2.4,1.3c0.9,0,1.4-0.5,1.4-1.3c0-1.9-5-1.5-5-5.1c0-1.7,1.4-3.2,3.5-3.2
			c1.6,0,2.9,0.7,3.8,1.8l-1.6,1.4c-0.6-0.8-1.4-1.4-2.2-1.4c-0.8,0-1.3,0.5-1.3,1.1c0,1.9,5,1.5,5,5.2c0,2-1.6,3.3-3.6,3.3
			c-1.8,0-3.1-0.7-4-1.8L241,118.9z"/>
		<path d="M249.5,111h6.3v1.9h-4.1v2.5h3.5v1.9h-3.5v2.7h4.1v1.9h-6.3V111z"/>
	</g>
	<g>
		<path class="st15" d="M45.3,30c2,0,4,0.4,5.8,1.2c1.8,0.8,3.4,1.8,4.7,3.2c1.4,1.3,2.4,2.9,3.2,4.7c0.8,1.8,1.2,3.7,1.2,5.8
			c0,1.6-0.2,3.2-0.7,4.7c-0.5,1.5-1.2,2.8-2.1,4c0.9,0.8,1.5,1.8,2.1,2.9c0.5,1.1,0.8,2.3,0.8,3.6h-6.3c0-0.5-0.1-0.9-0.4-1.3
			c-0.2-0.4-0.6-0.7-0.9-1c-1.1,0.6-2.3,1.1-3.5,1.4c-1.2,0.3-2.5,0.5-3.8,0.5c-2,0-4-0.4-5.8-1.2c-1.8-0.8-3.4-1.9-4.7-3.2
			c-1.3-1.4-2.4-2.9-3.2-4.7c-0.8-1.8-1.2-3.7-1.2-5.8c0-2,0.4-4,1.2-5.8c0.8-1.8,1.8-3.4,3.2-4.7c1.3-1.3,2.9-2.4,4.7-3.2
			C41.3,30.4,43.3,30,45.3,30z M36.8,44.8c0,1.2,0.2,2.3,0.7,3.3c0.4,1,1.1,1.9,1.8,2.7c0.8,0.8,1.7,1.4,2.7,1.8
			c1,0.4,2.1,0.7,3.3,0.7c1.2,0,2.3-0.2,3.3-0.7c1-0.4,1.9-1,2.7-1.8c0.8-0.8,1.4-1.7,1.8-2.7c0.4-1,0.7-2.1,0.7-3.3
			c0-1.2-0.2-2.3-0.7-3.3c-0.4-1-1.1-1.9-1.8-2.7c-0.8-0.8-1.7-1.4-2.7-1.8c-1-0.4-2.1-0.7-3.3-0.7c-1.2,0-2.3,0.2-3.3,0.7
			c-1,0.4-1.9,1-2.7,1.8c-0.8,0.8-1.4,1.7-1.8,2.7C37,42.5,36.8,43.6,36.8,44.8z"/>
		<path class="st15" d="M73.7,60.2c-1.5,0-2.9-0.3-4.2-0.8c-1.3-0.6-2.4-1.4-3.3-2.4c-0.9-1-1.7-2.2-2.2-3.6
			c-0.5-1.4-0.8-2.9-0.8-4.5V37.4h6v11.4c0,0.7,0.1,1.3,0.3,2c0.2,0.6,0.5,1.2,0.8,1.7c0.4,0.5,0.8,0.9,1.4,1.2
			c0.6,0.3,1.2,0.5,2,0.5c0.8,0,1.5-0.1,2.1-0.4c0.6-0.3,1.2-0.7,1.7-1.2s0.9-1.1,1.2-1.7c0.3-0.7,0.4-1.4,0.4-2.1V37.4h6v22.7h-6
			v-1.3c-0.8,0.4-1.6,0.8-2.5,1C75.7,60.1,74.7,60.2,73.7,60.2z"/>
		<path class="st15" d="M104,37.8h5.9v22.1H104v-1c-1.7,0.9-3.5,1.4-5.4,1.4c-1.6,0-3-0.3-4.4-0.9c-1.4-0.6-2.6-1.4-3.6-2.4
			c-1-1-1.9-2.2-2.4-3.6c-0.6-1.4-0.9-2.8-0.9-4.4c0-1.6,0.3-3,0.9-4.4c0.6-1.4,1.4-2.6,2.4-3.6c1-1,2.2-1.8,3.6-2.4
			c1.4-0.6,2.8-0.9,4.4-0.9c1,0,1.9,0.1,2.8,0.3c0.9,0.2,1.8,0.6,2.6,1V37.8z M98.6,54.2c0.7,0,1.4-0.1,2.1-0.4
			c0.7-0.3,1.2-0.7,1.7-1.2c0.5-0.5,0.9-1,1.2-1.7c0.3-0.6,0.4-1.3,0.4-2.1c0-0.7-0.1-1.4-0.4-2.1c-0.3-0.7-0.7-1.2-1.2-1.7
			c-0.5-0.5-1.1-0.9-1.7-1.2c-0.7-0.3-1.4-0.4-2.1-0.4c-0.8,0-1.5,0.1-2.1,0.4c-0.6,0.3-1.2,0.7-1.7,1.2c-0.5,0.5-0.9,1.1-1.2,1.7
			c-0.3,0.7-0.4,1.4-0.4,2.1c0,0.8,0.1,1.5,0.4,2.1c0.3,0.6,0.7,1.2,1.2,1.7c0.5,0.5,1.1,0.9,1.7,1.2C97.2,54.1,97.9,54.2,98.6,54.2
			z"/>
		<path class="st15" d="M119,30.8v1.4v26.7v0.8h-6.1v-0.8V32.1v-1.4H119z"/>
		<path class="st15" d="M125.6,30.4c0.9,0,1.7,0.3,2.4,1c0.6,0.7,1,1.5,1,2.4c0,0.9-0.3,1.7-1,2.4c-0.6,0.6-1.4,1-2.4,1
			c-0.9,0-1.7-0.3-2.4-1c-0.7-0.6-1-1.4-1-2.4c0-0.9,0.3-1.7,1-2.4C123.8,30.7,124.6,30.4,125.6,30.4z M127.7,38h0.8v0.8v20v0.8
			h-0.8h-4.4h-0.8v-0.8v-20V38h0.8H127.7z"/>
		<path class="st15" d="M143,36.9c1.6,0,3.1,0.3,4.5,0.9c1.4,0.6,2.6,1.4,3.7,2.5c1.1,1.1,1.9,2.3,2.5,3.7c0.6,1.4,0.9,2.9,0.9,4.5
			c0,1.6-0.3,3.1-0.9,4.5c-0.6,1.4-1.4,2.6-2.5,3.7c-1.1,1-2.3,1.9-3.7,2.5c-1.4,0.6-2.9,0.9-4.5,0.9c-1.6,0-3.1-0.3-4.5-0.9
			c-1.4-0.6-2.6-1.4-3.7-2.5c-1.1-1.1-1.9-2.3-2.5-3.7c-0.6-1.4-0.9-2.9-0.9-4.5c0-1.6,0.3-3.1,0.9-4.5c0.6-1.4,1.4-2.6,2.5-3.7
			c1.1-1,2.3-1.9,3.7-2.5C139.9,37.2,141.4,36.9,143,36.9z M143,54.2c0.8,0,1.5-0.1,2.2-0.4c0.7-0.3,1.3-0.7,1.8-1.2
			c0.5-0.5,0.9-1.1,1.2-1.8c0.3-0.7,0.4-1.4,0.4-2.2c0-0.8-0.1-1.5-0.4-2.2c-0.3-0.7-0.7-1.3-1.2-1.8c-0.5-0.5-1.1-0.9-1.8-1.2
			c-0.7-0.3-1.4-0.4-2.2-0.4c-0.8,0-1.5,0.1-2.2,0.4c-0.7,0.3-1.3,0.7-1.8,1.2c-0.5,0.5-0.9,1.1-1.2,1.8c-0.3,0.7-0.4,1.4-0.4,2.2
			c0,0.8,0.1,1.5,0.4,2.2c0.3,0.7,0.7,1.3,1.2,1.8c0.5,0.5,1.1,0.9,1.8,1.2C141.5,54.1,142.3,54.2,143,54.2z"/>
		<path class="st15" d="M169.4,60.1c-1,0-1.9-0.1-2.8-0.3c-0.9-0.2-1.8-0.6-2.5-1v7.9h-6V37.8h6v1.1c1.6-0.9,3.4-1.4,5.4-1.4
			c1.6,0,3,0.3,4.4,0.9c1.4,0.6,2.6,1.4,3.6,2.4c1,1,1.8,2.2,2.4,3.6c0.6,1.4,0.9,2.8,0.9,4.4c0,1.6-0.3,3-0.9,4.4
			c-0.6,1.4-1.4,2.6-2.4,3.6c-1,1-2.2,1.8-3.6,2.4C172.4,59.8,171,60.1,169.4,60.1z M169.4,43.5c-0.8,0-1.5,0.1-2.1,0.4
			c-0.6,0.3-1.2,0.7-1.7,1.2c-0.5,0.5-0.9,1.1-1.2,1.7c-0.3,0.6-0.4,1.3-0.4,2.1c0,0.7,0.1,1.4,0.4,2.1c0.3,0.7,0.7,1.2,1.2,1.7
			c0.5,0.5,1.1,0.9,1.7,1.2c0.6,0.3,1.3,0.4,2.1,0.4c0.7,0,1.4-0.1,2.1-0.4c0.7-0.3,1.2-0.7,1.7-1.2c0.5-0.5,0.9-1.1,1.2-1.7
			c0.3-0.7,0.4-1.4,0.4-2.1c0-0.8-0.1-1.5-0.4-2.1c-0.3-0.6-0.7-1.2-1.2-1.7c-0.5-0.5-1.1-0.9-1.7-1.2
			C170.8,43.6,170.1,43.5,169.4,43.5z"/>
		<path class="st15" d="M186.3,30.4c0.9,0,1.7,0.3,2.4,1c0.6,0.7,1,1.5,1,2.4c0,0.9-0.3,1.7-1,2.4c-0.6,0.6-1.4,1-2.4,1
			c-0.9,0-1.7-0.3-2.4-1c-0.7-0.6-1-1.4-1-2.4c0-0.9,0.3-1.7,1-2.4C184.6,30.7,185.4,30.4,186.3,30.4z M188.5,38h0.8v0.8v20v0.8
			h-0.8h-4.4h-0.8v-0.8v-20V38h0.8H188.5z"/>
	</g>
	<line class="st18" x1="229.6" y1="115.9" x2="229.6" y2="118.4"/>
</g>
</svg>
