<?xml version="1.0" encoding="utf-8"?>
<!-- Generator: Adobe Illustrator 19.2.0, SVG Export Plug-In . SVG Version: 6.00 Build 0)  -->
<svg version="1.1" id="Calque_1" xmlns="http://www.w3.org/2000/svg" xmlns:xlink="http://www.w3.org/1999/xlink" x="0px" y="0px"
	 viewBox="0 0 584 344" style="enable-background:new 0 0 584 344;" xml:space="preserve">
<style type="text/css">
	.st0{fill:#383737;}
	.st1{fill:#FABA49;}
</style>
<g>
	<path class="st0" d="M295.6,208.6l8.9-8.8c2.7-2.7,7-2.9,9.6-0.3c2.6,2.6,2.4,6.8-0.3,9.6l-8.9,8.8L295.6,208.6z"/>
</g>
<g>
	<path class="st0" d="M20,48.4V35.2c0-4.1,3.1-7.4,6.9-7.4s6.9,3.3,6.9,7.4v13.2H20z"/>
</g>
<g>
	<rect x="20" y="42" class="st0" width="13.8" height="133.9"/>
</g>
<g>
	<path class="st0" d="M75.4,216.1c-23,0-41.6-18.6-41.6-41.6H20c0,30.6,24.8,55.4,55.4,55.4s55.4-24.8,55.4-55.4h-13.8
		C117.1,197.5,98.4,216.1,75.4,216.1z"/>
</g>
<g>
	<path class="st0" d="M54.9,112.2h13.2c4.1,0,7.4,3.1,7.4,6.9c0,3.8-3.3,6.9-7.4,6.9H54.9V112.2z"/>
</g>
<g>
	
		<rect x="38.7" y="107.3" transform="matrix(-2.591012e-011 1 -1 -2.591012e-011 164.6747 73.5046)" class="st0" width="13.8" height="23.5"/>
</g>
<g>
	<path class="st0" d="M376.4,118.8c-30.6,0-55.4,24.8-55.4,55.4c0,30.6,24.8,55.4,55.4,55.4c30.6,0,55.4-24.8,55.4-55.4
		C431.8,143.7,407,118.8,376.4,118.8z M376.4,215.9c-23,0-41.6-18.6-41.6-41.6c0-23,18.6-41.6,41.6-41.6c23,0,41.6,18.6,41.6,41.6
		C418,197.3,399.4,215.9,376.4,215.9z"/>
</g>
<g>
	<line class="st0" x1="224.4" y1="175.6" x2="211.3" y2="175.6"/>
</g>
<g>
	<g>
		<path class="st0" d="M199.4,203.9c-7.2,8.1-17.7,13.2-29.4,13.2c-21.8,0-39.5-17.7-39.5-39.5h-13.1c0,29,23.5,52.6,52.6,52.6
			c15.7,0,29.8-6.9,39.5-17.8"/>
	</g>
	<g>
		<path class="st0" d="M222.2,171.5C222.2,171.4,222.2,171.4,222.2,171.5c0-0.8,0-1.6-0.1-2.3c0-0.2,0-0.5,0-0.7
			c0-0.6-0.1-1.2-0.1-1.8c0-0.4-0.1-0.9-0.1-1.3c0-0.1,0-0.3,0-0.4h0c-3.3-25.9-25.4-46-52.2-46c-15.7,0-29.8,6.9-39.5,17.8
			c-3.9,4.5-7.1,9.6-9.4,15.3c-1.6,4.1-2.7,8.4-3.3,12.9h0c0,0.2,0,0.3-0.1,0.5c-0.1,0.6-0.1,1.2-0.2,1.9c0,0.4-0.1,0.9-0.1,1.3
			c0,0.3,0,0.5,0,0.8c0,0.7-0.1,1.4-0.1,2.2c0,0,0,0,0,0c0,0,0,0,0,0h0c0,2.2,0.2,4.4,0.4,6.5h13.3h77.8h13.3
			C222,175.9,222.2,173.7,222.2,171.5L222.2,171.5C222.2,171.5,222.2,171.5,222.2,171.5z M133.2,156.1c6-14.2,20-24.1,36.4-24.1
			c19.5,0,35.8,14.2,38.9,32.9h-77.8C131.2,161.8,132,158.9,133.2,156.1z"/>
	</g>
</g>
<g>
	<path class="st0" d="M320.8,313.6v13.2c0,4.1,3.1,7.4,6.9,7.4c3.8,0,6.9-3.3,6.9-7.4v-13.2H320.8z"/>
</g>
<g>
	<rect x="320.8" y="164.9" class="st0" width="13.8" height="160"/>
</g>
<g>
	<path class="st0" d="M196.8,206.4l8.9-8.8c2.7-2.7,7-2.9,9.6-0.3s2.4,6.8-0.3,9.6l-8.9,8.8L196.8,206.4z"/>
</g>
<g>
	<g>
		<path class="st0" d="M300.2,203.7c-7.2,8.1-17.7,13.2-29.4,13.2c-21.8,0-39.5-17.7-39.5-39.5h-13.1c0,29,23.5,52.6,52.6,52.6
			c15.7,0,29.8-6.9,39.5-17.8"/>
	</g>
	<g>
		<path class="st0" d="M323,171.7C323,171.7,323,171.6,323,171.7c0-0.8,0-1.6-0.1-2.3c0-0.2,0-0.5,0-0.7c0-0.6-0.1-1.2-0.1-1.8
			c0-0.4-0.1-0.9-0.1-1.3c0-0.1,0-0.3,0-0.4h0c-3.3-25.9-25.4-46-52.2-46c-15.7,0-29.8,6.9-39.5,17.8c-3.9,4.5-7.1,9.6-9.4,15.3
			c-1.6,4.1-2.7,8.4-3.3,12.9h0c0,0.2,0,0.3-0.1,0.5c-0.1,0.6-0.1,1.2-0.2,1.9c0,0.4-0.1,0.9-0.1,1.3c0,0.3,0,0.5,0,0.8
			c0,0.7-0.1,1.4-0.1,2.2c0,0,0,0,0,0c0,0,0,0,0,0h0c0,2.2,0.2,4.4,0.4,6.5h13.3h77.8h13.3C322.9,176.1,323,173.9,323,171.7
			L323,171.7C323,171.7,323,171.7,323,171.7z M234,156.3c6-14.2,20-24.1,36.4-24.1c19.5,0,35.8,14.2,38.9,32.9h-77.8
			C232,162,232.9,159.1,234,156.3z"/>
	</g>
</g>
<g>
	<g>
		<rect x="557.6" y="135.9" class="st0" width="12" height="133.6"/>
	</g>
</g>
<g>
	<g>
		<path class="st0" d="M557.7,140.5v-11.3c0-3.5,2.7-6.3,6-6.3s6,2.8,6,6.3v11.3H557.7z"/>
	</g>
</g>
<g>
	<g>
		<path class="st0" d="M504.9,334.6c-35.7,0-64.8-29.2-64.8-65.2h12.1c0,29.3,23.6,53.1,52.7,53.1c29,0,52.7-23.8,52.7-53.1h12.1
			C569.7,305.4,540.6,334.6,504.9,334.6z"/>
	</g>
</g>
<g>
	<path class="st1" d="M568.8,76.4h-11.4c0-29.3-23.7-53.1-52.7-53.1c-29.1,0-52.7,23.8-52.7,53.1h-11.4c0-35.6,28.8-64.5,64.1-64.5
		C540,11.9,568.8,40.8,568.8,76.4z"/>
</g>
<g>
	<g>
		<path class="st0" d="M519.4,229.7c-27.7,0-50.3-23.6-50.3-52.6h12c0,22.4,17.2,40.6,38.3,40.6c21.1,0,38.3-18.2,38.3-40.6h12
			C569.7,206.2,547.1,229.7,519.4,229.7z"/>
	</g>
</g>
<g>
	<polygon class="st1" points="452.2,269.4 440.2,269.4 440.5,76.4 451.8,76.4 	"/>
</g>
<g>
	<g>
		<path class="st0" d="M440.2,270.5V259c0-3.5,2.7-6.4,6-6.4c3.3,0,6,2.9,6,6.4v11.5H440.2z"/>
	</g>
</g>
<g>
	<path class="st1" d="M557.4,76.4v10.2c0,3.1,2.5,5.7,5.7,5.7s5.7-2.6,5.7-5.7V76.4H557.4z"/>
</g>
<g>
	<g>
		<rect x="469.1" y="138.8" class="st0" width="12" height="39.7"/>
	</g>
</g>
<g>
	<g>
		<path class="st0" d="M469.1,140.5v-11.3c0-3.5,2.7-6.3,6-6.3c3.3,0,6,2.8,6,6.3v11.3H469.1z"/>
	</g>
</g>
</svg>
