<?xml version="1.0" encoding="utf-8"?>
<!-- Generator: Adobe Illustrator 21.0.2, SVG Export Plug-In . SVG Version: 6.00 Build 0)  -->
<svg version="1.1" id="Calque_1" xmlns="http://www.w3.org/2000/svg" xmlns:xlink="http://www.w3.org/1999/xlink" x="0px" y="0px"
	 viewBox="0 0 584 172" style="enable-background:new 0 0 584 172;" xml:space="preserve">
<style type="text/css">
	.st0{fill:#FFFFFF;}
	.st1{fill:#FABA49;}
</style>
<g>
	<path class="st0" d="M126.6,43.4c7.3,0,13.3,2.5,18.2,7.5c4.8,5,7.2,11.6,7.2,19.7s-2.4,14.7-7.3,19.9c-4.8,5.2-10.9,7.8-18.1,7.8
		c-4.5,0-8.5-1.1-11.9-3.2c-3.4-2.2-6-5-7.8-8.5v10.8h-8.8V25.8h8.8V55c1.8-3.4,4.4-6.2,7.8-8.3C118.2,44.5,122.1,43.4,126.6,43.4z
		 M124.9,90.8c4.9,0,9.2-1.9,12.7-5.6s5.3-8.6,5.3-14.6s-1.8-10.8-5.3-14.3s-7.7-5.2-12.7-5.2c-4.9,0-9.2,1.8-12.7,5.4
		c-3.5,3.6-5.3,8.4-5.3,14.4s1.8,10.8,5.3,14.4C115.8,89,120,90.8,124.9,90.8z"/>
	<path class="st0" d="M164.4,90.5c-4.8-5.2-7.3-11.8-7.3-19.9s2.4-14.7,7.2-19.7s10.9-7.5,18.2-7.5c4.5,0,8.5,1.1,11.9,3.2
		c3.4,2.1,6,4.9,7.7,8.3V44.3h8.9v53.2h-9V86.6c-1.7,3.5-4.3,6.3-7.7,8.5s-7.3,3.2-11.9,3.2C175.3,98.3,169.2,95.7,164.4,90.5z
		 M196.8,85.4c3.5-3.6,5.3-8.4,5.3-14.4s-1.8-10.8-5.3-14.4c-3.5-3.6-7.7-5.4-12.7-5.4s-9.2,1.7-12.7,5.2s-5.3,8.2-5.3,14.2
		s1.8,10.9,5.3,14.6s7.8,5.6,12.7,5.6C189,90.8,193.3,89,196.8,85.4z"/>
	<path class="st0" d="M226.7,90.8c-4.8-5-7.2-11.7-7.2-19.9S222,56,226.7,51c4.8-5,11-7.6,18.6-7.6c6.4,0,11.6,1.5,15.6,4.5
		s6.9,7.2,8.5,12.7h-9.5c-1-3.1-2.8-5.5-5.3-7.3c-2.5-1.7-5.6-2.6-9.3-2.6c-5,0-9.1,1.8-12.2,5.3c-3.1,3.5-4.6,8.5-4.6,14.9
		s1.5,11.4,4.6,14.9s7.1,5.3,12.2,5.3c7.6,0,12.4-3.3,14.6-9.9h9.5c-1.6,5.2-4.5,9.4-8.6,12.5s-9.3,4.6-15.5,4.6
		C237.7,98.3,231.5,95.8,226.7,90.8z"/>
	<path class="st0" d="M287.5,97.5h-8.8V25.8h8.8v42l20.3-23.5h12.4l-25.1,26.4l25.1,26.7h-11.9l-20.8-23.3V97.5z"/>
	<path class="st0" d="M329.8,90.8c-4.9-5-7.3-11.7-7.3-19.8s2.5-14.8,7.6-19.9s11.5-7.6,19.2-7.6s14.1,2.5,19.2,7.6
		s7.6,11.7,7.6,19.8s-2.7,14.8-8,19.8c-5.3,5.1-11.8,7.6-19.5,7.6C340.9,98.3,334.7,95.8,329.8,90.8z M348.6,91.1
		c5,0,9.3-1.8,12.9-5.4s5.5-8.5,5.5-14.9c0-6.3-1.7-11.3-5.2-14.8s-7.7-5.3-12.7-5.3s-9.2,1.8-12.5,5.3c-3.4,3.6-5,8.5-5,14.9
		c0,6.4,1.6,11.3,4.8,14.9C339.6,89.3,343.7,91.1,348.6,91.1z"/>
	<path class="st0" d="M406.6,44.3v7.2h-11.1v46h-8.9v-46h-6.9v-7.2h6.9v-4.5c0-5.8,1.5-10,4.6-12.7c3.1-2.6,8-4,14.6-4v7.2
		c-3.9,0-6.6,0.7-8.1,2.2c-1.5,1.5-2.3,3.9-2.3,7.3v4.5H406.6z"/>
	<path class="st0" d="M425,39.8v4.5h30v53.2h-8.8v-46H425v46h-8.9v-46h-6.9v-7.2h6.9v-4.5c0-5.8,1.5-10,4.6-12.7c3.1-2.6,8-4,14.6-4
		v7.2c-3.9,0-6.6,0.7-8.1,2.2C425.8,34,425,36.4,425,39.8z M454.9,34c-1.1,1.2-2.5,1.7-4.2,1.7s-3.1-0.6-4.2-1.7
		c-1.1-1.2-1.7-2.6-1.7-4.3c0-1.7,0.6-3.1,1.7-4.3c1.2-1.2,2.6-1.7,4.2-1.7s3,0.6,4.2,1.7c1.1,1.2,1.7,2.6,1.7,4.3
		C456.6,31.5,456,32.9,454.9,34z"/>
	<path class="st0" d="M470.8,90.8c-4.8-5-7.2-11.7-7.2-19.9S466,56,470.8,51s11-7.6,18.6-7.6c6.4,0,11.6,1.5,15.6,4.5
		s6.9,7.2,8.5,12.7H504c-1-3.1-2.8-5.5-5.3-7.3s-5.6-2.6-9.3-2.6c-5,0-9.1,1.8-12.2,5.3s-4.6,8.5-4.6,14.9s1.5,11.4,4.6,14.9
		s7.1,5.3,12.2,5.3c7.6,0,12.4-3.3,14.6-9.9h9.5c-1.6,5.2-4.5,9.4-8.6,12.5s-9.3,4.6-15.5,4.6C481.8,98.3,475.6,95.8,470.8,90.8z"/>
	<path class="st0" d="M545.1,98.3c-7.6,0-13.8-2.5-18.6-7.6c-4.8-5-7.2-11.7-7.2-19.9c0-8.3,2.4-14.9,7.3-19.9
		c4.8-5,11.1-7.5,18.8-7.5s13.9,2.4,18.6,7.1c4.7,4.7,7,10.8,7,18.2c0,1.9-0.1,3.6-0.4,5.2h-42.3c0.3,5.3,1.9,9.5,5,12.5
		c3.1,3.1,7,4.6,11.8,4.6c3.6,0,6.7-0.8,9.1-2.4c2.5-1.6,4.3-3.7,5.5-6.4h9.5c-1.7,4.6-4.6,8.5-8.7,11.5
		C556.4,96.8,551.3,98.3,545.1,98.3z M557,55.3c-3.2-3.1-7.1-4.6-11.8-4.6s-8.6,1.5-11.7,4.5c-3.1,3-4.8,7.1-5.1,12.3h33.4
		C561.7,62.4,560.1,58.4,557,55.3z"/>
</g>
<g>
	<path class="st0" d="M100.6,144.9V124h2.6v20.9H100.6z"/>
	<path class="st0" d="M111.9,142.8c-1.4-1.5-2.1-3.5-2.1-5.8s0.7-4.3,2.1-5.7c1.4-1.5,3.2-2.2,5.3-2.2c1.3,0,2.5,0.3,3.5,0.9
		c1,0.6,1.7,1.4,2.2,2.4v-3.1h2.6v15.5h-2.6v-3.2c-0.5,1-1.3,1.8-2.2,2.5c-1,0.6-2.1,0.9-3.5,0.9
		C115.1,145.1,113.3,144.4,111.9,142.8z M121.4,141.3c1-1.1,1.5-2.5,1.5-4.2c0-1.8-0.5-3.2-1.5-4.2c-1-1.1-2.3-1.6-3.7-1.6
		c-1.4,0-2.7,0.5-3.7,1.5s-1.5,2.4-1.5,4.2s0.5,3.2,1.6,4.3c1,1.1,2.3,1.6,3.7,1.6C119.1,142.9,120.3,142.4,121.4,141.3z"/>
	<path class="st0" d="M146.1,142.8c-1.4-1.5-2.1-3.5-2.1-5.8s0.7-4.3,2.1-5.7c1.4-1.5,3.2-2.2,5.3-2.2c1.3,0,2.5,0.3,3.5,0.9
		c1,0.6,1.7,1.4,2.2,2.4v-3.1h2.6v15.9c0,2.1-0.7,3.9-2.1,5.2c-1.4,1.3-3.1,2-5.2,2c-2.1,0-3.9-0.5-5.2-1.5c-1.4-1-2.2-2.3-2.4-3.8
		h2.5c0.2,0.9,0.8,1.6,1.7,2.2c0.9,0.6,2,0.9,3.4,0.9c1.3,0,2.5-0.4,3.3-1.3c0.9-0.9,1.3-2.1,1.3-3.7v-3.6c-0.5,1-1.3,1.8-2.2,2.5
		c-1,0.6-2.1,0.9-3.5,0.9C149.3,145.1,147.5,144.4,146.1,142.8z M155.5,141.3c1-1.1,1.5-2.5,1.5-4.2c0-1.8-0.5-3.2-1.5-4.2
		c-1-1.1-2.3-1.6-3.7-1.6s-2.7,0.5-3.7,1.5s-1.5,2.4-1.5,4.2s0.5,3.2,1.6,4.3c1,1.1,2.3,1.6,3.7,1.6
		C153.3,142.9,154.5,142.4,155.5,141.3z"/>
	<path class="st0" d="M173.8,145.1c-2.2,0-4-0.7-5.4-2.2s-2.1-3.4-2.1-5.8c0-2.4,0.7-4.3,2.1-5.8c1.4-1.5,3.2-2.2,5.5-2.2
		c2.2,0,4.1,0.7,5.4,2.1c1.4,1.4,2,3.1,2,5.3c0,0.5,0,1.1-0.1,1.5h-12.3c0.1,1.5,0.6,2.8,1.5,3.7s2,1.3,3.4,1.3
		c1.1,0,1.9-0.2,2.7-0.7c0.7-0.5,1.3-1.1,1.6-1.9h2.8c-0.5,1.4-1.3,2.5-2.5,3.4C177.1,144.7,175.6,145.1,173.8,145.1z M177.3,132.6
		c-0.9-0.9-2.1-1.3-3.4-1.3c-1.4,0-2.5,0.4-3.4,1.3c-0.9,0.9-1.4,2.1-1.5,3.6h9.7C178.7,134.6,178.2,133.5,177.3,132.6z"/>
	<path class="st0" d="M187.4,133.7c0-1.3,0.5-2.4,1.6-3.3c1.1-0.9,2.5-1.3,4.2-1.3s3.1,0.4,4.1,1.3c1,0.9,1.5,2.1,1.6,3.6h-2.7
		c0-0.9-0.3-1.6-0.9-2.1c-0.5-0.5-1.3-0.8-2.3-0.8s-1.7,0.2-2.3,0.7s-0.8,1.1-0.8,1.8s0.3,1.3,0.9,1.7s1.4,0.7,2.3,0.9
		c0.9,0.2,1.8,0.4,2.7,0.6c0.9,0.2,1.7,0.7,2.3,1.3s0.9,1.6,0.9,2.8s-0.5,2.2-1.6,3s-2.5,1.2-4.2,1.2s-3.1-0.4-4.2-1.3
		c-1-0.9-1.6-2.1-1.7-3.6h2.7c0,0.9,0.3,1.6,0.9,2.1c0.6,0.5,1.4,0.8,2.4,0.8s1.8-0.2,2.4-0.6c0.6-0.4,0.9-1,0.9-1.7
		s-0.2-1.2-0.7-1.6c-0.5-0.4-1-0.7-1.7-0.8s-1.4-0.3-2.2-0.5s-1.5-0.4-2.2-0.7c-0.7-0.2-1.2-0.6-1.7-1.2
		C187.6,135.3,187.4,134.6,187.4,133.7z"/>
	<path class="st0" d="M211.3,142.8h2.1v2.1h-2.6c-2.7,0-4-1.3-4-4v-9.4h-2v-2.1h2v-3.8h2.6v3.8h4v2.1h-4v9.4c0,0.7,0.1,1.2,0.4,1.5
		C210.1,142.6,210.5,142.8,211.3,142.8z"/>
	<path class="st0" d="M222.1,126.4c-0.3,0.3-0.8,0.5-1.2,0.5s-0.9-0.2-1.2-0.5s-0.5-0.8-0.5-1.2c0-0.5,0.2-0.9,0.5-1.2
		c0.3-0.3,0.7-0.5,1.2-0.5s0.9,0.2,1.2,0.5s0.5,0.8,0.5,1.2S222.5,126,222.1,126.4z M219.6,144.9v-15.5h2.6v15.5H219.6z"/>
	<path class="st0" d="M230.9,142.9c-1.4-1.5-2.1-3.4-2.1-5.8c0-2.4,0.7-4.3,2.2-5.8s3.3-2.2,5.6-2.2c2.2,0,4.1,0.7,5.6,2.2
		s2.2,3.4,2.2,5.8c0,2.4-0.8,4.3-2.3,5.8c-1.6,1.5-3.4,2.2-5.7,2.2C234.2,145.1,232.3,144.4,230.9,142.9z M236.4,143
		c1.4,0,2.7-0.5,3.8-1.6c1.1-1,1.6-2.5,1.6-4.3s-0.5-3.3-1.5-4.3s-2.3-1.6-3.7-1.6s-2.7,0.5-3.7,1.6c-1,1-1.5,2.5-1.5,4.3
		s0.5,3.3,1.4,4.3C233.8,142.5,234.9,143,236.4,143z"/>
	<path class="st0" d="M253.6,129.4v2.5c1.1-1.8,2.7-2.8,5.1-2.8c1.7,0,3.1,0.6,4.3,1.7c1.1,1.1,1.7,2.8,1.7,4.9v9.2h-2.5v-8.8
		c0-1.6-0.4-2.7-1.1-3.6c-0.8-0.8-1.8-1.2-3.1-1.2c-1.3,0-2.4,0.4-3.1,1.2c-0.8,0.8-1.1,2-1.1,3.6v8.8H251v-15.5L253.6,129.4
		L253.6,129.4z"/>
	<path class="st0" d="M285.1,142.8c-1.4-1.5-2.1-3.5-2.1-5.8s0.7-4.3,2.1-5.7c1.4-1.5,3.2-2.2,5.3-2.2c1.3,0,2.5,0.3,3.5,0.9
		c1,0.6,1.7,1.4,2.2,2.4V124h2.6v20.9h-2.6v-3.2c-0.5,1-1.3,1.8-2.2,2.5c-1,0.6-2.1,0.9-3.5,0.9
		C288.3,145.1,286.5,144.4,285.1,142.8z M294.6,141.3c1-1.1,1.5-2.5,1.5-4.2c0-1.8-0.5-3.2-1.5-4.2c-1-1.1-2.3-1.6-3.7-1.6
		c-1.4,0-2.7,0.5-3.7,1.5s-1.5,2.4-1.5,4.2s0.5,3.2,1.6,4.3c1,1.1,2.3,1.6,3.7,1.6C292.3,142.9,293.5,142.4,294.6,141.3z"/>
	<path class="st0" d="M317.2,129.4h2.6v15.5h-2.6v-2.5c-1,1.8-2.7,2.7-5.1,2.7c-1.7,0-3.1-0.6-4.3-1.7c-1.1-1.1-1.7-2.8-1.7-4.8
		v-9.2h2.5v8.8c0,1.5,0.4,2.7,1.1,3.5c0.8,0.8,1.8,1.2,3.1,1.2c1.3,0,2.4-0.4,3.1-1.2c0.8-0.8,1.1-2,1.1-3.5v-8.8H317.2z"/>
	<path class="st0" d="M338.4,127.3v-2.1h12.9v2.1h-5.2v17.5h-2.6v-17.5H338.4z"/>
	<path class="st0" d="M360.6,126.4c-0.3,0.3-0.8,0.5-1.2,0.5c-0.5,0-0.9-0.2-1.2-0.5c-0.3-0.3-0.5-0.8-0.5-1.2
		c0-0.5,0.2-0.9,0.5-1.2c0.3-0.3,0.7-0.5,1.2-0.5s0.9,0.2,1.2,0.5c0.3,0.3,0.5,0.8,0.5,1.2S361,126,360.6,126.4z M358.1,144.9v-15.5
		h2.6v15.5H358.1z"/>
	<path class="st0" d="M374.8,145.1c-2.2,0-4-0.7-5.4-2.2s-2.1-3.4-2.1-5.8c0-2.4,0.7-4.3,2.1-5.8s3.2-2.2,5.5-2.2
		c2.2,0,4.1,0.7,5.4,2.1c1.4,1.4,2,3.1,2,5.3c0,0.5,0,1.1-0.1,1.5h-12.3c0.1,1.5,0.6,2.8,1.5,3.7s2,1.3,3.4,1.3
		c1.1,0,1.9-0.2,2.7-0.7c0.7-0.5,1.3-1.1,1.6-1.9h2.8c-0.5,1.4-1.3,2.5-2.5,3.4C378.1,144.7,376.6,145.1,374.8,145.1z M378.3,132.6
		c-0.9-0.9-2.1-1.3-3.4-1.3c-1.4,0-2.5,0.4-3.4,1.3c-0.9,0.9-1.4,2.1-1.5,3.6h9.7C379.7,134.6,379.2,133.5,378.3,132.6z"/>
	<path class="st0" d="M391.5,129.4v2.6c0.9-1.9,2.5-2.9,4.7-2.9v2.7h-0.7c-1.3,0-2.3,0.3-3,1s-1,1.9-1,3.6v8.5h-2.6v-15.5
		L391.5,129.4L391.5,129.4z"/>
	<path class="st0" d="M402.1,133.7c0-1.3,0.5-2.4,1.6-3.3c1.1-0.9,2.5-1.3,4.2-1.3s3.1,0.4,4.1,1.3c1,0.9,1.5,2.1,1.6,3.6H411
		c0-0.9-0.3-1.6-0.9-2.1c-0.5-0.5-1.3-0.8-2.3-0.8s-1.7,0.2-2.3,0.7c-0.6,0.5-0.8,1.1-0.8,1.8s0.3,1.3,0.9,1.7s1.4,0.7,2.3,0.9
		s1.8,0.4,2.7,0.6c0.9,0.2,1.7,0.7,2.3,1.3c0.6,0.6,0.9,1.6,0.9,2.8s-0.5,2.2-1.6,3s-2.5,1.2-4.2,1.2s-3.1-0.4-4.2-1.3
		c-1-0.9-1.6-2.1-1.7-3.6h2.7c0,0.9,0.3,1.6,0.9,2.1s1.4,0.8,2.4,0.8s1.8-0.2,2.4-0.6c0.6-0.4,0.9-1,0.9-1.7s-0.2-1.2-0.7-1.6
		s-1-0.7-1.7-0.8s-1.4-0.3-2.2-0.5c-0.8-0.2-1.5-0.4-2.2-0.7c-0.7-0.2-1.2-0.6-1.7-1.2S402.1,134.6,402.1,133.7z"/>
	<path class="st0" d="M421.5,135.6v-2.2h11.3v2.2H421.5z"/>
	<path class="st0" d="M452.3,126.9c1.2,1.1,1.7,2.4,1.7,4.1s-0.6,3.1-1.7,4.1c-1.1,1.1-2.8,1.6-5.1,1.6h-3.8v8.1h-2.6v-19.6h6.4
		C449.5,125.3,451.2,125.8,452.3,126.9z M443.5,134.7h3.8c1.4,0,2.5-0.3,3.1-1c0.7-0.6,1-1.6,1-2.7c0-2.5-1.4-3.7-4.2-3.7h-3.8v7.4
		H443.5z"/>
	<path class="st0" d="M461.7,142.8c-1.4-1.5-2.1-3.5-2.1-5.8s0.7-4.3,2.1-5.7c1.4-1.5,3.2-2.2,5.3-2.2c1.3,0,2.5,0.3,3.5,0.9
		c1,0.6,1.7,1.4,2.2,2.4v-3.1h2.6v15.5h-2.6v-3.2c-0.5,1-1.3,1.8-2.2,2.5c-1,0.6-2.1,0.9-3.5,0.9
		C464.9,145.1,463.1,144.4,461.7,142.8z M471.2,141.3c1-1.1,1.5-2.5,1.5-4.2c0-1.8-0.5-3.2-1.5-4.2c-1-1.1-2.3-1.6-3.7-1.6
		c-1.4,0-2.7,0.5-3.7,1.5s-1.5,2.4-1.5,4.2s0.5,3.2,1.6,4.3c1,1.1,2.3,1.6,3.7,1.6C468.9,142.9,470.1,142.4,471.2,141.3z"/>
	<path class="st0" d="M487.3,144.6l-6.1-15.2h2.8l4.7,12.5l4.8-12.5h2.7l-9.3,22.8h-2.7L487.3,144.6z"/>
	<path class="st0" d="M503.2,142.8c-1.4-1.5-2.1-3.5-2.1-5.8s0.7-4.3,2.1-5.7c1.4-1.5,3.2-2.2,5.3-2.2c1.3,0,2.5,0.3,3.5,0.9
		c1,0.6,1.7,1.4,2.2,2.4v-3.1h2.6v15.5h-2.6v-3.2c-0.5,1-1.3,1.8-2.2,2.5c-1,0.6-2.1,0.9-3.5,0.9
		C506.3,145.1,504.6,144.4,503.2,142.8z M512.6,141.3c1-1.1,1.5-2.5,1.5-4.2c0-1.8-0.5-3.2-1.5-4.2c-1-1.1-2.3-1.6-3.7-1.6
		c-1.4,0-2.7,0.5-3.7,1.5s-1.5,2.4-1.5,4.2s0.5,3.2,1.6,4.3c1,1.1,2.3,1.6,3.7,1.6C510.3,142.9,511.6,142.4,512.6,141.3z"/>
	<path class="st0" d="M526.9,129.4v2.5c1.1-1.8,2.7-2.8,5.1-2.8c1.7,0,3.1,0.6,4.3,1.7c1.1,1.1,1.7,2.8,1.7,4.9v9.2h-2.5v-8.8
		c0-1.6-0.4-2.7-1.1-3.6c-0.8-0.8-1.8-1.2-3.1-1.2s-2.4,0.4-3.1,1.2c-0.8,0.8-1.1,2-1.1,3.6v8.8h-2.6v-15.5L526.9,129.4L526.9,129.4
		z"/>
	<path class="st0" d="M550.6,142.8h2.1v2.1h-2.6c-2.7,0-4-1.3-4-4v-9.4h-2v-2.1h2v-3.8h2.6v3.8h4v2.1h-4v9.4c0,0.7,0.1,1.2,0.4,1.5
		C549.3,142.6,549.8,142.8,550.6,142.8z"/>
</g>
<g>
	<g>
		<g>
			<rect x="62.3" y="44.8" class="st1" width="4.7" height="52.5"/>
		</g>
	</g>
	<g>
		<g>
			<path class="st1" d="M62.3,79.6v-4.4c0-1.4,1.1-2.5,2.4-2.5c1.3,0,2.4,1.1,2.4,2.5v4.4H62.3z"/>
		</g>
	</g>
	<g>
		<g>
			<path class="st1" d="M41.5,19.2c-14,0-25.5,11.5-25.5,25.6h4.8c0-11.5,9.3-20.9,20.7-20.9s20.7,9.4,20.7,20.9H67
				C67,30.7,55.6,19.2,41.5,19.2z"/>
		</g>
	</g>
	<g>
		<path class="st1" d="M66.7,120.7h-4.5c0,11.5-9.3,20.9-20.7,20.9s-20.7-9.4-20.7-20.9h-4.5c0,14,11.3,25.4,25.2,25.4
			C55.3,146.1,66.7,134.7,66.7,120.7z"/>
	</g>
	<g>
		<g>
			<path class="st1" d="M47.2,114.7c-10.9,0-19.8-9.3-19.8-20.7h4.7c0,8.8,6.8,16,15.1,16s15.1-7.2,15.1-16H67
				C67,105.4,58.1,114.7,47.2,114.7z"/>
		</g>
	</g>
	<g>
		<polygon class="st1" points="20.8,44.8 16.1,44.8 16.2,120.7 20.7,120.7 		"/>
	</g>
	<g>
		<g>
			<path class="st1" d="M16.1,44.4v4.5c0,1.4,1.1,2.5,2.4,2.5s2.4-1.1,2.4-2.5v-4.5H16.1z"/>
		</g>
	</g>
	<g>
		<path class="st1" d="M62.2,120.7v-4c0-1.2,1-2.2,2.2-2.2c1.2,0,2.2,1,2.2,2.2v4H62.2z"/>
	</g>
	<g>
		<g>
			<rect x="27.5" y="78.9" class="st1" width="4.7" height="15.6"/>
		</g>
	</g>
	<g>
		<g>
			<path class="st1" d="M27.5,79.6v-4.4c0-1.4,1.1-2.5,2.4-2.5s2.4,1.1,2.4,2.5v4.4H27.5z"/>
		</g>
	</g>
</g>
</svg>
