<svg xmlns="http://www.w3.org/2000/svg" xmlns:xlink="http://www.w3.org/1999/xlink" id="Calque_1" x="0" y="0" version="1.1" viewBox="0 0 584 172" xml:space="preserve" style="enable-background:new 0 0 584 172"><style type="text/css">.st0{fill:#fff}</style><g><g><path d="M121.8,31.3c7.3,0,13.4,2.5,18.2,7.5c4.8,5,7.2,11.6,7.2,19.7c0,8.1-2.4,14.8-7.3,20 c-4.9,5.2-10.9,7.8-18.2,7.8c-4.5,0-8.5-1.1-11.9-3.3c-3.4-2.2-6-5-7.8-8.5v10.9h-8.8V13.6h8.8v29.2c1.8-3.4,4.4-6.2,7.8-8.3 C113.3,32.4,117.3,31.3,121.8,31.3z M120.1,78.8c5,0,9.2-1.9,12.7-5.6c3.5-3.7,5.3-8.6,5.3-14.7c0-6.1-1.8-10.8-5.3-14.3 c-3.5-3.5-7.8-5.2-12.7-5.2s-9.2,1.8-12.7,5.4c-3.5,3.6-5.3,8.4-5.3,14.4c0,6,1.8,10.8,5.3,14.5C110.9,77,115.2,78.8,120.1,78.8z" class="st0"/><path d="M159.7,78.5c-4.9-5.2-7.3-11.9-7.3-20c0-8.1,2.4-14.7,7.2-19.7c4.8-5,10.9-7.5,18.2-7.5 c4.5,0,8.5,1.1,11.9,3.2c3.4,2.1,6,4.9,7.7,8.3V32.2h8.9v53.3h-8.9V74.6c-1.7,3.5-4.3,6.3-7.7,8.5c-3.4,2.2-7.4,3.3-11.9,3.3 C170.6,86.4,164.5,83.7,159.7,78.5z M192.2,73.3c3.5-3.6,5.3-8.4,5.3-14.5c0-6-1.8-10.8-5.3-14.5c-3.5-3.6-7.8-5.4-12.7-5.4 c-5,0-9.2,1.7-12.7,5.2c-3.5,3.5-5.3,8.3-5.3,14.3c0,6,1.8,10.9,5.3,14.7c3.6,3.8,7.8,5.6,12.7,5.6 C184.4,78.8,188.6,77,192.2,73.3z" class="st0"/><path d="M222.2,78.8c-4.8-5-7.2-11.7-7.2-20s2.4-14.9,7.2-20c4.8-5,11-7.6,18.6-7.6c6.4,0,11.6,1.5,15.7,4.5 c4,3,6.9,7.2,8.5,12.7h-9.5c-1-3.1-2.8-5.5-5.3-7.3c-2.5-1.7-5.6-2.6-9.3-2.6c-5,0-9.1,1.8-12.2,5.3c-3.1,3.5-4.6,8.5-4.6,15 s1.5,11.4,4.6,15c3.1,3.5,7.1,5.3,12.2,5.3c7.6,0,12.5-3.3,14.7-9.9h9.5c-1.6,5.2-4.5,9.4-8.6,12.5c-4.1,3.1-9.3,4.7-15.6,4.7 C233.2,86.4,227,83.8,222.2,78.8z" class="st0"/><path d="M283.2,85.5h-8.8V13.6h8.8v42.1l20.4-23.6H316l-25.1,26.5L316,85.5h-11.9l-20.9-23.4V85.5z" class="st0"/><path d="M325.6,78.8c-4.9-5-7.3-11.7-7.3-19.9s2.6-14.9,7.7-20c5.1-5.1,11.5-7.6,19.2-7.6c7.7,0,14.1,2.5,19.2,7.6 c5.1,5.1,7.7,11.7,7.7,19.9s-2.7,14.8-8,19.9c-5.3,5.1-11.9,7.6-19.6,7.6C336.8,86.4,330.5,83.8,325.6,78.8z M344.5,79.1 c5,0,9.3-1.8,13-5.4c3.7-3.6,5.5-8.6,5.5-14.9s-1.7-11.3-5.2-14.9c-3.5-3.6-7.8-5.3-12.8-5.3c-5,0-9.2,1.8-12.6,5.3 c-3.4,3.6-5,8.5-5,14.9c0,6.4,1.6,11.3,4.9,14.9C335.4,77.3,339.5,79.1,344.5,79.1z" class="st0"/><path d="M402.6,32.2v7.2h-11.2v46.1h-8.9V39.4h-6.9v-7.2h6.9v-4.5c0-5.8,1.6-10.1,4.7-12.7c3.1-2.7,8-4,14.7-4v7.2 c-3.9,0-6.6,0.7-8.1,2.2c-1.5,1.5-2.3,3.9-2.3,7.3v4.5H402.6z" class="st0"/><path d="M421.1,27.7v4.5h30.1v53.3h-8.8V39.4h-21.3v46.1h-8.9V39.4h-6.9v-7.2h6.9v-4.5c0-5.8,1.6-10.1,4.7-12.7 c3.1-2.7,8-4,14.7-4v7.2c-3.9,0-6.6,0.7-8.1,2.2C421.8,21.8,421.1,24.3,421.1,27.7z M451,21.9c-1.1,1.2-2.5,1.7-4.2,1.7 c-1.7,0-3.1-0.6-4.2-1.7c-1.1-1.2-1.7-2.6-1.7-4.3c0-1.7,0.6-3.1,1.7-4.3s2.6-1.7,4.2-1.7s3,0.6,4.2,1.7s1.7,2.6,1.7,4.3 C452.7,19.3,452.2,20.7,451,21.9z" class="st0"/><path d="M467,78.8c-4.8-5-7.2-11.7-7.2-20s2.4-14.9,7.2-20c4.8-5,11-7.6,18.6-7.6c6.4,0,11.6,1.5,15.7,4.5 c4,3,6.9,7.2,8.5,12.7h-9.5c-1-3.1-2.8-5.5-5.3-7.3c-2.5-1.7-5.6-2.6-9.3-2.6c-5,0-9.1,1.8-12.2,5.3c-3.1,3.5-4.6,8.5-4.6,15 s1.5,11.4,4.6,15c3.1,3.5,7.1,5.3,12.2,5.3c7.6,0,12.5-3.3,14.7-9.9h9.5c-1.6,5.2-4.5,9.4-8.6,12.5c-4.1,3.1-9.3,4.7-15.6,4.7 C478,86.4,471.8,83.8,467,78.8z" class="st0"/><path d="M541.5,86.4c-7.6,0-13.9-2.5-18.6-7.6c-4.8-5-7.2-11.7-7.2-20c0-8.3,2.4-14.9,7.3-20c4.9-5,11.1-7.5,18.9-7.5 c7.7,0,13.9,2.4,18.6,7.1c4.7,4.8,7,10.8,7,18.2c0,1.9-0.1,3.6-0.4,5.2h-42.4c0.3,5.3,1.9,9.5,5,12.6c3.1,3.1,7,4.6,11.8,4.6 c3.6,0,6.7-0.8,9.2-2.4c2.5-1.6,4.3-3.8,5.5-6.4h9.5c-1.7,4.7-4.6,8.5-8.7,11.6C552.9,84.8,547.7,86.4,541.5,86.4z M553.4,43.2 c-3.2-3.1-7.1-4.6-11.8-4.6c-4.7,0-8.6,1.5-11.7,4.5c-3.1,3-4.8,7.1-5.1,12.4h33.5C558.2,50.4,556.6,46.3,553.4,43.2z" class="st0"/></g><g><path d="M95.7,122.3v-21h2.6v21H95.7z" class="st0"/><path d="M107.1,120.3c-1.4-1.5-2.1-3.5-2.1-5.8s0.7-4.3,2.1-5.8c1.4-1.5,3.2-2.2,5.3-2.2c1.3,0,2.5,0.3,3.5,0.9 c1,0.6,1.7,1.4,2.3,2.4v-3.1h2.6v15.5h-2.6v-3.2c-0.5,1-1.3,1.8-2.3,2.5c-1,0.6-2.1,0.9-3.5,0.9 C110.3,122.6,108.5,121.8,107.1,120.3z M116.5,118.8c1-1.1,1.5-2.5,1.5-4.2s-0.5-3.2-1.5-4.2c-1-1.1-2.3-1.6-3.7-1.6 c-1.4,0-2.7,0.5-3.7,1.5c-1,1-1.5,2.4-1.5,4.2s0.5,3.2,1.6,4.3c1,1.1,2.3,1.6,3.7,1.6C114.3,120.4,115.5,119.9,116.5,118.8z" class="st0"/><path d="M141.3,120.3c-1.4-1.5-2.1-3.5-2.1-5.8s0.7-4.3,2.1-5.8c1.4-1.5,3.2-2.2,5.3-2.2c1.3,0,2.5,0.3,3.5,0.9 c1,0.6,1.7,1.4,2.3,2.4v-3.1h2.6v15.9c0,2.1-0.7,3.9-2.1,5.2c-1.4,1.3-3.1,2-5.2,2c-2.1,0-3.9-0.5-5.3-1.5c-1.4-1-2.2-2.3-2.4-3.9 h2.5c0.2,0.9,0.8,1.6,1.7,2.2c0.9,0.6,2,0.9,3.4,0.9c1.3,0,2.5-0.4,3.4-1.3c0.9-0.9,1.3-2.1,1.3-3.7v-3.6c-0.5,1-1.3,1.8-2.3,2.5 c-1,0.6-2.1,0.9-3.5,0.9C144.5,122.6,142.8,121.8,141.3,120.3z M150.8,118.8c1-1.1,1.5-2.5,1.5-4.2s-0.5-3.2-1.5-4.2 c-1-1.1-2.3-1.6-3.7-1.6c-1.4,0-2.7,0.5-3.7,1.5c-1,1-1.5,2.4-1.5,4.2s0.5,3.2,1.6,4.3c1,1.1,2.3,1.6,3.7,1.6 C148.6,120.4,149.8,119.9,150.8,118.8z" class="st0"/><path d="M169.1,122.6c-2.2,0-4-0.7-5.4-2.2c-1.4-1.5-2.1-3.4-2.1-5.8c0-2.4,0.7-4.4,2.1-5.8c1.4-1.5,3.3-2.2,5.5-2.2 c2.3,0,4.1,0.7,5.4,2.1c1.4,1.4,2.1,3.2,2.1,5.3c0,0.5,0,1.1-0.1,1.5h-12.4c0.1,1.5,0.6,2.8,1.5,3.7c0.9,0.9,2,1.3,3.4,1.3 c1.1,0,2-0.2,2.7-0.7c0.7-0.5,1.3-1.1,1.6-1.9h2.8c-0.5,1.4-1.3,2.5-2.5,3.4C172.4,122.1,170.9,122.6,169.1,122.6z M172.6,110 c-0.9-0.9-2.1-1.3-3.4-1.3c-1.4,0-2.5,0.4-3.4,1.3c-0.9,0.9-1.4,2.1-1.5,3.6h9.8C174,112.1,173.5,110.9,172.6,110z" class="st0"/><path d="M182.7,111.2c0-1.3,0.5-2.4,1.6-3.3c1.1-0.9,2.5-1.3,4.2-1.3c1.7,0,3.1,0.4,4.1,1.3c1,0.9,1.5,2.1,1.6,3.6 h-2.7c0-0.9-0.3-1.6-0.9-2.1c-0.5-0.5-1.3-0.8-2.3-0.8c-1,0-1.7,0.2-2.3,0.7s-0.8,1.1-0.8,1.8c0,0.7,0.3,1.3,0.9,1.7 s1.4,0.7,2.3,0.9s1.8,0.4,2.7,0.6c0.9,0.2,1.7,0.7,2.3,1.3c0.6,0.7,0.9,1.6,0.9,2.8c0,1.2-0.5,2.2-1.6,3c-1.1,0.8-2.5,1.2-4.2,1.2 s-3.1-0.4-4.2-1.3c-1-0.9-1.6-2.1-1.7-3.6h2.7c0,0.9,0.3,1.6,0.9,2.1c0.6,0.5,1.4,0.8,2.4,0.8c1,0,1.8-0.2,2.4-0.7 c0.6-0.4,0.9-1,0.9-1.7s-0.2-1.2-0.7-1.6c-0.5-0.4-1-0.7-1.7-0.8c-0.7-0.2-1.4-0.3-2.2-0.5c-0.8-0.2-1.5-0.4-2.2-0.7 c-0.7-0.2-1.2-0.6-1.7-1.2C183,112.8,182.7,112.1,182.7,111.2z" class="st0"/><path d="M206.7,120.2h2.1v2.1h-2.6c-2.7,0-4-1.3-4-4v-9.5h-2v-2.1h2v-3.9h2.6v3.9h4v2.1h-4v9.5c0,0.7,0.1,1.2,0.4,1.5 C205.5,120.1,206,120.2,206.7,120.2z" class="st0"/><path d="M217.6,103.8c-0.3,0.3-0.8,0.5-1.2,0.5c-0.5,0-0.9-0.2-1.2-0.5c-0.3-0.3-0.5-0.8-0.5-1.2s0.2-0.9,0.5-1.2 c0.3-0.3,0.7-0.5,1.2-0.5c0.5,0,0.9,0.2,1.2,0.5c0.3,0.3,0.5,0.8,0.5,1.2S217.9,103.4,217.6,103.8z M215.1,122.3v-15.5h2.6v15.5 H215.1z" class="st0"/><path d="M226.4,120.4c-1.4-1.5-2.1-3.4-2.1-5.8s0.7-4.3,2.2-5.8c1.5-1.5,3.4-2.2,5.6-2.2c2.2,0,4.1,0.7,5.6,2.2 c1.5,1.5,2.2,3.4,2.2,5.8c0,2.4-0.8,4.3-2.3,5.8c-1.6,1.5-3.5,2.2-5.7,2.2S227.8,121.9,226.4,120.4z M231.9,120.5 c1.5,0,2.7-0.5,3.8-1.6c1.1-1,1.6-2.5,1.6-4.3c0-1.8-0.5-3.3-1.5-4.3c-1-1-2.3-1.6-3.7-1.6s-2.7,0.5-3.7,1.6c-1,1-1.5,2.5-1.5,4.3 s0.5,3.3,1.4,4.3C229.3,119.9,230.5,120.5,231.9,120.5z" class="st0"/><path d="M249.2,106.8v2.5c1.1-1.9,2.7-2.8,5.1-2.8c1.7,0,3.2,0.6,4.3,1.7c1.2,1.1,1.7,2.8,1.7,4.9v9.2h-2.5v-8.8 c0-1.6-0.4-2.8-1.1-3.6c-0.8-0.8-1.8-1.2-3.1-1.2c-1.3,0-2.4,0.4-3.1,1.2c-0.8,0.8-1.1,2-1.1,3.6v8.8h-2.6v-15.5H249.2z" class="st0"/><path d="M280.8,120.3c-1.4-1.5-2.1-3.5-2.1-5.8s0.7-4.3,2.1-5.8c1.4-1.5,3.2-2.2,5.3-2.2c1.3,0,2.5,0.3,3.5,0.9 c1,0.6,1.7,1.4,2.3,2.4v-8.5h2.6v21h-2.6v-3.2c-0.5,1-1.3,1.8-2.3,2.5c-1,0.6-2.1,0.9-3.5,0.9 C283.9,122.6,282.2,121.8,280.8,120.3z M290.2,118.8c1-1.1,1.5-2.5,1.5-4.2s-0.5-3.2-1.5-4.2c-1-1.1-2.3-1.6-3.7-1.6 c-1.4,0-2.7,0.5-3.7,1.5c-1,1-1.5,2.4-1.5,4.2s0.5,3.2,1.6,4.3c1,1.1,2.3,1.6,3.7,1.6C288,120.4,289.2,119.9,290.2,118.8z" class="st0"/><path d="M313,106.8h2.6v15.5H313v-2.5c-1,1.8-2.7,2.7-5.1,2.7c-1.7,0-3.2-0.6-4.3-1.7c-1.2-1.1-1.7-2.8-1.7-4.9v-9.2 h2.5v8.8c0,1.5,0.4,2.7,1.1,3.6c0.8,0.8,1.8,1.2,3.1,1.2c1.3,0,2.4-0.4,3.1-1.2c0.8-0.8,1.1-2,1.1-3.6V106.8z" class="st0"/><path d="M334.2,104.8v-2.1h12.9v2.1H342v17.6h-2.6v-17.6H334.2z" class="st0"/><path d="M356.5,103.8c-0.3,0.3-0.8,0.5-1.2,0.5c-0.5,0-0.9-0.2-1.2-0.5c-0.3-0.3-0.5-0.8-0.5-1.2s0.2-0.9,0.5-1.2 c0.3-0.3,0.7-0.5,1.2-0.5s0.9,0.2,1.2,0.5c0.3,0.3,0.5,0.8,0.5,1.2S356.9,103.4,356.5,103.8z M354,122.3v-15.5h2.6v15.5H354z" class="st0"/><path d="M370.7,122.6c-2.2,0-4-0.7-5.4-2.2s-2.1-3.4-2.1-5.8c0-2.4,0.7-4.4,2.1-5.8c1.4-1.5,3.3-2.2,5.5-2.2 c2.3,0,4.1,0.7,5.4,2.1c1.4,1.4,2.1,3.2,2.1,5.3c0,0.5,0,1.1-0.1,1.5h-12.4c0.1,1.5,0.6,2.8,1.5,3.7c0.9,0.9,2,1.3,3.4,1.3 c1.1,0,1.9-0.2,2.7-0.7c0.7-0.5,1.3-1.1,1.6-1.9h2.8c-0.5,1.4-1.3,2.5-2.5,3.4C374,122.1,372.5,122.6,370.7,122.6z M374.2,110 c-0.9-0.9-2.1-1.3-3.4-1.3s-2.5,0.4-3.4,1.3c-0.9,0.9-1.4,2.1-1.5,3.6h9.8C375.6,112.1,375.1,110.9,374.2,110z" class="st0"/><path d="M387.5,106.8v2.6c0.9-1.9,2.5-2.9,4.7-2.9v2.7h-0.7c-1.3,0-2.3,0.3-3,1c-0.7,0.7-1,1.9-1,3.6v8.5h-2.6v-15.5 H387.5z" class="st0"/><path d="M398.2,111.2c0-1.3,0.5-2.4,1.6-3.3c1.1-0.9,2.5-1.3,4.2-1.3s3.1,0.4,4.1,1.3c1,0.9,1.5,2.1,1.6,3.6H407 c0-0.9-0.3-1.6-0.9-2.1c-0.5-0.5-1.3-0.8-2.3-0.8c-1,0-1.7,0.2-2.3,0.7c-0.6,0.5-0.8,1.1-0.8,1.8c0,0.7,0.3,1.3,0.9,1.7 c0.6,0.4,1.4,0.7,2.3,0.9c0.9,0.2,1.8,0.4,2.7,0.6c0.9,0.2,1.7,0.7,2.3,1.3c0.6,0.7,0.9,1.6,0.9,2.8c0,1.2-0.5,2.2-1.6,3 c-1.1,0.8-2.5,1.2-4.2,1.2s-3.1-0.4-4.2-1.3c-1-0.9-1.6-2.1-1.7-3.6h2.7c0,0.9,0.3,1.6,0.9,2.1c0.6,0.5,1.4,0.8,2.4,0.8 c1,0,1.8-0.2,2.4-0.7c0.6-0.4,0.9-1,0.9-1.7s-0.2-1.2-0.7-1.6c-0.5-0.4-1-0.7-1.7-0.8c-0.7-0.2-1.4-0.3-2.2-0.5 c-0.8-0.2-1.5-0.4-2.2-0.7c-0.7-0.2-1.2-0.6-1.7-1.2C398.4,112.8,398.2,112.1,398.2,111.2z" class="st0"/><path d="M417.6,113.1v-2.2h11.3v2.2H417.6z" class="st0"/><path d="M448.5,104.3c1.2,1.1,1.7,2.5,1.7,4.1s-0.6,3.1-1.7,4.1c-1.1,1.1-2.8,1.6-5.1,1.6h-3.8v8.1H437v-19.6h6.4 C445.6,102.7,447.3,103.2,448.5,104.3z M439.6,112.2h3.8c1.4,0,2.5-0.3,3.2-1c0.7-0.7,1-1.6,1-2.7c0-2.5-1.4-3.7-4.2-3.7h-3.8 V112.2z" class="st0"/><path d="M457.9,120.3c-1.4-1.5-2.1-3.5-2.1-5.8s0.7-4.3,2.1-5.8c1.4-1.5,3.2-2.2,5.3-2.2c1.3,0,2.5,0.3,3.5,0.9 c1,0.6,1.7,1.4,2.3,2.4v-3.1h2.6v15.5h-2.6v-3.2c-0.5,1-1.3,1.8-2.3,2.5c-1,0.6-2.1,0.9-3.5,0.9 C461.1,122.6,459.3,121.8,457.9,120.3z M467.4,118.8c1-1.1,1.5-2.5,1.5-4.2s-0.5-3.2-1.5-4.2c-1-1.1-2.3-1.6-3.7-1.6 c-1.4,0-2.7,0.5-3.7,1.5c-1,1-1.5,2.4-1.5,4.2s0.5,3.2,1.6,4.3c1,1.1,2.3,1.6,3.7,1.6C465.1,120.4,466.4,119.9,467.4,118.8z" class="st0"/><path d="M483.5,122.1l-6.1-15.3h2.8l4.8,12.6l4.8-12.6h2.7l-9.4,22.8h-2.7L483.5,122.1z" class="st0"/><path d="M499.5,120.3c-1.4-1.5-2.1-3.5-2.1-5.8s0.7-4.3,2.1-5.8c1.4-1.5,3.2-2.2,5.3-2.2c1.3,0,2.5,0.3,3.5,0.9 c1,0.6,1.7,1.4,2.3,2.4v-3.1h2.6v15.5h-2.6v-3.2c-0.5,1-1.3,1.8-2.3,2.5c-1,0.6-2.1,0.9-3.5,0.9 C502.6,122.6,500.9,121.8,499.5,120.3z M508.9,118.8c1-1.1,1.5-2.5,1.5-4.2s-0.5-3.2-1.5-4.2c-1-1.1-2.3-1.6-3.7-1.6 c-1.4,0-2.7,0.5-3.7,1.5c-1,1-1.5,2.4-1.5,4.2s0.5,3.2,1.6,4.3c1,1.1,2.3,1.6,3.7,1.6C506.7,120.4,507.9,119.9,508.9,118.8z" class="st0"/><path d="M523.3,106.8v2.5c1.1-1.9,2.7-2.8,5.1-2.8c1.7,0,3.2,0.6,4.3,1.7c1.2,1.1,1.7,2.8,1.7,4.9v9.2h-2.5v-8.8 c0-1.6-0.4-2.8-1.1-3.6c-0.8-0.8-1.8-1.2-3.1-1.2c-1.3,0-2.4,0.4-3.1,1.2c-0.8,0.8-1.1,2-1.1,3.6v8.8h-2.6v-15.5H523.3z" class="st0"/><path d="M547,120.2h2.1v2.1h-2.6c-2.7,0-4-1.3-4-4v-9.5h-2v-2.1h2v-3.9h2.6v3.9h4v2.1h-4v9.5c0,0.7,0.1,1.2,0.4,1.5 C545.8,120.1,546.3,120.2,547,120.2z" class="st0"/></g><path d="M22,82.7C22.3,93.9,31.1,103,42,103c11,0,20-9.4,20-20.9V32.5h0c0-14.3-11.5-25.9-25.7-25.9 C22,6.7,10.5,18.3,10.5,32.5l0,4.1c0,0,0,0.1,0,0.1l0.1,72.3c0,14.1,11.4,25.6,25.4,25.6c14,0,25.4-11.5,25.4-25.6V105 c0-1.2-1-2.3-2.2-2.3c-1.2,0-2.2,1-2.2,2.3v4.1c0,11.6-9.4,21.1-20.9,21.1c-11.5,0-20.9-9.5-20.9-21.1l0.1-72.3c0,0,0-0.1,0-0.1 l0-4.1c0-11.6,9.4-21.1,20.9-21.1c11.5,0,20.9,9.4,20.9,21.1l0,0l0,49.6h0c0,8.9-6.8,16.1-15.2,16.1c-8.4,0-15.2-7.2-15.2-16.1h0 V67.6v-0.7v-3.8c0-1.4-1.1-2.5-2.4-2.5S22,61.7,22,63.1v3.8v0.7v14.5h0c0,0,0,0,0,0L22,82.7L22,82.7z" class="st0"/><g><path d="M436.6,155c-1.4-1.5-2.1-3.4-2.1-5.7c0-2.4,0.7-4.3,2.2-5.7c1.5-1.5,3.3-2.2,5.5-2.2c2.2,0,4.1,0.7,5.5,2.2 c1.5,1.5,2.2,3.4,2.2,5.7c0,2.4-0.8,4.3-2.3,5.7c-1.5,1.5-3.4,2.2-5.6,2.2S438,156.5,436.6,155z M442,155.1c1.4,0,2.7-0.5,3.7-1.6 c1.1-1,1.6-2.5,1.6-4.3s-0.5-3.3-1.5-4.3c-1-1-2.2-1.5-3.7-1.5c-1.4,0-2.7,0.5-3.6,1.5c-1,1-1.5,2.5-1.5,4.3 c0,1.8,0.5,3.3,1.4,4.3C439.4,154.6,440.6,155.1,442,155.1z" class="st0"/><path d="M463.5,141.4c2.1,0,3.9,0.7,5.2,2.2c1.4,1.4,2.1,3.3,2.1,5.7c0,2.3-0.7,4.3-2.1,5.8c-1.4,1.5-3.1,2.2-5.2,2.2 c-1.3,0-2.4-0.3-3.4-0.9c-1-0.6-1.7-1.4-2.3-2.4v10.4h-2.5v-22.6h2.5v3.1c0.5-1,1.3-1.8,2.3-2.4 C461,141.7,462.2,141.4,463.5,141.4z M463,155c1.4,0,2.6-0.5,3.7-1.6c1-1.1,1.5-2.5,1.5-4.2c0-1.7-0.5-3.1-1.5-4.1 c-1-1-2.2-1.5-3.7-1.5c-1.4,0-2.6,0.5-3.7,1.6c-1,1-1.5,2.4-1.5,4.2c0,1.7,0.5,3.1,1.5,4.2C460.3,154.5,461.5,155,463,155z" class="st0"/><path d="M481.1,154.9h2.1v2.1h-2.6c-2.7,0-4-1.3-4-3.9v-9.3h-2v-2.1h2v-3.8h2.6v3.8h4v2.1h-4v9.3 c0,0.7,0.1,1.2,0.4,1.5C479.9,154.7,480.4,154.9,481.1,154.9z" class="st0"/><path d="M490.6,138.6c-0.3,0.3-0.7,0.5-1.2,0.5c-0.5,0-0.9-0.2-1.2-0.5s-0.5-0.7-0.5-1.2c0-0.5,0.2-0.9,0.5-1.2 c0.3-0.3,0.7-0.5,1.2-0.5s0.9,0.2,1.2,0.5c0.3,0.3,0.5,0.7,0.5,1.2C491.1,137.9,490.9,138.3,490.6,138.6z M488.1,156.9v-15.3h2.5 v15.3H488.1z" class="st0"/><path d="M498,155c-1.4-1.5-2.1-3.4-2.1-5.8c0-2.3,0.7-4.2,2.1-5.7c1.4-1.4,3.1-2.2,5.2-2.2c1.3,0,2.4,0.3,3.4,0.9 c1,0.6,1.7,1.4,2.2,2.4v-3.1h2.6v22.6h-2.6v-10.4c-0.5,1-1.2,1.8-2.2,2.4c-1,0.6-2.1,0.9-3.4,0.9C501.2,157.2,499.4,156.4,498,155 z M507.4,153.5c1-1,1.5-2.4,1.5-4.2c0-1.7-0.5-3.1-1.5-4.2c-1-1-2.2-1.6-3.7-1.6c-1.4,0-2.6,0.5-3.7,1.5c-1,1-1.5,2.4-1.5,4.1 c0,1.7,0.5,3.1,1.5,4.2c1,1.1,2.2,1.6,3.7,1.6C505.1,155,506.3,154.5,507.4,153.5z" class="st0"/><path d="M528.6,141.6h2.5v15.3h-2.5v-2.5c-1,1.8-2.7,2.7-5,2.7c-1.7,0-3.1-0.6-4.2-1.7c-1.1-1.1-1.7-2.7-1.7-4.8v-9.1 h2.5v8.7c0,1.5,0.4,2.7,1.1,3.5c0.8,0.8,1.8,1.2,3.1,1.2c1.3,0,2.3-0.4,3.1-1.2c0.8-0.8,1.1-2,1.1-3.5V141.6z" class="st0"/><path d="M543.8,157.2c-2.2,0-4-0.7-5.4-2.2c-1.4-1.5-2.1-3.4-2.1-5.8s0.7-4.3,2.1-5.7c1.4-1.4,3.2-2.2,5.4-2.2 c2.2,0,4,0.7,5.4,2.1c1.4,1.4,2,3.1,2,5.2c0,0.5,0,1-0.1,1.5H539c0.1,1.5,0.6,2.7,1.4,3.6c0.9,0.9,2,1.3,3.4,1.3 c1,0,1.9-0.2,2.6-0.7c0.7-0.5,1.2-1.1,1.6-1.8h2.7c-0.5,1.3-1.3,2.5-2.5,3.3C547.1,156.8,545.6,157.2,543.8,157.2z M547.3,144.8 c-0.9-0.9-2-1.3-3.4-1.3s-2.5,0.4-3.4,1.3c-0.9,0.9-1.4,2.1-1.5,3.6h9.6C548.6,146.8,548.2,145.7,547.3,144.8z" class="st0"/></g></g></svg>