<?xml version="1.0" encoding="utf-8"?>
<!-- Generator: Adobe Illustrator 21.0.2, SVG Export Plug-In . SVG Version: 6.00 Build 0)  -->
<svg version="1.1" id="Calque_1" xmlns="http://www.w3.org/2000/svg" xmlns:xlink="http://www.w3.org/1999/xlink" x="0px" y="0px"
	 viewBox="0 0 79.6 171.9" style="enable-background:new 0 0 79.6 171.9;" xml:space="preserve">
<style type="text/css">
	.st0{fill:#FABA49;}
</style>
<path class="st0" d="M23.5,100.7c0.3,13.7,11.1,24.7,24.3,24.7c13.4,0,24.3-11.4,24.3-25.4V39.8h0C72,22.4,58,8.3,40.7,8.3
	C23.5,8.3,9.5,22.4,9.5,39.8l0,5c0,0,0,0.1,0,0.1l0.2,88c0,17.2,13.9,31.1,30.9,31.1c17.1,0,30.9-14,30.9-31.1V128
	c0-1.5-1.2-2.8-2.7-2.8s-2.7,1.2-2.7,2.8v4.9c0,14.1-11.4,25.6-25.5,25.6c-14,0-25.5-11.5-25.5-25.6l0.2-88c0,0,0-0.1,0-0.1l0-5
	c0-14.1,11.4-25.6,25.4-25.6c14,0,25.4,11.5,25.4,25.6l0,0l0,60.3h0c0,10.8-8.3,19.6-18.5,19.6c-10.2,0-18.5-8.8-18.5-19.6h0V82.4
	v-0.8V77c0-1.7-1.3-3-2.9-3c-1.6,0-2.9,1.4-2.9,3v4.6v0.8v17.7h0c0,0,0,0,0,0L23.5,100.7L23.5,100.7z"/>
</svg>
