<svg xmlns="http://www.w3.org/2000/svg" xmlns:xlink="http://www.w3.org/1999/xlink" id="Capa_1" x="0" y="0" version="1.1" viewBox="0 0 482.8 482.8" xml:space="preserve" style="enable-background:new 0 0 482.8 482.8"><style type="text/css">.st0{fill:#faba49}</style><path d="M347.2,17.7c-54.3,0-98.4,44.1-98.4,98.4v97.8l-7.2-5.5c-23.8-18.2-52.2-27.8-82.3-27.8	c-36.3,0-70.5,14.1-96.2,39.8c-25.7,25.7-39.8,59.8-39.8,96.2s14.1,70.5,39.8,96.2c25.7,25.7,59.8,39.8,96.2,39.8	c35.7,0,69.5-13.8,95.1-38.8l4.2-4.1l2.9,5.1c17.5,31,50.3,50.3,85.8,50.3c54.3,0,98.4-44.1,98.4-98.4V116.1	C445.6,61.9,401.5,17.7,347.2,17.7z M228.4,408c-20,15.2-43.9,23.2-69.1,23.2c-30.6,0-59.4-11.9-81-33.6	c-21.6-21.6-33.6-50.4-33.6-81c0-25.2,8-49.1,23.2-69.1l3.1-4.1l161.5,161.5L228.4,408z M250.7,385.7l-3.1,4.1L86.1,228.3l4.1-3.1	c20-15.2,43.9-23.2,69.1-23.2c30.6,0,59.4,11.9,81,33.6c4,4,7.6,8.2,11,12.7l0.1,0.2c14.7,19.8,22.5,43.3,22.5,68.2	C273.9,341.8,265.9,365.7,250.7,385.7z M424.2,366.7c0,42.5-34.5,77-77,77c-32.7,0-61.9-20.8-72.7-51.7l-0.7-2l1.1-1.8	c13.3-21.4,20.3-46.2,20.3-71.6c0-20.4-4.4-39.9-12.9-58.1l-3-6.4h145V366.7z M424.2,230.7h-154V116.1c0-42.5,34.6-77,77-77	s77,34.6,77,77V230.7z" class="st0"/></svg>