<?xml version="1.0" encoding="utf-8"?>
<!-- Generator: Adobe Illustrator 21.0.2, SVG Export Plug-In . SVG Version: 6.00 Build 0)  -->
<svg version="1.1" id="Calque_1" xmlns="http://www.w3.org/2000/svg" xmlns:xlink="http://www.w3.org/1999/xlink" x="0px" y="0px"
	 viewBox="0 0 50 50" style="enable-background:new 0 0 50 50;" xml:space="preserve">
<style type="text/css">
	.st0{fill:#FABA49;}
</style>
<g>
	<g>
		<path class="st0" d="M19.3,30l7.4,2.3c0,0,0,0.1,0,0.2c-0.2,0.5-0.6,0.8-1.3,0.9c-2.4,0.4-6.5,0.1-6.5,0.1c-0.6,0-1.2,0.4-1.2,1.1
			c0,0.6,0.4,1.2,1.1,1.2c0.2,0,4.3,0.3,7-0.2c2.7-0.4,3.5-2.8,3.3-4.3c0-0.5-0.4-0.9-0.8-1l-8.3-2.5c-4.1-1.2-8.6,1.1-8.8,1.1
			c0,0,0,0-0.1,0l-8.3,5c-0.5,0.3-0.7,1-0.4,1.6c0.2,0.4,0.6,0.6,1,0.6c0.2,0,0.4-0.1,0.6-0.2l8.3-5C12.5,30.8,16.2,29.1,19.3,30z"
			/>
		<path class="st0" d="M47.7,28.1C47,26.9,45,25,41.9,26.4c-2.9,1.3-9.1,4.3-9.2,4.3c-0.6,0.3-0.8,0.9-0.5,1.5
			c0.3,0.6,1,0.8,1.5,0.5c0.1,0,6.2-3,9.1-4.3c0.8-0.4,1.5-0.4,2.1,0c0,0,0,0,0,0L29.5,39.8c-1.1,0.8-2.5,1.1-3.8,0.9l-13.8-2.2
			c-0.3,0-0.7,0-0.9,0.2l-3.5,2.9c-0.5,0.4-0.6,1.1-0.1,1.6c0.2,0.3,0.6,0.4,0.9,0.4c0.3,0,0.5-0.1,0.7-0.3l3.1-2.6L25.3,43
			c1.9,0.3,4-0.2,5.5-1.3l16.5-12.1C47.8,29.2,48,28.6,47.7,28.1z"/>
		<path class="st0" d="M26.6,26.8c1.8,0,3.4-0.7,4.7-1.9c2.6-2.6,2.6-6.8,0-9.4c-1.3-1.3-2.9-1.9-4.7-1.9c-1.8,0-3.4,0.7-4.7,1.9
			c-2.6,2.6-2.6,6.8,0,9.4C23.2,26.1,24.8,26.8,26.6,26.8z M23.5,17.1c0.8-0.8,1.9-1.3,3.1-1.3c1.2,0,2.3,0.5,3.1,1.3
			c1.7,1.7,1.7,4.5,0,6.2c-0.8,0.8-1.9,1.3-3.1,1.3c-1.2,0-2.3-0.5-3.1-1.3C21.8,21.6,21.8,18.8,23.5,17.1z"/>
		<path class="st0" d="M34.4,13.9c1.4,0,2.7-0.5,3.7-1.5c2-2,2-5.3,0-7.3c-1-1-2.3-1.5-3.7-1.5S31.7,4,30.7,5c-2,2-2,5.3,0,7.3
			C31.7,13.3,33,13.9,34.4,13.9z M32.3,6.6c0.6-0.6,1.3-0.9,2.1-0.9s1.5,0.3,2.1,0.9c1.1,1.1,1.1,3,0,4.1c-0.6,0.6-1.3,0.9-2.1,0.9
			s-1.5-0.3-2.1-0.9C31.2,9.6,31.2,7.8,32.3,6.6z"/>
	</g>
</g>
</svg>
