<svg xmlns="http://www.w3.org/2000/svg" xmlns:xlink="http://www.w3.org/1999/xlink" id="Capa_1" x="0" y="0" version="1.1" viewBox="0 0 482.8 482.8" xml:space="preserve" style="enable-background:new 0 0 482.8 482.8"><style type="text/css">.st0{fill:#faba49;stroke:#fff;stroke-width:5;stroke-miterlimit:10}</style><g><g id="Layer_20_51_"><g><polygon points="159.4 308.6 221.5 308.6 221.5 322.9 159.4 322.9 159.4 334.7 354.6 334.7 354.6 322.9 282.2 322.9 282.2 308.6 362.7 308.6 362.7 275.9 159.4 275.9" class="st0"/><polygon points="105.4 112 401.2 112 401.2 230.2 426.6 230.2 426.6 86.6 80 86.6 80 165.8 105.4 165.8" class="st0"/><path d="M18.9,372.3h132.3V173.8H18.9V372.3z M87.9,362.3c-3.5,0-6.4-2.8-6.4-6.4c0-3.5,2.9-6.4,6.4-6.4 c3.5,0,6.4,2.8,6.4,6.4C94.3,359.4,91.4,362.3,87.9,362.3z M38.1,192.9h94.1l0,146.4H38.1V192.9z" class="st0"/><path d="M371.7,237.8v139.7h92.2V237.8H371.7z M419.6,243.6c1.1,0,2,0.9,2,2c0,1.1-0.9,2-2,2c-1.1,0-2-0.9-2-2 S418.5,243.6,419.6,243.6z M407.7,250.3h23.9v1.9h-23.9V250.3z M418.8,371.5c-2.7,0-4.8-2.2-4.8-4.8c0-2.6,2.1-4.8,4.8-4.8 c2.6,0,4.8,2.1,4.8,4.8C423.6,369.4,421.5,371.5,418.8,371.5z M450.5,355.1c-21.6,0.1-54.8,0.2-65.5,0.1v-96.1l65.5,0V355.1z" class="st0"/></g></g></g></svg>