<?xml version="1.0" encoding="utf-8"?>
<!-- Generator: Adobe Illustrator 19.2.0, SVG Export Plug-In . SVG Version: 6.00 Build 0)  -->
<svg version="1.1" id="Capa_1" xmlns="http://www.w3.org/2000/svg" xmlns:xlink="http://www.w3.org/1999/xlink" x="0px" y="0px"
	 viewBox="0 0 482.8 482.8" style="enable-background:new 0 0 482.8 482.8;" xml:space="preserve">
<style type="text/css">
	.st0{fill:#FABA49;}
</style>
<g>
	<g>
		<path class="st0" d="M413.9,240.3c-0.1-12.6-10.3-22.8-22.8-22.8h-9.4V154c0-77.4-63-140.4-140.4-140.4
			c-77.4,0-140.4,63-140.4,140.4c0,5.9,4.6,10.6,10.6,10.6s10.6-4.6,10.6-10.6c0-65.8,53.5-119.3,119.3-119.3
			c65.8,0,119.3,53.5,119.3,119.3v63.4h-269c-12.6,0-22.8,10.2-22.8,22.8v162.9c0,40.4,32.9,73.3,73.3,73.3h198.5
			c40.4,0,73.3-32.9,73.3-73.3V240.3z M392.7,403.2c0,28.7-23.4,52.1-52.1,52.1H142.1c-28.7,0-52.1-23.4-52.1-52.1V238.6h302.7
			V403.2z"/>
		<path class="st0" d="M241.4,302.5c-25.6,0-46.4,20.8-46.4,46.4c0,25.6,20.8,46.4,46.4,46.4c25.6,0,46.4-20.8,46.4-46.4
			C287.8,323.3,267,302.5,241.4,302.5z M241.4,374.2c-13.9,0-25.2-11.3-25.2-25.3c0-14,11.3-25.4,25.2-25.4
			c13.9,0,25.3,11.3,25.3,25.3C266.6,362.8,255.3,374.2,241.4,374.2z"/>
	</g>
</g>
</svg>
