<?xml version="1.0" encoding="utf-8"?>
<!-- Generator: Adobe Illustrator 22.1.0, SVG Export Plug-In . SVG Version: 6.00 Build 0)  -->
<svg version="1.1" id="Calque_1" xmlns="http://www.w3.org/2000/svg" xmlns:xlink="http://www.w3.org/1999/xlink" x="0px" y="0px"
	 viewBox="0 0 231.1 231.1" style="enable-background:new 0 0 231.1 231.1;" xml:space="preserve">
<style type="text/css">
	.st0{fill:#00B2EE;}
</style>
<g>
	<path class="st0" d="M230,142.6c-1.9-2.7-5.6-3.5-8.4-1.6l-65.5,44.7l-14.6-19.5c-1.5-2-4.2-3-6.8-2.1c-3.2,1.1-4.9,4.5-3.8,7.7
		l11.9,35.8c0.4,1.3,1.2,2.6,2.2,3.8c3.9,4.4,10.7,4.8,15.1,0.8l0.8-0.7l68.1-61C231.3,148.5,231.8,145.1,230,142.6L230,142.6z"/>
	<path class="st0" d="M120.2,190.7H12V28.2h158.4V153c0,3.3,2.7,6,6,6s6-2.7,6-6V22.2c0-3.3-2.7-6-6-6H6c-3.3,0-6,2.7-6,6v174.5
		c0,3.3,2.7,6,6,6h114.2c3.3,0,6-2.7,6-6S123.5,190.7,120.2,190.7z"/>
	<path class="st0" d="M139.7,53.9h-97c-3.3,0-6,2.7-6,6s2.7,6,6,6h97c3.3,0,6-2.7,6-6S143,53.9,139.7,53.9z"/>
	<path class="st0" d="M139.7,79.8h-97c-3.3,0-6,2.7-6,6s2.7,6,6,6h97c3.3,0,6-2.7,6-6S143,79.8,139.7,79.8z"/>
	<path class="st0" d="M139.7,105.7h-97c-3.3,0-6,2.7-6,6s2.7,6,6,6h97c3.3,0,6-2.7,6-6S143,105.7,139.7,105.7z"/>
	<path class="st0" d="M145.7,137.7c0-3.3-2.7-6-6-6h-97c-3.3,0-6,2.7-6,6s2.7,6,6,6h97C143,143.7,145.7,141,145.7,137.7z"/>
	<path class="st0" d="M42.7,156.3c-3.3,0-6,2.7-6,6s2.7,6,6,6h48.5c3.3,0,6-2.7,6-6s-2.7-6-6-6H42.7z"/>
</g>
</svg>
