<?xml version="1.0" encoding="UTF-8"?><svg id="Calque_1" xmlns="http://www.w3.org/2000/svg" viewBox="0 0 25 25"><defs><style>.cls-1{fill:#fff;}</style></defs><path class="cls-1" d="M12.51,7.08c-3,0-5.43,2.43-5.43,5.43s2.43,5.43,5.43,5.43,5.43-2.43,5.43-5.43-2.43-5.43-5.43-5.43h0ZM1.65,13.6H3.82c.6,0,1.09-.49,1.09-1.09s-.49-1.09-1.09-1.09H1.65c-.6,0-1.09,.49-1.09,1.09s.49,1.09,1.09,1.09Zm19.55,0h2.17c.6,0,1.09-.49,1.09-1.09s-.49-1.09-1.09-1.09h-2.17c-.6,0-1.09,.49-1.09,1.09s.49,1.09,1.09,1.09ZM11.43,1.65V3.82c0,.6,.49,1.09,1.09,1.09s1.09-.49,1.09-1.09V1.65c0-.6-.49-1.09-1.09-1.09s-1.09,.49-1.09,1.09Zm0,19.55v2.17c0,.6,.49,1.09,1.09,1.09s1.09-.49,1.09-1.09v-2.17c0-.6-.49-1.09-1.09-1.09s-1.09,.49-1.09,1.09ZM5.98,4.45c-.42-.42-1.12-.42-1.53,0-.42,.42-.42,1.12,0,1.53l1.15,1.15c.42,.42,1.12,.42,1.53,0s.42-1.12,0-1.53l-1.15-1.15Zm13.43,13.43c-.42-.42-1.12-.42-1.53,0-.42,.42-.42,1.12,0,1.53l1.15,1.15c.42,.42,1.12,.42,1.53,0,.42-.42,.42-1.12,0-1.53l-1.15-1.15Zm1.15-11.9c.42-.42,.42-1.12,0-1.53-.42-.42-1.12-.42-1.53,0l-1.15,1.15c-.42,.42-.42,1.12,0,1.53s1.12,.42,1.53,0l1.15-1.15ZM7.14,19.42c.42-.42,.42-1.12,0-1.53-.42-.42-1.12-.42-1.53,0l-1.15,1.15c-.42,.42-.42,1.12,0,1.53s1.12,.42,1.53,0l1.15-1.15Z"/></svg>