<?xml version="1.0" encoding="utf-8"?>
<!-- Generator: Adobe Illustrator 19.2.0, SVG Export Plug-In . SVG Version: 6.00 Build 0)  -->
<svg version="1.1" id="Calque_1" xmlns="http://www.w3.org/2000/svg" xmlns:xlink="http://www.w3.org/1999/xlink" x="0px" y="0px"
	 viewBox="0 0 463 463" style="enable-background:new 0 0 463 463;" xml:space="preserve">
<style type="text/css">
	.st0{fill:#FABA49;}
</style>
<g>
	<g>
		<path class="st0" d="M15,231.5c0-57.8,22.5-112.2,63.4-153.1C119.3,37.5,173.7,15,231.5,15c58.5,0,114,23.5,154.6,65h-26.6
			c-4.1,0-7.5,3.4-7.5,7.5s3.4,7.5,7.5,7.5h48c4.1,0,7.5-3.4,7.5-7.5v-48c0-4.1-3.4-7.5-7.5-7.5s-7.5,3.4-7.5,7.5v33.3
			C356.3,26.4,295.6,0,231.5,0c-61.8,0-120,24.1-163.7,67.8S0,169.7,0,231.5c0,40.7,10.7,80.7,31,115.7c1.4,2.4,3.9,3.7,6.5,3.7
			c1.3,0,2.6-0.3,3.7-1c3.6-2.1,4.8-6.7,2.7-10.2C25,307,15,269.6,15,231.5z"/>
		<path class="st0" d="M432,115.7c-2.1-3.6-6.7-4.8-10.2-2.7c-3.6,2.1-4.8,6.7-2.7,10.2c18.9,32.8,29,70.2,29,108.3
			c0,57.8-22.5,112.2-63.4,153.1c-40.9,40.9-95.3,63.4-153.1,63.4c-58.5,0-114-23.5-154.6-65h26.6c4.1,0,7.5-3.4,7.5-7.5
			s-3.4-7.5-7.5-7.5h-48c-4.1,0-7.5,3.4-7.5,7.5v48c0,4.1,3.4,7.5,7.5,7.5s7.5-3.4,7.5-7.5v-33.3c43.7,46.4,104.4,72.8,168.5,72.8
			c61.8,0,120-24.1,163.7-67.8S463,293.3,463,231.5C463,190.8,452.3,150.8,432,115.7z"/>
		<path class="st0" d="M231.5,64C139.1,64,64,139.1,64,231.5c0,0,0,0,0,0s0,0,0,0C64,323.9,139.1,399,231.5,399
			c92.4,0,167.5-75.1,167.5-167.5S323.9,64,231.5,64z M239,383.8v-16.3c0-4.1-3.4-7.5-7.5-7.5s-7.5,3.4-7.5,7.5v16.3
			C145.9,380,83,317.1,79.2,239h16.3c4.1,0,7.5-3.4,7.5-7.5s-3.4-7.5-7.5-7.5H79.2C83,145.9,145.9,83,224,79.2v16.3
			c0,4.1,3.4,7.5,7.5,7.5s7.5-3.4,7.5-7.5V79.2C317.1,83,380,145.9,383.8,224h-16.3c-4.1,0-7.5,3.4-7.5,7.5s3.4,7.5,7.5,7.5h16.3
			C380,317.1,317.1,380,239,383.8z"/>
		<path class="st0" d="M327.5,224h-65.4c-0.8-3.2-2-6.1-3.7-8.8l70.4-70.4c2.9-2.9,2.9-7.7,0-10.6c-2.9-2.9-7.7-2.9-10.6,0
			l-70.4,70.4c-4.8-2.9-10.4-4.6-16.3-4.6c-14.8,0-27.2,10.2-30.6,24h-17.4c-4.1,0-7.5,3.4-7.5,7.5s3.4,7.5,7.5,7.5h17.4
			c0.8,3.2,2,6.1,3.7,8.8l-18.4,18.4c-2.9,2.9-2.9,7.7,0,10.6c1.5,1.5,3.4,2.2,5.3,2.2s3.8-0.7,5.3-2.2l18.4-18.4
			c4.8,2.9,10.4,4.6,16.3,4.6c14.8,0,27.2-10.2,30.6-24h65.4c4.1,0,7.5-3.4,7.5-7.5S331.6,224,327.5,224z M231.5,248
			c-9.1,0-16.5-7.4-16.5-16.5s7.4-16.5,16.5-16.5s16.5,7.4,16.5,16.5S240.6,248,231.5,248z"/>
	</g>
</g>
</svg>
