<?xml version="1.0" encoding="utf-8"?>
<!-- Generator: Adobe Illustrator 19.2.0, SVG Export Plug-In . SVG Version: 6.00 Build 0)  -->
<svg version="1.1" id="Capa_1" xmlns="http://www.w3.org/2000/svg" xmlns:xlink="http://www.w3.org/1999/xlink" x="0px" y="0px"
	 viewBox="0 0 107.9 107.9" style="enable-background:new 0 0 107.9 107.9;" xml:space="preserve">
<style type="text/css">
	.st0{clip-path:url(#SVGID_2_);}
	.st1{fill:#383838;}
	.st2{clip-path:url(#SVGID_4_);}
	.st3{clip-path:url(#SVGID_6_);}
	.st4{clip-path:url(#SVGID_8_);}
</style>
<g>
	<g>
		<defs>
			<rect id="SVGID_1_" x="0.3" y="56" width="107.2" height="13.6"/>
		</defs>
		<clipPath id="SVGID_2_">
			<use xlink:href="#SVGID_1_"  style="overflow:visible;"/>
		</clipPath>
		<g class="st0">
			<path class="st1" d="M106.4,64H1.5c-0.6,0-1.2-0.5-1.2-1.2c0-0.6,0.5-1.2,1.2-1.2h104.9c0.6,0,1.2,0.5,1.2,1.2S107,64,106.4,64z"
				/>
		</g>
	</g>
	<g>
		<defs>
			<rect id="SVGID_3_" x="0.3" y="56" width="107.2" height="13.6"/>
		</defs>
		<clipPath id="SVGID_4_">
			<use xlink:href="#SVGID_3_"  style="overflow:visible;"/>
		</clipPath>
		<g class="st2">
			<path class="st1" d="M24.8,69.6c3.8,0,6.8-3.1,6.8-6.8c0-3.8-3.1-6.8-6.8-6.8S18,59.1,18,62.8C18,66.6,21,69.6,24.8,69.6"/>
		</g>
	</g>
	<g>
		<defs>
			<rect id="SVGID_5_" x="0.3" y="56" width="107.2" height="13.6"/>
		</defs>
		<clipPath id="SVGID_6_">
			<use xlink:href="#SVGID_5_"  style="overflow:visible;"/>
		</clipPath>
		<g class="st3">
			<path class="st1" d="M53.2,69.6c3.8,0,6.8-3.1,6.8-6.8c0-3.8-3.1-6.8-6.8-6.8c-3.8,0-6.8,3.1-6.8,6.8
				C46.4,66.6,49.5,69.6,53.2,69.6"/>
		</g>
	</g>
	<g>
		<defs>
			<rect id="SVGID_7_" x="0.3" y="56" width="107.2" height="13.6"/>
		</defs>
		<clipPath id="SVGID_8_">
			<use xlink:href="#SVGID_7_"  style="overflow:visible;"/>
		</clipPath>
		<g class="st4">
			<path class="st1" d="M81.7,69.6c3.8,0,6.8-3.1,6.8-6.8c0-3.8-3.1-6.8-6.8-6.8c-3.8,0-6.8,3.1-6.8,6.8
				C74.9,66.6,77.9,69.6,81.7,69.6"/>
		</g>
	</g>
</g>
</svg>
