<?xml version="1.0" encoding="utf-8"?>
<!-- Generator: Adobe Illustrator 21.0.2, SVG Export Plug-In . SVG Version: 6.00 Build 0)  -->
<svg version="1.1" id="Calque_1" xmlns="http://www.w3.org/2000/svg" xmlns:xlink="http://www.w3.org/1999/xlink" x="0px" y="0px"
	 viewBox="0 0 40 40" style="enable-background:new 0 0 40 40;" xml:space="preserve">
<style type="text/css">
	.st0{fill:#FFFFFF;}
</style>
<g>
	<g>
		<path class="st0" d="M20,1.1C9.6,1.1,1.1,9.6,1.1,20c0,10.4,8.5,18.9,18.9,18.9c10.4,0,18.9-8.5,18.9-18.9
			C38.9,9.6,30.4,1.1,20,1.1z M28.4,15.7c0,0.2,0,0.4,0,0.6c0,5.8-4.4,12.4-12.4,12.4c-2.5,0-4.7-0.7-6.7-2c0.3,0,0.7,0.1,1,0.1
			c2,0,3.9-0.7,5.4-1.9c-1.9,0-3.5-1.3-4.1-3c0.3,0.1,0.5,0.1,0.8,0.1c0.4,0,0.8-0.1,1.1-0.2c-2-0.4-3.5-2.2-3.5-4.3c0,0,0,0,0-0.1
			c0.6,0.3,1.3,0.5,2,0.5c-1.2-0.8-1.9-2.1-1.9-3.6c0-0.8,0.2-1.5,0.6-2.2c2.1,2.6,5.4,4.4,9,4.6c-0.1-0.3-0.1-0.7-0.1-1
			c0-2.4,1.9-4.4,4.4-4.4c1.3,0,2.4,0.5,3.2,1.4c1-0.2,1.9-0.6,2.8-1.1c-0.3,1-1,1.9-1.9,2.4c0.9-0.1,1.7-0.3,2.5-0.7
			C30,14.3,29.3,15.1,28.4,15.7z"/>
	</g>
</g>
</svg>
