<?xml version="1.0" encoding="utf-8"?>
<!-- Generator: Adobe Illustrator 26.0.3, SVG Export Plug-In . SVG Version: 6.00 Build 0)  -->
<svg version="1.1" id="Calque_1" xmlns="http://www.w3.org/2000/svg" xmlns:xlink="http://www.w3.org/1999/xlink" x="0px" y="0px"
	 viewBox="0 0 40 40" style="enable-background:new 0 0 40 40;" xml:space="preserve">
<style type="text/css">
	.st0{fill:#FFFFFF;}
</style>
<path class="st0" d="M31.1,14.3c0,0.2,0,0.5,0,0.7c0,7.6-5.8,16.4-16.4,16.4c-3.1,0-6.2-0.9-8.8-2.6c0.5,0,0.9,0.1,1.4,0.1
	c2.6,0,5.1-0.9,7.1-2.5c-2.5,0-4.6-1.7-5.4-4c0.4,0.1,0.7,0.1,1.1,0.1c0.5,0,1-0.1,1.5-0.2c-2.7-0.5-4.6-2.9-4.6-5.6v-0.1
	c0.8,0.4,1.7,0.7,2.6,0.7c-1.6-1.1-2.6-2.9-2.6-4.8c0-1,0.3-2,0.8-2.9c2.9,3.6,7.2,5.8,11.9,6c-0.1-0.4-0.1-0.9-0.1-1.3
	c0-3.2,2.5-5.8,5.7-5.8c1.6,0,3.2,0.7,4.3,1.9c1.3-0.3,2.5-0.7,3.6-1.4c-0.4,1.3-1.3,2.5-2.5,3.2c1.1-0.1,2.2-0.4,3.3-0.9
	C33.2,12.5,32.3,13.5,31.1,14.3z"/>
</svg>
