<svg xmlns="http://www.w3.org/2000/svg" xmlns:xlink="http://www.w3.org/1999/xlink" id="Capa_1" x="0" y="0" version="1.1" viewBox="0 0 482.8 482.8" xml:space="preserve" style="enable-background:new 0 0 482.8 482.8"><style type="text/css">.st0{fill:#faba49;stroke:#faba49;stroke-width:3;stroke-miterlimit:10}</style><g><g><path d="M422.6,427.9H62.2c-23.8,0-43.1-19.3-43.1-43.1V113.9c0-23.8,19.3-43.1,43.1-43.1h360.4 c23.8,0,43.1,19.3,43.1,43.1v270.8C465.7,408.5,446.4,427.9,422.6,427.9z M62.2,80.4c-18.5,0-33.5,15-33.5,33.5v270.8 c0,18.5,15,33.5,33.5,33.5h360.4c18.5,0,33.5-15,33.5-33.5V113.9c0-18.5-15-33.5-33.5-33.5H62.2z" class="st0"/></g><g><rect width="437" height="9.6" x="23.9" y="180.8" class="st0"/></g><g><circle cx="67.9" cy="129.2" r="10.9" class="st0"/></g><g><circle cx="104.5" cy="129.2" r="10.9" class="st0"/></g><g><circle cx="141.1" cy="129.2" r="10.9" class="st0"/></g></g></svg>