<svg xmlns="http://www.w3.org/2000/svg" xmlns:xlink="http://www.w3.org/1999/xlink" id="Calque_1" x="0" y="0" version="1.1" viewBox="0 0 40 40" xml:space="preserve" style="enable-background:new 0 0 40 40"><style type="text/css">.st0{fill:#fff}</style><path d="M20.8,32.4L20.8,32.4c-3.9,0-8.2-0.1-12.7-0.4c-2.7-0.2-4.8-2.3-5-5c-0.5-4.7-0.5-9.3,0-14c0.2-2.7,2.3-4.8,5-5	C16,7.5,24,7.5,31.9,8c2.7,0.2,4.8,2.3,5,5c0.5,4.7,0.5,9.3,0,14c-0.2,2.7-2.3,4.8-5,5C28.5,32.3,24.7,32.4,20.8,32.4z M19.9,9	C16,9,12,9.2,8.2,9.4c-2,0.1-3.7,1.8-3.8,3.8c-0.5,4.6-0.5,9.2,0,13.7c0.1,2,1.7,3.7,3.8,3.8c4.5,0.2,8.7,0.4,12.6,0.4	s7.6-0.1,11-0.4c2-0.1,3.7-1.8,3.8-3.8c0.5-4.6,0.5-9.2,0-13.7c-0.1-2-1.7-3.7-3.8-3.8C27.8,9.1,23.8,9,19.9,9z M16.6,15.3v9.1	l8.7-4.5L16.6,15.3z" class="st0"/></svg>