<?xml version="1.0" encoding="utf-8"?>
<!-- Generator: Adobe Illustrator 21.0.2, SVG Export Plug-In . SVG Version: 6.00 Build 0)  -->
<svg version="1.1" id="Calque_1" xmlns="http://www.w3.org/2000/svg" xmlns:xlink="http://www.w3.org/1999/xlink" x="0px" y="0px"
	 viewBox="0 0 40 40" style="enable-background:new 0 0 40 40;" xml:space="preserve">
<style type="text/css">
	.st0{fill:#FFFFFF;}
</style>
<g>
	<polygon class="st0" points="19,24.1 24.6,20.3 19,16.6 	"/>
	<path class="st0" d="M20.6,1C9.9,1,1.2,9.7,1.2,20.5S9.9,40,20.6,40s19.5-8.7,19.5-19.5S31.4,1,20.6,1z M30.8,16.7v7.9
		c0,1.6-1.3,3-3,3H14c-1.6,0-3-1.3-3-3v-7.9c0-1.6,1.3-3,3-3h13.9C29.5,13.8,30.8,15.1,30.8,16.7L30.8,16.7z"/>
</g>
</svg>
