<?xml version="1.0" encoding="UTF-8"?><svg id="Calque_1" xmlns="http://www.w3.org/2000/svg" xmlns:xlink="http://www.w3.org/1999/xlink" viewBox="0 0 137.25 137.25"><defs><style>.cls-1{fill:url(#Dégradé_sans_nom_10-4);}.cls-2{fill:url(#Dégradé_sans_nom_10-2);}.cls-3{fill:url(#Dégradé_sans_nom_10-3);}.cls-4{fill:url(#Dégradé_sans_nom_10);}</style><linearGradient id="Dégradé_sans_nom_10" x1="-31.46" y1="-4.99" x2="82.96" y2="100.77" gradientTransform="matrix(1, 0, 0, 1, 0, 0)" gradientUnits="userSpaceOnUse"><stop offset="0" stop-color="#fbb128"/><stop offset=".48" stop-color="#ff8f05"/><stop offset="1" stop-color="#ff524d"/></linearGradient><linearGradient id="Dégradé_sans_nom_10-2" x1="-22.05" y1="-15.17" x2="92.38" y2="90.59" xlink:href="#Dégradé_sans_nom_10"/><linearGradient id="Dégradé_sans_nom_10-3" x1="-27.9" y1="-8.85" x2="86.53" y2="96.91" xlink:href="#Dégradé_sans_nom_10"/><linearGradient id="Dégradé_sans_nom_10-4" x1="-13.21" y1="-24.74" x2="101.22" y2="81.02" xlink:href="#Dégradé_sans_nom_10"/></defs><path class="cls-4" d="M105.32,115.63c-1.16-.28-2.32-.54-3.5-.72-1.42-.22-2.85-.35-4.29-.18-.51,.06-1.02,.16-1.49,.41,.02,.04,.03,.05,.04,.07,2.52,2.31,4.2,5.13,5.23,8.33,1.57-.94,3.09-1.93,4.57-3-.14-1.64-.33-3.28-.56-4.91Z"/><path class="cls-2" d="M95.22,117.47c-.18-.45-.38-.9-.59-1.38-.08,.11-.13,.17-.18,.24-1.38,2-2.46,4.14-2.99,6.53-.06,.25-.17,.5-.31,.73-.13,.22-.32,.22-.47,.01-.11-.15-.2-.33-.26-.51-.58-1.85-.49-3.66,.33-5.43,.06-.13,.12-.25,.2-.44-.11,.05-.16,.07-.19,.09-1.26,.82-2.53,1.6-3.76,2.46-1.35,.95-2.58,2.05-3.73,3.24-.18,.19-.42,.32-.66,.44-.18,.09-.34,0-.36-.21-.03-.19-.04-.39,0-.57,.63-2.63,2-4.78,4.16-6.42,1.29-.98,2.74-1.64,4.29-2.08,.47-.13,.94-.24,1.44-.37-.09-.05-.16-.09-.22-.11-1.64-.67-3.33-1.03-5.1-1.04-.35,0-.7,0-1.05-.04-.28-.03-.61-.08-.68-.42-.06-.32,.22-.48,.46-.62,1.07-.64,2.25-.88,3.48-.94,1.34-.06,2.66,.1,3.97,.42,.36,.09,.72,.18,1.08,.26,.03-.06,.05-.09,.07-.12,1.21-2.26,3.07-3.67,5.54-4.28,.58-.14,1.17-.21,1.76-.32h1.44c.12,.03,.26,.04,.36,.1,.14,.08,.3,.16,.4,.27-1.27-5.35-2.98-10.57-5.04-15.68-.44-1.09-.92-2.16-1.41-3.31-.2,.26-.32,.41-.43,.58-3.32,4.8-5.9,9.94-7.18,15.68-.14,.61-.42,1.21-.74,1.75-.31,.52-.77,.52-1.12,.03-.27-.37-.49-.79-.63-1.23-1.39-4.44-1.19-8.79,.8-13.03,.14-.3,.28-.61,.49-1.06-.27,.13-.37,.16-.46,.22-3.02,1.96-6.09,3.85-9.04,5.91-3.25,2.27-6.19,4.92-8.95,7.77-.43,.45-1.01,.77-1.58,1.06-.43,.22-.81-.01-.88-.49-.06-.45-.09-.94,.01-1.38,1.51-6.31,4.81-11.48,9.99-15.42,3.1-2.35,6.58-3.94,10.32-5,1.12-.32,2.25-.57,3.47-.88-.23-.12-.37-.21-.53-.27-3.93-1.61-8.01-2.46-12.26-2.49-.84,0-1.68-.02-2.51-.1-.68-.07-1.47-.2-1.63-1-.16-.78,.54-1.16,1.1-1.5,2.57-1.55,5.41-2.12,8.36-2.25,3.22-.14,6.4,.24,9.53,1.01,.87,.21,1.74,.42,2.6,.63,.08-.14,.13-.21,.17-.29,2.9-5.42,7.38-8.81,13.31-10.29,1.38-.35,2.81-.51,4.22-.76h3.45c.29,.08,.62,.1,.88,.24,.4,.22,.92,.45,1.09,.82,.24,.52-.26,.92-.65,1.26-.25,.21-.52,.41-.81,.57-.78,.42-1.57,.81-2.35,1.22-3.47,1.82-6.88,3.74-9.77,6.43-.93,.86-1.74,1.8-2.27,3.08,.41-.06,.73-.1,1.05-.15,4.44-.63,8.86-.62,13.25,.34,4.37,.96,8.34,2.73,11.64,5.84,.36,.34,.7,.73,.99,1.14,1.55-5.52,2.39-11.34,2.39-17.35,0-35.29-28.61-63.9-63.9-63.9S4.72,33.34,4.72,68.62s28.61,63.9,63.9,63.9c10.46,0,20.33-2.51,29.04-6.97-.54-2.78-1.38-5.47-2.44-8.09Z"/><path class="cls-3" d="M103.45,107.57c-.1,.09-.22,.17-.34,.24-.32,.18-.65,.34-.98,.51-1.44,.76-2.86,1.56-4.07,2.67-.39,.36-.73,.75-.94,1.28,.17-.02,.31-.04,.44-.06,1.85-.26,3.69-.26,5.52,.14,.63,.14,1.23,.32,1.81,.54-.11-.61-.22-1.23-.33-1.84-.25-1.28-.53-2.55-.82-3.82-.04,.13-.17,.24-.28,.33Z"/><path class="cls-1" d="M127.08,87.95c-4.16-1.14-8.34-2.15-12.6-2.81-3.42-.53-6.85-.85-10.3-.44-1.24,.15-2.45,.39-3.58,.98,.06,.09,.07,.13,.1,.16,6.5,5.93,10.67,13.28,13.09,21.67,.49,1.69,.87,3.4,1.16,5.11,6.52-6.87,11.53-15.18,14.5-24.41-.79,.04-1.61-.05-2.37-.26Z"/></svg>